<svg width="32" height="32" viewBox="0 0 32 32" fill="none" xmlns="http://www.w3.org/2000/svg">
<g clip-path="url(#clip0_6171_212)">
<path fill-rule="evenodd" clip-rule="evenodd" d="M21.1829 18.1897C21.682 20.6392 21.2627 23.0591 19.057 25.3993C17.4141 27.1288 15.459 27.9992 13.1781 27.9992C10.904 27.9992 8.95345 27.1288 7.31055 25.3993C5.97982 23.9934 5.30078 22.5555 5.07975 21.0949H7.24219L7.74577 19.9283L10.3548 24.0595L12.5469 18.8892L14.9281 23.7268L17.1383 21.1109H18.0088V19.7984H16.5322L15.2197 21.3524L12.4603 15.747L10.1292 21.2476L7.53158 17.1346L6.3877 19.7824H5C5.11393 15.1591 9.2041 10.3739 11.3574 5.83484C14.7184 -1.44999 11.8337 -1.8647 14.3424 4.31727C13.1507 5.78243 12.4375 7.64865 12.4375 9.68348C12.4375 12.0328 13.39 14.161 14.9303 15.7014C16.4707 17.2417 18.5967 18.1942 20.9482 18.1942C21.0257 18.1942 21.1055 18.1919 21.1829 18.1897ZM21.4883 9.08647C21.846 9.28016 22.0898 9.65841 22.0898 10.0959C22.0898 10.7271 21.5771 11.2398 20.946 11.2398C20.3148 11.2398 19.8021 10.7271 19.8021 10.0959C19.8021 9.66069 20.0459 9.28016 20.4059 9.08647V6.66427C20.4059 6.36577 20.6475 6.12195 20.9482 6.12195C21.2467 6.12195 21.4906 6.36349 21.4906 6.66427V9.08647H21.4883Z" fill="#40D0B9"/>
<path d="M24.3786 3.841C24.8685 4.14178 25.3174 4.50865 25.7207 4.90969C26.9421 6.13104 27.6986 7.81952 27.6986 9.68345C27.6986 11.5474 26.9443 13.2359 25.7207 14.4572C24.4993 15.6786 22.8109 16.4351 20.9469 16.4351C19.083 16.4351 17.3968 15.6786 16.1732 14.4572C14.9518 13.2359 14.1953 11.5474 14.1953 9.68345C14.1953 7.81952 14.9495 6.13332 16.1732 4.91197C16.5924 4.49269 17.0641 4.10988 17.5814 3.80226C19.5479 2.6356 22.4281 2.64699 24.3786 3.841ZM21.5303 4.04836V4.87779H20.3636V4.04836C19.0306 4.18508 17.8366 4.78208 16.9411 5.67759C16.0387 6.57993 15.4395 7.78762 15.3073 9.12974H16.1117V10.2964H15.3141C15.4554 11.6157 16.0501 12.8006 16.9411 13.6916C17.8366 14.5871 19.0329 15.1864 20.3636 15.3208V14.5484H21.5303V15.3208C22.8633 15.1841 24.0573 14.5871 24.9551 13.6916C25.8438 12.8029 26.4408 11.618 26.582 10.2964H25.7845V9.12974H26.5889C26.459 7.78534 25.8597 6.57993 24.9574 5.67759C24.0573 4.78208 22.861 4.18508 21.5303 4.04836Z" fill="#40D0B9"/>
</g>
<defs>
<clipPath id="clip0_6171_212">
<rect width="32" height="32" fill="white"/>
</clipPath>
</defs>
</svg>
