<svg width="24" height="30" viewBox="0 0 24 30" fill="none" xmlns="http://www.w3.org/2000/svg">
<path d="M3.23454 10.9847L3.23093 10.9874L3.225 10.9918L3.20944 11.0038C3.19746 11.0131 3.18226 11.025 3.16413 11.0396C3.12786 11.0688 3.07971 11.1087 3.02163 11.1595C2.90555 11.261 2.74926 11.4063 2.56854 11.5966C2.20756 11.9766 1.74552 12.5397 1.31265 13.2943C0.439365 14.8168 -0.29448 17.0859 0.11802 20.1213C0.524955 23.116 1.7825 25.6201 3.91067 27.366C6.03126 29.1057 8.90299 30 12.375 30C15.9563 30 18.8137 28.6581 20.7063 26.3549C22.5816 24.0729 23.4183 20.9612 23.2181 17.559C23.0262 14.2953 21.2484 11.8192 19.6782 9.63185C19.5265 9.42065 19.3768 9.21213 19.2307 9.00587C17.5177 6.58833 16.1652 4.35985 16.4939 1.24294C16.5273 0.925815 16.4245 0.609375 16.2112 0.37236C15.9978 0.135345 15.6939 0 15.375 0C14.802 0 14.1463 0.17733 13.5115 0.443985C12.8572 0.718845 12.1476 1.12127 11.4527 1.64541C10.0656 2.69157 8.67884 4.26844 7.93854 6.37738C7.20009 8.48112 7.5742 10.4863 8.11512 11.9448C8.47033 12.9025 8.08508 13.8495 7.50521 14.1248C6.99239 14.3684 6.37878 14.164 6.11428 13.6617L4.9033 11.3618C4.75009 11.0708 4.47721 10.8614 4.15648 10.7887C3.83575 10.716 3.49823 10.7881 3.23454 10.9847Z" fill="#14B8A6"/>
</svg>
