<svg width="32" height="32" viewBox="0 0 32 32" fill="none" xmlns="http://www.w3.org/2000/svg">
<path d="M12.1145 0H15.2199V2.11307C16.2076 2.05114 17.165 2.11035 18.0253 2.29731C14.3761 3.77596 12.6972 7.57589 12.4223 8.19818L12.4054 8.23631C11.5137 8.09692 10.5476 7.98103 9.63342 7.98966C8.69139 8.0723 7.7774 8.21561 6.27214 9.08846C6.05988 9.24288 5.77372 9.49616 5.38485 9.88235C5.35659 9.86141 5.32631 9.84199 5.28672 9.8165C5.25504 9.79611 5.21724 9.7719 5.16972 9.73993C4.95475 9.59534 4.64087 9.39969 4.25813 9.20427C3.46969 8.80153 2.50252 8.4581 1.55469 8.4581V5.35838C3.1936 5.35838 4.66711 5.9312 5.67264 6.4448C6.02145 6.62295 6.32757 6.80102 6.58089 6.95927C6.80502 6.46678 7.10073 6.00873 7.45428 5.58641L5.74896 2.8315L8.48248 1.004L10.0557 3.54569C10.7037 3.2017 11.3987 2.91626 12.1145 2.69192V0Z" fill="#40D0B9"/>
<path d="M20.6193 6.78815C19.4586 7.32091 18.4539 8.19664 17.5481 9.88235C17.5481 9.88235 15.5386 8.97232 13.9082 8.49932C15.1595 5.98732 16.6155 4.57395 18.7627 3.58838C20.8397 2.63501 23.3176 2.3909 26.2611 2.49163L26.1218 6.24341C23.4058 6.15045 21.85 6.22323 20.6193 6.78815Z" fill="#40D0B9"/>
<path d="M6.78647 10.3172C1.05448 15.3694 9.24297 28 15.7939 28C22.3447 28 31.3651 15.3807 24.8013 9.5955C24.6499 9.46198 24.5173 9.34188 24.3942 9.23035C23.8516 8.73878 23.4906 8.41169 22.4895 7.82349C20.4751 7.82349 19.2612 9.81466 18.7086 11.0277C18.6805 11.0893 18.6458 11.1468 18.6057 11.1995L17.3317 14.7018L16.8726 16.3304C16.8242 16.5023 16.8368 16.6854 16.9085 16.8493L17.4447 18.0739L20.2213 17.7555L20.4033 19.3048L17.7919 19.6044L17.9616 22.0625L16.3869 22.1686L16.1751 19.1022L15.4599 17.4687C15.2447 16.9772 15.2066 16.4276 15.352 15.9118L15.3657 15.8631L13.7604 16.5805L12.7108 19.2023L11.243 18.6286L12.0743 16.5522L9.54044 15.9622L9.90238 14.444L13.0637 15.18L15.9495 13.8903L16.92 11.2226C14.4197 10.0618 9.28512 8.11486 6.78647 10.3172Z" fill="#40D0B9"/>
</svg>
