<svg width="32" height="32" viewBox="0 0 32 32" fill="none" xmlns="http://www.w3.org/2000/svg">
<path fill-rule="evenodd" clip-rule="evenodd" d="M15.8612 7.91576C17.6863 6.0131 18.9646 4.36794 21.7765 4.04665C27.056 3.44054 31.9118 8.84544 29.2458 14.166C28.7468 15.1618 27.9105 16.2783 26.9125 17.429V17.29H20.4252H20.0812L19.8396 17.5407L18.7482 18.6663L16.4969 14.3438L15.7495 12.9082L15.034 14.3597L12.9947 18.4977L10.9735 15.5651L10.2626 14.5352L9.60406 15.6016L8.65615 17.1328H4.49538C3.08035 15.1891 2.08687 13.0905 2.00484 10.8233C1.85673 6.67618 5.12884 4.01931 8.89313 4.06944C12.2564 4.11273 13.6714 5.78524 15.8612 7.91576ZM25.5408 18.9306C25.4382 19.0377 25.3357 19.1448 25.2331 19.2519C23.3578 21.1933 21.282 23.096 19.8282 24.5383L15.8634 28.4712L12.5868 25.3176C10.5907 23.3945 7.95661 21.2206 5.81698 18.7734H9.10959H9.56304L9.80458 18.3815L10.3332 17.5247L12.4364 20.5758L13.2271 21.7242L13.8423 20.4733L15.7814 16.5358L17.8071 20.43L18.3312 21.4371L19.1219 20.6214L20.7625 18.9306H25.5408Z" fill="#40D0B9"/>
</svg>
