<svg width="24" height="24" viewBox="0 0 24 24" fill="none" xmlns="http://www.w3.org/2000/svg">
<path d="M11.85 1C17.8425 1 22.7 5.85863 22.7 11.85C22.7 17.8414 17.8425 22.7 11.85 22.7C5.85755 22.7 1 17.8414 1 11.85C1 5.85863 5.85755 1 11.85 1ZM11.85 15.6475C11.2508 15.6475 10.765 16.1333 10.765 16.7325C10.765 17.3317 11.2508 17.8175 11.85 17.8175C12.4492 17.8175 12.935 17.3317 12.935 16.7325C12.935 16.1333 12.4492 15.6475 11.85 15.6475ZM11.85 6.15375C10.2021 6.15375 8.86625 7.48962 8.86625 9.1375C8.86625 9.58692 9.23058 9.95125 9.68 9.95125C10.092 9.95125 10.4324 9.64512 10.4864 9.24792L10.4938 9.1375C10.4938 8.38846 11.1009 7.78125 11.85 7.78125C12.5991 7.78125 13.2063 8.38846 13.2063 9.1375C13.2063 9.7221 13.0598 10.0113 12.5065 10.5829L12.3596 10.7321C11.4069 11.6849 11.0363 12.3026 11.0363 13.4775C11.0363 13.9269 11.4006 14.2913 11.85 14.2913C12.2994 14.2913 12.6638 13.9269 12.6638 13.4775C12.6638 12.8929 12.8102 12.6038 13.3635 12.0321L13.5104 11.8829C14.4631 10.9301 14.8338 10.3124 14.8338 9.1375C14.8338 7.48962 13.4979 6.15375 11.85 6.15375Z" fill="#212121"/>
</svg>
