<svg width="32" height="32" viewBox="0 0 32 32" fill="none" xmlns="http://www.w3.org/2000/svg">
<path d="M9.37307 5.32629C14.5766 5.33074 14.0981 12.405 14.0963 15.2348C14.0927 18.8462 14.9795 26.1355 12.1928 28.9103C9.35172 31.7375 3.67408 33.1484 0.837487 30.788C-1.99911 28.4266 2.7499 5.32096 9.37307 5.32629ZM22.663 5.33696C17.4595 5.33252 17.9264 12.4076 17.9238 15.2375C17.9211 18.8497 17.0218 26.1373 19.805 28.9165C22.6408 31.749 28.3166 33.168 31.1568 30.8129C33.9969 28.4569 29.2862 5.3423 22.663 5.33696Z" fill="#40D0B9"/>
<path fill-rule="evenodd" clip-rule="evenodd" d="M15.1325 0H16.9115L16.9017 12.886C16.9 14.7539 16.0665 15.8243 15.1236 16.3737C14.5874 16.6824 13.9843 16.8569 13.366 16.8823H13.3429V15.1042H13.334H13.3384C13.423 15.099 13.507 15.0883 13.5902 15.0722C13.7716 15.0366 14.0038 14.9681 14.2288 14.8374C14.6202 14.6099 15.121 14.1262 15.1228 12.8842L15.1325 0Z" fill="#40D0B9"/>
<path fill-rule="evenodd" clip-rule="evenodd" d="M16.9118 0H15.1328L15.123 12.8842C15.1213 14.7521 15.9521 15.8243 16.894 16.3755C17.4299 16.6847 18.0326 16.8598 18.6508 16.8858H18.6757L18.6775 15.9968C18.6775 15.1077 18.6792 15.1077 18.6792 15.1077H18.6873H18.6828C18.6748 15.1077 18.6597 15.1077 18.6374 15.1051C18.3402 15.0789 18.0522 14.9885 17.7933 14.8401C17.4019 14.6116 16.9011 14.128 16.9029 12.886L16.9118 0Z" fill="#40D0B9"/>
</svg>
