<svg width="24" height="24" viewBox="0 0 24 24" fill="none" xmlns="http://www.w3.org/2000/svg">
<path d="M18.8415 9.25282C19.2084 9.25282 19.5632 9.19642 19.8989 9.09119C19.9183 9.34041 19.9282 9.59256 19.9282 9.84725V14.564L21.4695 18.2918C21.5291 18.436 21.56 18.5924 21.56 18.7506C21.56 19.3696 21.0978 19.8713 20.5276 19.8713H3.03261C2.88722 19.8713 2.74349 19.838 2.61079 19.7735C2.09041 19.5206 1.8574 18.8576 2.09037 18.2927L3.62792 14.5645L3.62803 9.83201L3.63283 9.53719C3.78396 4.78242 7.38337 1 11.7781 1C13.3465 1 14.8116 1.48095 16.0547 2.31439C15.4239 3.05132 15.0381 4.03881 15.0381 5.1241C15.0381 7.40433 16.741 9.25282 18.8415 9.25282ZM14.9928 21.0527C14.7334 22.7255 13.3929 24 11.7781 24C10.1633 24 8.82268 22.7255 8.56335 21.0527H14.9928ZM18.8415 8.07319C20.3419 8.07319 21.5583 6.75283 21.5583 5.1241C21.5583 3.49537 20.3419 2.17502 18.8415 2.17502C17.3412 2.17502 16.1248 3.49537 16.1248 5.1241C16.1248 6.75283 17.3412 8.07319 18.8415 8.07319Z" fill="#212121"/>
</svg>
