<svg width="22" height="22" viewBox="0 0 22 22" fill="none" xmlns="http://www.w3.org/2000/svg">
<path d="M9.29793 16.0155C9.29793 14.6832 9.68559 13.4416 10.3544 12.3973L2.32422 12.3979C1.04059 12.3979 0 13.4385 0 14.7223V15.6731C0 16.2644 0.184377 16.8409 0.52746 17.3224C2.12129 19.5595 4.7288 20.6676 8.26442 20.6676C9.22692 20.6676 10.1208 20.5855 10.943 20.42C9.91824 19.2406 9.29793 17.7005 9.29793 16.0155ZM13.432 5.16782C13.432 2.31371 11.1183 0 8.26442 0C5.41043 0 3.09685 2.31371 3.09685 5.16782C3.09685 8.02193 5.41043 10.3357 8.26442 10.3357C11.1183 10.3357 13.432 8.02193 13.432 5.16782ZM21.7 16.0154C21.7 12.8759 19.155 10.3308 16.0157 10.3308C12.8763 10.3308 10.3314 12.8759 10.3314 16.0154C10.3314 19.155 12.8763 21.7 16.0157 21.7C19.155 21.7 21.7 19.155 21.7 16.0154ZM15.9228 12.4063L16.0157 12.3979L16.1085 12.4063C16.3195 12.4445 16.4859 12.6109 16.5241 12.8219L16.5325 12.9147L16.5314 15.4986H19.1203L19.2132 15.507C19.424 15.5452 19.5904 15.7116 19.6286 15.9226L19.637 16.0154L19.6286 16.1083C19.5904 16.3193 19.424 16.4856 19.2132 16.5239L19.1203 16.5322H16.5314L16.5325 19.1161L16.5241 19.209C16.4859 19.42 16.3195 19.5863 16.1085 19.6246L16.0157 19.6329L15.9228 19.6246C15.7119 19.5863 15.5456 19.42 15.5072 19.209L15.499 19.1161L15.4979 16.5322H12.9192L12.8263 16.5239C12.6154 16.4856 12.4491 16.3193 12.4107 16.1083L12.4025 16.0154L12.4107 15.9226C12.4491 15.7116 12.6154 15.5452 12.8263 15.507L12.9192 15.4986H15.4979L15.499 12.9147L15.5072 12.8219C15.5456 12.6109 15.7119 12.4445 15.9228 12.4063Z" fill="#212121"/>
</svg>
