<svg width="25" height="24" viewBox="0 0 25 24" fill="none" xmlns="http://www.w3.org/2000/svg">
<path d="M21.5 8V16C21.5 18.7614 19.2614 21 16.5 21H8.5C5.73858 21 3.5 18.7614 3.5 16V8C3.5 5.23858 5.73858 3 8.5 3H16.5C19.2614 3 21.5 5.23858 21.5 8Z" stroke="black" stroke-width="1.5" stroke-linecap="round" stroke-linejoin="round"/>
<path d="M14.4 18H10.6C10.2686 18 10 17.7314 10 17.4V15.1C10 14.7686 9.73137 14.5 9.4 14.5H7.1C6.76863 14.5 6.5 14.2314 6.5 13.9V10.1C6.5 9.76863 6.76863 9.5 7.1 9.5H9.4C9.73137 9.5 10 9.23137 10 8.9V6.6C10 6.26863 10.2686 6 10.6 6H14.4C14.7314 6 15 6.26863 15 6.6V8.9C15 9.23137 15.2686 9.5 15.6 9.5H17.9C18.2314 9.5 18.5 9.76863 18.5 10.1V13.9C18.5 14.2314 18.2314 14.5 17.9 14.5H15.6C15.2686 14.5 15 14.7686 15 15.1V17.4C15 17.7314 14.7314 18 14.4 18Z" stroke="black" stroke-width="1.5"/>
</svg>
