<svg width="24" height="24" viewBox="0 0 24 24" fill="none" xmlns="http://www.w3.org/2000/svg">
<path d="M11.8624 1C12.713 1.00941 13.5604 1.10378 14.3906 1.28159C14.753 1.35921 15.0241 1.64934 15.0653 2.00372L15.2625 3.70284C15.3519 4.48298 16.0379 5.07387 16.8556 5.07469C17.0755 5.07503 17.2929 5.03107 17.4961 4.94477L19.1193 4.26008C19.4569 4.11768 19.8514 4.19532 20.1034 4.45378C21.2765 5.65677 22.1501 7.09955 22.6586 8.67356C22.7683 9.01297 22.6421 9.38182 22.3442 9.59267L20.9054 10.611C20.4949 10.9006 20.2525 11.3604 20.2525 11.8495C20.2525 12.3384 20.4949 12.7983 20.9063 13.0885L22.3463 14.1072C22.6443 14.3179 22.7706 14.6868 22.6609 15.0264C22.1526 16.6001 21.2795 18.0428 20.1071 19.246C19.8553 19.5044 19.4612 19.5823 19.1236 19.4402L17.4937 18.7545C17.0274 18.5586 16.4919 18.5873 16.0512 18.8319C15.6106 19.0764 15.3173 19.5076 15.2614 19.9933L15.0654 21.6923C15.0249 22.0426 14.7598 22.3308 14.4026 22.4124C12.7239 22.7959 10.975 22.7959 9.29625 22.4124C8.93915 22.3308 8.67391 22.0426 8.6335 21.6923L8.43785 19.9959C8.38037 19.511 8.08666 19.0812 7.64635 18.8374C7.20605 18.5937 6.67141 18.5651 6.20667 18.76L4.57645 19.4457C4.23879 19.5878 3.84452 19.5099 3.59274 19.2513C2.41969 18.0468 1.5465 16.6023 1.03889 15.0269C0.92955 14.6876 1.05588 14.3189 1.35372 14.1083L2.79468 13.0889C3.20511 12.7994 3.44751 12.3396 3.44751 11.8506C3.44751 11.3615 3.20511 10.9017 2.79414 10.6118L1.35408 9.59417C1.05581 9.3834 0.929365 9.01431 1.03908 8.67467C1.54758 7.10066 2.42122 5.65788 3.5943 4.45489C3.84633 4.19643 4.24078 4.11879 4.57838 4.2612L6.20136 4.94576C6.66835 5.14255 7.20523 5.11283 7.64791 4.86449C8.08869 4.619 8.38213 4.18737 8.43879 3.70153L8.63589 2.00372C8.67705 1.64917 8.94837 1.35893 9.31105 1.28148C10.1424 1.10396 10.9906 1.00963 11.8624 1ZM11.8479 8.5115C9.92761 8.5115 8.37102 10.0062 8.37102 11.85C8.37102 13.6938 9.92761 15.1885 11.8479 15.1885C13.768 15.1885 15.3248 13.6938 15.3248 11.85C15.3248 10.0062 13.768 8.5115 11.8479 8.5115Z" fill="#212121"/>
</svg>
