<svg width="25" height="30" viewBox="0 0 25 30" fill="none" xmlns="http://www.w3.org/2000/svg">
<g clip-path="url(#clip0_6409_1645)">
<path d="M1.46822 19.1223C1.63247 19.8373 1.80258 20.6826 1.98266 21.7349L9.40245 21.4252C9.21063 18.8008 9.9075 15.1065 10.446 12.9161C11.0772 10.219 11.1241 7.716 9.10915 5.57142C7.9565 4.34134 6.25949 3.83864 4.61293 4.32844C3.52539 4.654 2.54227 5.38313 1.82428 6.38151C0.528504 8.18996 -0.113226 10.9176 0.0164104 13.105C0.138421 15.2255 0.99367 17.0586 1.46822 19.1223ZM23.2859 14.9786C23.1216 15.6925 22.9515 16.5383 22.7714 17.5895L15.3516 17.2809C15.5435 14.656 14.8466 10.9628 14.3081 8.77304C13.6769 6.0753 13.63 3.57232 15.6455 1.42775C17.793 -0.865234 21.1401 -0.251661 22.9298 2.23724C24.2256 4.0457 24.8673 6.77393 24.7377 8.96133C24.6157 11.0813 23.7604 12.915 23.2859 14.9786ZM22.6576 19.1563C22.657 19.3428 22.6594 19.5305 22.6647 19.7188C22.6717 19.981 22.6829 20.2121 22.694 20.4362C22.7662 22.0136 22.8172 23.1756 21.4487 24.5599C20.7671 25.2504 19.9054 25.6545 19.0173 25.7982C18.3468 25.9056 17.664 25.8634 17.034 25.6815C16.4081 25.4997 15.8356 25.1811 15.381 24.7306C14.88 24.2367 14.5234 23.5839 14.3961 22.7849C14.2993 22.1813 14.3392 21.5807 14.4542 20.9876C14.5703 20.3828 14.768 19.7792 14.9768 19.1909C15.0179 19.0753 15.0554 18.9586 15.0889 18.8407L22.6576 19.1563ZM2.09705 23.3005C2.09705 23.4877 2.09411 23.6742 2.08942 23.8625C2.08238 24.1247 2.07124 24.3558 2.06009 24.5805C1.98794 26.1572 1.93691 27.3193 3.30542 28.7036C3.98704 29.394 4.84874 29.7988 5.73684 29.9419C6.4079 30.0498 7.09011 30.0064 7.7201 29.8252C8.346 29.6433 8.91851 29.3248 9.3737 28.8737C9.87407 28.3804 10.2307 27.7275 10.358 26.9292C10.4548 26.3256 10.4149 25.7243 10.2999 25.1319C10.1838 24.5259 9.9861 23.9229 9.77728 23.3346C9.73622 23.2196 9.69926 23.1034 9.66583 22.985L2.09705 23.3005Z" fill="#14B8A6"/>
</g>
<defs>
<clipPath id="clip0_6409_1645">
<rect width="24.7541" height="30" fill="white"/>
</clipPath>
</defs>
</svg>
