<svg width="32" height="32" viewBox="0 0 32 32" fill="none" xmlns="http://www.w3.org/2000/svg">
<path fill-rule="evenodd" clip-rule="evenodd" d="M12.5661 12.8532H17.096V5.4248C17.096 4.80273 16.8408 4.23535 16.4307 3.8252C16.0205 3.41504 15.4531 3.15983 14.8311 3.15983C14.209 3.15983 13.6416 3.41504 13.2314 3.8252C12.8213 4.23535 12.5661 4.80273 12.5661 5.4248V12.8532ZM19.8919 5.17415C19.5706 5.17415 19.3109 4.91439 19.3109 4.5931C19.3109 4.27181 19.5706 4.01204 19.8919 4.01204H23.1139C23.4352 4.01204 23.695 4.27181 23.695 4.5931C23.695 4.91439 23.4352 5.17415 23.1139 5.17415H19.8919ZM19.8919 8.44857C19.5706 8.44857 19.3109 8.1888 19.3109 7.86751C19.3109 7.54622 19.5706 7.28646 19.8919 7.28646H23.1139C23.4352 7.28646 23.695 7.54622 23.695 7.86751C23.695 8.1888 23.4352 8.44857 23.1139 8.44857H19.8919ZM19.8919 11.723C19.5706 11.723 19.3109 11.4632 19.3109 11.1419C19.3109 10.8206 19.5706 10.5609 19.8919 10.5609H23.1139C23.4352 10.5609 23.695 10.8206 23.695 11.1419C23.695 11.4632 23.4352 11.723 23.1139 11.723H19.8919ZM19.8919 14.9974C19.5706 14.9974 19.3109 14.7376 19.3109 14.4163C19.3109 14.0951 19.5706 13.8353 19.8919 13.8353H23.1139C23.4352 13.8353 23.695 14.0951 23.695 14.4163C23.695 14.7376 23.4352 14.9974 23.1139 14.9974H19.8919ZM19.8919 18.2718C19.5706 18.2718 19.3109 18.012 19.3109 17.6908C19.3109 17.3695 19.5706 17.1097 19.8919 17.1097H23.1139C23.4352 17.1097 23.695 17.3695 23.695 17.6908C23.695 18.012 23.4352 18.2718 23.1139 18.2718H19.8919ZM18.2559 18.9645C19.8213 20.0605 20.8444 21.8789 20.8444 23.9342C20.8444 27.2839 18.1283 30 14.7786 30C11.429 30 8.71289 27.2839 8.71289 23.9342C8.71289 21.8333 9.78158 19.9808 11.4063 18.8939V5.4248C11.4063 4.48145 11.7913 3.62695 12.4111 3.00488C13.0309 2.38509 13.8877 2 14.8311 2C15.7744 2 16.6289 2.38509 17.251 3.00488C17.8708 3.62467 18.2559 4.48145 18.2559 5.4248V18.9645Z" fill="#40D0B9"/>
</svg>
