<svg width="32" height="32" viewBox="0 0 32 32" fill="none" xmlns="http://www.w3.org/2000/svg">
<path d="M9.33333 28L13.3333 22.6667M21.3333 28L18.6667 22.6667L14.6667 18.6667L16 10.6667M16 10.6667L10.6667 12L8 16M16 10.6667L20 14.6667L24 16M16 5.33333C16 5.68696 16.1405 6.02609 16.3905 6.27614C16.6406 6.52619 16.9797 6.66667 17.3333 6.66667C17.687 6.66667 18.0261 6.52619 18.2761 6.27614C18.5262 6.02609 18.6667 5.68696 18.6667 5.33333C18.6667 4.97971 18.5262 4.64057 18.2761 4.39052C18.0261 4.14048 17.687 4 17.3333 4C16.9797 4 16.6406 4.14048 16.3905 4.39052C16.1405 4.64057 16 4.97971 16 5.33333Z" stroke="#40D0B9" stroke-width="3" stroke-linecap="round" stroke-linejoin="round"/>
</svg>
