<svg width="32" height="34" viewBox="0 0 32 34" fill="none" xmlns="http://www.w3.org/2000/svg">
<g clip-path="url(#clip0_3149_445)">
<path fill-rule="evenodd" clip-rule="evenodd" d="M32.0001 17.3628C32.0001 16.0203 31.8912 15.0407 31.6555 14.0249H16.3267V20.0838H25.3243C25.143 21.5895 24.1634 23.8571 21.9864 25.3808L21.956 25.5837L26.8026 29.3384L27.1384 29.3719C30.2223 26.5238 32.0001 22.3333 32.0001 17.3628Z" fill="#2563EB"/>
<path fill-rule="evenodd" clip-rule="evenodd" d="M16.3263 33.3264C20.7344 33.3264 24.435 31.8752 27.1381 29.3718L21.9861 25.3808C20.6074 26.3422 18.7571 27.0135 16.3263 27.0135C12.0089 27.0135 8.34454 24.1655 7.03825 20.229L6.84684 20.2453L1.80714 24.1455L1.74121 24.3287C4.42598 29.662 9.94078 33.3264 16.3263 33.3264Z" fill="#059669"/>
<path fill-rule="evenodd" clip-rule="evenodd" d="M7.03836 20.2291C6.69374 19.2132 6.4942 18.1247 6.4942 17C6.4942 15.8753 6.69364 14.7868 7.02024 13.771L7.01113 13.5546L1.90834 9.59167L1.74142 9.67112C0.634873 11.8843 0 14.3695 0 16.9999C0 19.6303 0.634971 22.1154 1.74142 24.3286L7.03846 20.229" fill="#EAB308"/>
<path fill-rule="evenodd" clip-rule="evenodd" d="M16.3263 6.98636C19.3921 6.98636 21.46 8.31067 22.6392 9.41731L27.2469 4.91845C24.4171 2.28805 20.7344 0.673584 16.3263 0.673584C9.94078 0.673584 4.42607 4.33794 1.74121 9.67122L7.02013 13.7711C8.34453 9.83462 12.0089 6.98646 16.3263 6.98646" fill="#DC2626"/>
</g>
<defs>
<clipPath id="clip0_3149_445">
<rect width="32" height="32.653" fill="white" transform="translate(0 0.673462)"/>
</clipPath>
</defs>
</svg>
