<svg width="620" height="620" viewBox="0 0 620 620" fill="none" xmlns="http://www.w3.org/2000/svg">
<path d="M289.527 79.484H71.957V575.149H289.527V79.484Z" fill="#EBEBEB"/>
<path d="M71.957 575.149H60.2266V67.7412L71.957 79.484V575.149Z" fill="#DBDBDB"/>
<path d="M261.082 108.81H100.415V339.252H261.082V108.81Z" fill="white"/>
<path d="M101.915 432.636C102.659 460.164 102.982 491.04 103.056 518.568C103.056 528.116 103.18 537.664 103.13 547.224L101.89 545.984L127.732 546.096C152.532 546.195 180.444 546.542 205.282 547.212C180.482 547.869 152.582 548.216 127.732 548.316L101.89 548.427H100.65C100.65 538.507 100.65 528.513 100.725 518.556C100.799 491.028 101.122 460.152 101.866 432.624L101.915 432.636Z" fill="#C7C7C7"/>
<path d="M259.581 493.371C258.875 461.664 258.527 426.101 258.453 394.382L258.354 361.386L259.594 362.626L227.478 362.514C196.589 362.427 161.981 362.092 131.105 361.386C172.608 360.418 218.004 360.27 259.594 360.146H260.834V361.386C260.722 404.128 260.586 450.728 259.594 493.371H259.581Z" fill="#C7C7C7"/>
<path d="M289.54 79.484H71.957L60.2266 67.7412H289.54V79.484Z" fill="#C7C7C7"/>
<path d="M127.918 355.917H100.415V407.662H127.918V355.917Z" fill="#DBDBDB"/>
<path d="M121.371 367.263V378.994L100.415 377.307V367.263H121.371Z" fill="#C7C7C7"/>
<path d="M121.371 361.386H84.915V373.116H121.371V361.386Z" fill="#DBDBDB"/>
<path d="M496.632 74.4248H380.084V219.691H496.632V74.4248Z" fill="#EBEBEB"/>
<path d="M492.453 78.1324H384.276V215.983H492.453V78.1324Z" fill="white"/>
<path d="M477.437 92.7148H399.28V201.401H477.437V92.7148Z" fill="#EBEBEB"/>
<path d="M499.323 74.4248H496.632V219.691H499.323V74.4248Z" fill="#DBDBDB"/>
<path d="M60.2266 575.149C220.249 574.393 399.751 574.38 559.773 575.149C399.813 575.918 220.249 575.906 60.2266 575.149Z" fill="#263238"/>
<path d="M383.594 574.12C386.644 575.137 473.878 574.889 477.202 572.781C478.442 571.987 479.173 559.265 479.582 543.889C479.682 540.566 479.744 537.156 479.793 533.659C479.868 529.53 479.917 525.351 479.942 521.259C480.054 503.043 479.793 486.998 479.793 486.998H423.001V521.259V533.659L423.299 543.889C423.299 543.889 389.98 558.98 386.595 561.72C383.21 564.46 380.544 573.165 383.594 574.12Z" fill="#D3766A"/>
<path d="M383.594 574.12C386.644 575.137 473.878 574.876 477.202 572.781C478.442 572.037 479.074 560.964 479.483 547.026C472.502 550.262 412.164 562.65 397.953 562.811C384.313 562.948 406.026 551.949 409.485 550.238C399.888 554.702 388.504 560.158 386.595 561.646C383.16 564.386 380.556 573.165 383.594 574.12Z" fill="#263238"/>
<path d="M510.471 237.733C510.471 237.733 480.698 376.092 478.64 387.128C478.156 389.608 484.393 534.688 484.393 534.688H419.231C419.231 534.688 419.231 406.596 421.86 384.549C424.489 362.502 458.242 237.77 458.242 237.77L510.471 237.733Z" fill="#37474F"/>
<path d="M510.471 237.745C510.471 237.745 496 299.348 486.501 347.101L458.229 237.745H510.471Z" fill="#263238"/>
<path d="M477.636 521.507C474.064 521.048 446.822 520.106 424.03 521.085C423.882 521.085 423.894 521.296 424.03 521.308C431.47 521.978 473.42 522.251 477.598 521.78C477.747 521.767 477.797 521.532 477.636 521.507Z" fill="#263238"/>
<path d="M458.552 574.777C461.615 575.769 548.849 574.678 552.147 572.533C553.387 571.727 553.982 559.004 554.255 543.628C554.255 540.305 552.085 487.072 552.085 487.072L497.128 487.32L498.009 544.174C498.009 544.174 464.801 559.538 461.429 562.278C458.056 565.018 455.501 573.81 458.552 574.777Z" fill="#D3766A"/>
<path d="M458.552 574.79C461.615 575.769 548.861 574.678 552.16 572.533C553.263 571.814 553.834 561.683 554.144 548.663C541.508 552.457 487.593 562.216 474.3 562.092C462.222 561.968 478.02 553.71 484.22 550.659C474.66 555.198 463.338 560.728 461.441 562.278C458.081 564.994 455.489 573.81 458.552 574.79Z" fill="#263238"/>
<path d="M493.52 535.829H559.835C559.835 535.829 547.274 437.869 546.282 421.389C545.773 412.994 540.416 326.876 535.556 286.49C535.556 286.49 535.556 278.864 535.208 267.505C534.923 257.585 527.508 237.745 527.508 237.745H458.18C458.18 237.745 459.283 261.59 467.232 281.517C473.454 283.702 479.488 286.389 485.274 289.552C485.274 289.552 488.758 409.026 489.874 430.416C491.275 457.56 493.52 535.829 493.52 535.829Z" fill="#37474F"/>
<path d="M479.434 271.3C479.223 269.861 479 268.423 478.789 266.997C478.38 264.368 477.846 261.752 477.388 259.135C476.334 253.196 475.255 247.231 473.928 241.354C473.928 241.205 473.655 241.242 473.68 241.354C473.903 243.734 474.176 246.103 474.523 248.471C474.87 250.84 475.094 253.22 475.416 255.589C476.086 260.276 476.743 264.976 477.536 269.65C477.846 271.448 478.962 274.61 476.371 275.23C474.325 275.677 472.824 273.656 472.217 271.969C471.584 269.848 471.123 267.679 470.84 265.484C470.419 263.112 470.043 260.739 469.712 258.366C468.98 253.171 468.174 248 467.331 242.829C467.331 242.68 467.071 242.73 467.071 242.829C467.184 248.144 467.565 253.45 468.212 258.726C468.551 261.256 468.931 263.777 469.352 266.29C469.616 268.7 470.2 271.065 471.088 273.321C471.459 274.208 472.045 274.989 472.795 275.591C473.544 276.193 474.433 276.598 475.379 276.768H475.503C475.479 276.785 475.46 276.807 475.447 276.833C475.434 276.859 475.427 276.888 475.428 276.917C475.428 277.76 475.428 278.603 475.528 279.397C475.627 280.19 475.776 281.058 475.937 281.877C476.09 282.718 476.305 283.547 476.582 284.357C476.71 284.741 476.859 285.117 477.028 285.485C477.226 285.87 477.474 286.167 477.698 286.527C477.797 286.676 477.97 286.589 477.983 286.44C477.983 286.291 477.983 286.155 477.983 286.018C478.001 285.775 478.001 285.53 477.983 285.287C477.983 284.878 477.834 284.481 477.747 284.047C477.574 283.253 477.35 282.447 477.14 281.666C476.929 280.885 476.755 280.066 476.557 279.273C476.358 278.479 476.073 277.661 475.887 276.793C475.882 276.777 475.874 276.762 475.864 276.749C475.853 276.737 475.84 276.726 475.825 276.718C476.589 276.758 477.346 276.562 477.994 276.156C478.642 275.75 479.149 275.154 479.446 274.449C479.698 273.414 479.694 272.333 479.434 271.3Z" fill="#263238"/>
<path d="M491.759 291.66C489.999 290.42 488.151 289.309 486.229 288.337C484.209 287.221 482.117 286.239 479.967 285.398C475.751 283.774 471.436 282.72 467.108 281.48C466.972 281.48 466.897 281.666 467.034 281.703C471.237 283.179 475.292 285.212 479.372 286.998C481.368 287.878 483.402 288.722 485.435 289.478C487.469 290.234 489.527 291.239 491.635 291.958C491.772 292.008 491.896 291.76 491.759 291.66Z" fill="#263238"/>
<path d="M515.505 264.318C512.574 264.295 509.658 263.904 506.825 263.153C505.585 262.818 504.234 262.396 502.956 261.987C501.696 261.628 500.514 261.034 499.472 260.239C497.513 258.54 496.595 255.874 495.752 253.506C494.817 250.839 494.059 248.113 493.483 245.346C493.483 245.21 493.26 245.247 493.247 245.346C493.187 248.479 493.584 251.604 494.425 254.622C495.132 257.176 496.074 260.028 498.145 261.826C500.442 263.544 503.193 264.549 506.056 264.715C509.186 265.077 512.349 265.035 515.468 264.591C515.493 264.58 515.515 264.563 515.532 264.541C515.549 264.519 515.559 264.493 515.563 264.465C515.567 264.438 515.564 264.41 515.553 264.384C515.543 264.359 515.527 264.336 515.505 264.318Z" fill="#263238"/>
<path d="M551.465 524.26C547.894 523.788 520.651 522.846 497.86 523.826C497.711 523.826 497.724 524.036 497.86 524.049C505.3 524.718 547.262 525.004 551.44 524.52C551.577 524.52 551.626 524.272 551.465 524.26Z" fill="#263238"/>
<path d="M472.006 103.193C472.006 103.193 483.959 96.286 494.809 102.759C505.659 109.232 511.091 125.6 509.516 139.438C507.941 153.276 519.361 162.192 520.775 172.422C522.189 182.652 515.542 187.525 513.335 192.956C510.855 199.156 521.643 220.869 495.343 226.436C462.47 233.418 449.463 213.354 452.513 196.515C454.013 188.269 458.527 182.342 458.316 175.696C458.105 169.049 453.356 163.829 455.601 155.36C457.845 146.89 461.156 147.92 462.247 134.701C463.338 121.483 460.362 105.66 472.006 103.193Z" fill="#263238"/>
<path d="M492.528 102.486C499.604 106.877 505.171 113.323 508.487 120.962C510.136 124.76 511.154 128.802 511.5 132.928C511.946 138.31 511.215 143.381 513.323 148.577C516.696 156.897 523.243 163.779 523.131 173.129C523.072 177.482 521.783 181.729 519.411 185.38C516.646 189.658 512.641 193.068 510.347 197.631C510.248 197.817 509.95 197.631 510.037 197.47C511.959 193.415 515.121 190.29 517.737 186.645C520.898 182.38 522.52 177.169 522.338 171.864C521.916 162.998 515.443 156.29 512.331 148.304C511.101 144.766 510.587 141.019 510.818 137.28C510.918 132.759 510.256 128.252 508.859 123.95C505.797 115.288 500.055 107.826 492.466 102.647C492.367 102.548 492.454 102.436 492.528 102.486Z" fill="#263238"/>
<path d="M508.313 203.062V203.124C508.313 203.124 508.276 203.075 508.313 203.062Z" fill="#263238"/>
<path d="M452.6 194.134C453.356 190.154 455.365 186.508 456.121 182.54C457.027 177.754 455.737 173.042 454.733 168.38C453.319 161.733 453.344 155.434 456.171 149.085C457.994 144.993 460.251 141.149 461.577 136.846C463.032 132.188 463.792 127.342 463.834 122.462C463.834 122.439 463.843 122.417 463.86 122.401C463.876 122.385 463.898 122.376 463.921 122.376C463.944 122.376 463.966 122.385 463.982 122.401C463.999 122.417 464.008 122.439 464.008 122.462C464.284 129.521 462.926 136.549 460.04 142.997C458.304 146.779 456.134 150.35 455.179 154.417C454.026 159.315 454.596 164.002 455.539 168.863C456.306 172.096 456.779 175.391 456.952 178.709C456.833 182.065 456.106 185.371 454.807 188.468C451.801 196.631 452.023 205.634 455.427 213.64C455.427 213.776 455.229 213.888 455.167 213.751C452.293 207.638 451.396 200.781 452.6 194.134Z" fill="#263238"/>
<path d="M521.643 171.219C521.209 163.916 516.013 159.042 512.802 152.756C510.384 148.019 508.697 142.935 509.367 137.64C509.367 137.553 509.541 137.566 509.528 137.64C509.28 145.291 512.616 152.16 516.968 158.472C519.857 162.676 522.263 166.718 522.387 171.839C522.511 176.96 520.577 181.114 517.799 185.318C515.815 188.319 513.868 191.109 513.075 194.618C512.461 198.144 512.361 201.74 512.777 205.294C512.777 205.48 512.492 205.48 512.467 205.294C511.884 199.826 511.698 194.519 514.364 189.46C517.638 183.26 522.04 178.647 521.643 171.219Z" fill="#263238"/>
<path d="M451.273 188.964C452.409 186.46 453.771 184.066 455.34 181.809C458.068 177.642 458.465 174.294 457.448 169.409C457.455 169.39 457.468 169.373 457.485 169.362C457.501 169.35 457.521 169.344 457.541 169.344C457.562 169.344 457.581 169.35 457.598 169.362C457.615 169.373 457.627 169.39 457.634 169.409C459.048 173.402 459.432 176.737 457.114 180.482C453.89 185.715 450.715 190.489 450.145 196.676C449.14 207.65 455.514 217.756 465.645 223.101C465.794 223.175 465.645 223.374 465.521 223.312C457.027 219.319 450.988 211.928 449.587 203.112C448.834 198.331 449.418 193.434 451.273 188.964Z" fill="#263238"/>
<path d="M481.12 170.599C473.085 201.5 460.734 231.657 452.402 236.022C440.436 242.222 412.833 250.158 396.205 249.662C391.332 249.513 387.215 217.422 392.373 216.591C399.441 215.475 433.504 208.022 434.124 207.911C435.426 207.539 463.884 172.286 468.596 164.833C476.941 151.664 485.435 154.008 481.12 170.599Z" fill="#D3766A"/>
<path d="M407.96 248.508C404.029 249.637 382.825 255.948 377.456 255.762C372.087 255.576 356.698 254.002 356.376 249.885C356.054 245.768 360.642 245.867 360.642 245.867C360.642 245.867 354.243 244.168 354.318 240.002C354.392 235.836 361.472 236.22 361.472 236.22C361.472 236.22 355.037 233.988 355.409 229.834C355.781 225.68 362.849 227.267 362.849 227.267C362.849 227.267 356.86 225.506 358.62 222.208C360.728 218.252 371.392 222.741 377.332 222.481C378.671 222.481 404.612 219.319 404.612 219.319L407.96 248.508Z" fill="#D3766A"/>
<path d="M362.303 227.143C370.152 230.429 374.158 230.504 382.416 229.115C382.449 229.105 382.484 229.109 382.515 229.125C382.545 229.141 382.567 229.169 382.577 229.202C382.587 229.234 382.584 229.27 382.567 229.3C382.551 229.33 382.523 229.353 382.49 229.363C374.53 231.458 369.483 232.091 362.117 227.515C361.758 227.292 361.931 226.982 362.303 227.143Z" fill="#263238"/>
<path d="M360.927 235.947C369.384 238.638 373.724 238.762 382.478 237.944C382.602 237.944 382.639 238.142 382.478 238.167C373.947 239.692 368.912 240.2 360.815 236.394C360.493 236.22 360.542 235.823 360.927 235.947Z" fill="#263238"/>
<path d="M361.15 245.818C369.532 247.839 374.282 248.174 382.689 246.289C382.724 246.289 382.758 246.3 382.786 246.321C382.814 246.342 382.835 246.371 382.844 246.405C382.854 246.439 382.853 246.474 382.84 246.507C382.828 246.54 382.805 246.568 382.776 246.586C374.393 249.352 368.454 248.967 361.125 246.078C360.617 245.88 360.629 245.681 361.15 245.818Z" fill="#263238"/>
<path d="M409.349 214.52C409.349 214.52 399.764 209.858 395.089 208.742C390.414 207.626 371.529 209.858 371.764 213.974C372.087 219.282 383.259 220.174 388.79 219.852C388.79 219.852 389.521 232.14 397.408 234.496C405.294 236.852 409.349 214.52 409.349 214.52Z" fill="#D3766A"/>
<path d="M372.322 215.363C376.117 219.988 383.346 219.083 388.727 219.257C388.808 219.255 388.887 219.272 388.959 219.307C389.031 219.342 389.094 219.394 389.142 219.459C389.189 219.523 389.22 219.598 389.232 219.678C389.244 219.757 389.237 219.838 389.211 219.914C389.868 225.035 392.274 232.091 397.11 234.62C397.129 234.623 397.147 234.629 397.163 234.639C397.179 234.649 397.193 234.663 397.202 234.679C397.212 234.696 397.218 234.714 397.22 234.733C397.222 234.752 397.219 234.771 397.212 234.789C397.205 234.806 397.194 234.822 397.18 234.835C397.166 234.848 397.149 234.857 397.131 234.863C397.113 234.868 397.094 234.869 397.075 234.866C397.056 234.863 397.038 234.855 397.023 234.844C391.468 232.835 388.529 226.164 388.169 220.447C382.651 220.447 375.36 220.943 372.285 215.4C372.26 215.363 372.297 215.338 372.322 215.363Z" fill="#263238"/>
<path d="M404.6 210.8L412.213 250.12C412.213 250.12 450.988 242.432 456.258 235.054C461.528 227.676 476.817 194.072 481.566 171.579C486.316 149.085 475.466 153.797 466.6 165.54C457.424 177.68 434.36 207.055 433.752 207.179C433.144 207.303 404.6 210.8 404.6 210.8Z" fill="#EBEBEB"/>
<path d="M411.953 212.04C411.953 212.01 411.964 211.982 411.985 211.961C412.006 211.94 412.035 211.928 412.064 211.928C412.094 211.928 412.122 211.94 412.143 211.961C412.164 211.982 412.176 212.01 412.176 212.04C415.062 222.947 417.352 234.004 419.033 245.16C419.033 245.272 418.847 245.309 418.822 245.16C415.933 234.253 413.64 223.197 411.953 212.04Z" fill="#263238"/>
<path opacity="0.1" d="M410.601 241.8L412.213 250.108C412.213 250.108 451 242.42 456.258 235.054C461.515 227.689 476.829 194.06 481.566 171.566C483.984 160.072 482.31 155.707 478.888 155.756L410.601 241.8Z" fill="black"/>
<path d="M457.895 212.871L457.647 235.191L526.045 234.645C526.045 234.645 519.845 184.276 502.026 162.266C492.751 150.834 482.062 152.024 474.746 159.154C472.886 160.952 455.861 186.062 453.332 196.962C452.721 199.784 452.819 202.714 453.615 205.489C454.411 208.265 455.881 210.801 457.895 212.871Z" fill="#40D0B9"/>
<path d="M464.739 212.35C467.19 212.242 469.645 212.271 472.093 212.437C473.333 212.524 474.573 212.685 475.726 212.871L477.462 213.181C478.094 213.292 478.702 213.503 479.347 213.615C479.409 213.615 479.409 213.726 479.347 213.714C478.751 213.627 478.107 213.64 477.524 213.59L475.701 213.441L472.043 213.131C469.613 212.9 467.178 212.706 464.739 212.548C464.713 212.548 464.688 212.538 464.669 212.519C464.651 212.501 464.64 212.476 464.64 212.449C464.64 212.423 464.651 212.398 464.669 212.379C464.688 212.361 464.713 212.35 464.739 212.35Z" fill="#263238"/>
<path d="M455.241 241.49L530.856 240.944L527.57 232.165L457.672 232.674L455.241 241.49Z" fill="#40D0B9"/>
<path opacity="0.3" d="M455.241 241.49L530.856 240.944L527.57 232.165L457.672 232.674L455.241 241.49Z" fill="black"/>
<path d="M462.446 242.817L462.359 231.21L481.579 231.074L481.666 242.68L462.446 242.817ZM464.814 233.628V240.362L479.173 240.262V233.517L464.814 233.628Z" fill="#A6A6A6"/>
<path d="M477.263 156.81C477.263 156.81 466.823 191.208 465.955 196.738C465.087 202.269 451.645 320.813 451.645 320.813L428.383 308.934C428.296 308.549 449.847 251.286 451.31 244.987C455.315 227.627 457.51 213.59 457.51 213.367C457.337 212.809 449.475 205.332 452.798 195.858C457.275 183.098 466.438 169.607 472.08 161.907C475.465 157.232 477.263 156.81 477.263 156.81Z" fill="#EBEBEB"/>
<path d="M491.858 154.256C491.858 154.256 491.213 197.755 490.618 201.736C490.023 205.716 492.429 327.075 492.429 327.075L546.145 317.44C546.145 317.44 531.476 217 509.987 172.707C501.753 155.744 491.858 154.256 491.858 154.256Z" fill="#EBEBEB"/>
<path d="M500.551 159.142C523.652 184.425 543.38 224.762 540.64 245.024C538.656 259.606 528.848 254.374 526.901 253.927C514.997 251.137 497.922 198.524 493.036 174.505C488.151 150.486 494.834 152.892 500.551 159.142Z" fill="#EBEBEB"/>
<path d="M515.555 243.226C514.575 240.486 513.546 237.77 512.616 235.005L509.727 226.796C507.817 221.303 505.87 215.834 504.06 210.316C502.25 204.798 500.34 199.305 498.567 193.775C497.674 191.022 496.806 188.244 495.988 185.467C495.169 182.689 494.363 179.887 493.582 177.084C494.585 182.824 495.905 188.504 497.538 194.097C499.1 199.702 500.91 205.257 502.733 210.763C504.556 216.268 506.59 221.749 508.71 227.168C510.83 232.587 513.025 237.981 515.555 243.226Z" fill="#263238"/>
<path d="M495.293 184.227C494.943 183.242 494.529 182.281 494.053 181.35C493.83 180.891 493.607 180.432 493.359 179.974C493.111 179.515 492.887 179.068 492.59 178.61C492.658 179.672 492.94 180.71 493.421 181.66C493.878 182.625 494.513 183.496 495.293 184.227Z" fill="#263238"/>
<path d="M474.498 159.861C476.296 153.661 482.273 153.661 484.914 154.095C489.49 154.802 492.702 156.215 493.371 162.366C494.066 168.838 493.086 174.976 491.945 181.362C491.911 181.602 491.971 181.845 492.111 182.041C492.251 182.238 492.461 182.373 492.698 182.419C492.935 182.466 493.181 182.419 493.385 182.289C493.588 182.159 493.734 181.956 493.793 181.722C495.107 174.369 498.294 160.642 492.553 154.554C488.659 150.4 475.193 148.75 472.626 159.514C472.341 160.754 474.126 161.039 474.474 159.873L474.498 159.861Z" fill="#455A64"/>
<path d="M496.434 185.864C496.271 186.704 495.863 187.477 495.26 188.085C494.658 188.694 493.889 189.109 493.05 189.28C492.211 189.451 491.34 189.37 490.548 189.046C489.756 188.722 489.077 188.17 488.598 187.461C488.119 186.751 487.862 185.916 487.858 185.059C487.854 184.203 488.104 183.366 488.577 182.652C489.049 181.938 489.723 181.38 490.512 181.049C491.301 180.718 492.171 180.629 493.012 180.792C494.136 181.014 495.127 181.672 495.769 182.622C496.41 183.572 496.649 184.738 496.434 185.864Z" fill="#263238"/>
<path d="M494.76 185.529C494.662 186.035 494.416 186.5 494.054 186.866C493.691 187.232 493.228 187.483 492.724 187.586C492.219 187.689 491.695 187.64 491.218 187.445C490.741 187.25 490.333 186.918 490.045 186.491C489.756 186.064 489.601 185.561 489.599 185.046C489.597 184.531 489.748 184.026 490.032 183.597C490.316 183.167 490.722 182.832 491.197 182.633C491.672 182.433 492.196 182.38 492.701 182.478C493.037 182.542 493.358 182.672 493.643 182.86C493.929 183.048 494.175 183.291 494.366 183.575C494.557 183.858 494.691 184.177 494.758 184.512C494.826 184.848 494.826 185.193 494.76 185.529Z" fill="#EBEBEB"/>
<path d="M473.68 181.04C471.907 199.64 469.7 203.521 467.567 204.96C466.005 205.933 464.24 206.531 462.408 206.708L462.309 205.394C463.913 205.233 465.461 204.711 466.835 203.868C468.373 202.839 470.555 199.33 472.378 180.916L473.68 181.04Z" fill="#C7C7C7"/>
<path d="M460.2 205.845C460.145 205.484 460.236 205.115 460.453 204.821C460.67 204.527 460.995 204.331 461.356 204.276L463.124 204.008C463.485 203.953 463.854 204.044 464.148 204.261C464.442 204.478 464.638 204.803 464.693 205.164C464.748 205.529 464.656 205.9 464.437 206.197C464.219 206.494 463.891 206.692 463.526 206.747L461.771 207.013C461.409 207.068 461.041 206.977 460.747 206.76C460.453 206.543 460.256 206.219 460.202 205.857L460.2 205.845Z" fill="#263238"/>
<path d="M462.445 177.382C454.373 188.926 450.988 195.622 451.781 198.462C452.292 199.998 453.14 201.4 454.261 202.566L453.331 203.496C452.055 202.173 451.1 200.573 450.541 198.822C449.587 195.436 452.736 189.013 461.379 176.638L462.445 177.382Z" fill="#C7C7C7"/>
<path d="M452.476 201.463C452.202 201.704 452.034 202.044 452.008 202.408C451.983 202.773 452.102 203.132 452.34 203.41L453.505 204.761C453.747 205.035 454.086 205.203 454.451 205.229C454.815 205.255 455.175 205.135 455.452 204.898C455.589 204.779 455.702 204.634 455.783 204.472C455.864 204.31 455.912 204.133 455.925 203.953C455.938 203.772 455.914 203.59 455.857 203.418C455.799 203.246 455.708 203.087 455.588 202.951L454.423 201.599C454.182 201.325 453.842 201.157 453.477 201.131C453.113 201.106 452.753 201.225 452.476 201.463Z" fill="#263238"/>
<path d="M461.144 175.944C462.747 173.323 464.507 170.801 466.414 168.392C467.4 167.381 468.636 166.65 469.997 166.272C470.245 166.346 470.94 164.151 471.46 162.341C471.919 160.754 472.415 158.881 472.973 158.522C473.274 158.371 473.621 158.342 473.942 158.441C474.264 158.541 474.534 158.76 474.697 159.055C474.945 159.675 474.3 161.535 473.792 163.072C473.196 164.858 472.552 167.053 472.775 167.14C473.597 168.234 474.146 169.51 474.374 170.86C474.57 174 474.524 177.15 474.238 180.284C473.965 182.243 473.296 182.255 472.7 182.243C471.87 182.243 471.584 181.548 471.746 179.316C472.006 175.795 472.824 170.004 470.592 169.21C468.298 168.628 465.322 173.984 463.45 176.886C462.272 178.709 461.788 178.746 461.094 178.3C460.61 178.002 460.152 177.568 461.144 175.944Z" fill="#263238"/>
<path d="M491.313 157.79C490.879 159.142 485.547 167.71 479.223 166.83C477.164 166.557 476.11 155.198 476.11 155.198L475.999 154.343L474.362 142.439L488.833 134.776L490.916 133.771C490.916 133.771 491.151 137.07 491.399 141.211V141.794C491.399 142.03 491.399 142.24 491.399 142.464C491.399 143.071 491.486 143.704 491.511 144.324C491.536 144.944 491.511 145.254 491.573 145.75C491.635 146.246 491.573 146.742 491.573 147.238C491.731 150.757 491.644 154.283 491.313 157.79Z" fill="#D3766A"/>
<path d="M491.399 141.162C489.943 144.345 487.811 147.173 485.151 149.449C482.492 151.725 479.368 153.395 475.999 154.343L474.362 142.439L488.833 134.776L490.916 133.771C490.916 133.771 491.151 137.07 491.399 141.162Z" fill="#263238"/>
<path d="M459.023 125.996C457.907 147.076 470.394 150.127 474.945 150.362C479.062 150.573 493.136 150.784 496.434 129.94C499.733 109.095 490.234 101.916 480.872 100.924C471.51 99.9316 460.152 104.929 459.023 125.996Z" fill="#D3766A"/>
<path d="M463.053 124.93C463.549 124.843 463.983 124.694 464.467 124.57C464.982 124.505 465.463 124.279 465.843 123.926C465.942 123.793 465.995 123.632 465.995 123.467C465.995 123.301 465.942 123.141 465.843 123.008C465.597 122.787 465.294 122.637 464.969 122.573C464.644 122.51 464.307 122.536 463.996 122.648C463.326 122.77 462.727 123.143 462.322 123.69C462.236 123.815 462.187 123.961 462.182 124.112C462.177 124.264 462.215 124.413 462.292 124.543C462.369 124.674 462.481 124.779 462.616 124.848C462.751 124.916 462.903 124.945 463.053 124.93Z" fill="#263238"/>
<path d="M477.4 124.843C476.917 124.798 476.437 124.728 475.961 124.632C475.441 124.629 474.935 124.455 474.523 124.136C474.411 124.012 474.344 123.855 474.333 123.688C474.322 123.522 474.367 123.357 474.461 123.219C474.689 122.977 474.976 122.8 475.293 122.704C475.611 122.609 475.948 122.598 476.271 122.673C476.948 122.729 477.58 123.034 478.045 123.529C478.148 123.647 478.213 123.792 478.234 123.947C478.254 124.102 478.228 124.26 478.159 124.4C478.091 124.541 477.982 124.658 477.847 124.737C477.711 124.815 477.556 124.852 477.4 124.843Z" fill="#263238"/>
<path d="M466.091 128.811C466.091 128.811 465.992 128.886 465.992 128.935C466.128 130.374 466.054 132.035 464.752 132.655C464.752 132.655 464.752 132.742 464.752 132.73C466.376 132.358 466.463 130.2 466.091 128.811Z" fill="#263238"/>
<path d="M464.715 127.385C462.396 127.385 462.507 132.01 464.715 132.035C466.922 132.06 466.661 127.41 464.715 127.385Z" fill="#263238"/>
<path d="M463.76 127.72C463.388 127.98 463.041 128.439 462.607 128.476C462.173 128.514 461.702 128.03 461.367 127.559H461.305C461.305 128.452 461.615 129.357 462.47 129.506C463.326 129.654 463.81 128.873 463.996 127.98C464.033 127.869 463.896 127.621 463.76 127.72Z" fill="#263238"/>
<path d="M474.238 128.96C474.238 128.898 474.362 128.96 474.362 129.084C474.362 130.522 474.56 132.172 475.875 132.63C475.875 132.63 475.875 132.717 475.875 132.705C474.263 132.568 473.99 130.374 474.238 128.96Z" fill="#263238"/>
<path d="M475.503 127.484C477.809 127.261 478.082 131.899 475.937 132.097C473.792 132.296 473.569 127.72 475.503 127.484Z" fill="#263238"/>
<path d="M476.482 127.72C476.867 127.943 477.251 128.365 477.722 128.365C478.193 128.365 478.578 127.844 478.875 127.348C478.875 127.348 478.937 127.348 478.95 127.348C479.024 128.228 478.776 129.171 477.945 129.394C477.115 129.617 476.557 128.861 476.296 127.993C476.222 127.894 476.333 127.633 476.482 127.72Z" fill="#263238"/>
<path d="M468.348 135.854C468.348 135.854 468.15 138.012 468.199 139.029C468.199 139.128 468.447 139.153 468.794 139.165C469.673 139.282 470.566 139.155 471.378 138.799C472.189 138.443 472.887 137.87 473.395 137.144C473.457 137.045 473.32 136.946 473.234 137.02C471.981 137.959 470.459 138.468 468.894 138.471C468.807 138.198 469.352 134.751 469.191 134.751C468.411 134.864 467.648 135.077 466.922 135.383C467.207 130.87 468.162 126.43 468.422 121.929C468.414 121.901 468.396 121.877 468.373 121.86C468.35 121.843 468.321 121.833 468.292 121.833C468.263 121.833 468.235 121.843 468.211 121.86C468.188 121.877 468.171 121.901 468.162 121.929C466.938 126.646 466.186 131.473 465.918 136.338C465.905 136.896 467.951 136.04 468.348 135.854Z" fill="#263238"/>
<path d="M495.727 132.457C494.344 131.876 493.135 130.948 492.218 129.761C491.301 128.575 490.707 127.171 490.494 125.686C486.742 124.282 483.43 121.907 480.897 118.804C481.058 119.226 482.248 122.289 482.905 123.764C469.464 122.028 464.789 112.084 464.789 112.084C462.373 114.562 460.55 117.555 459.457 120.838C459.457 120.838 458.911 112.679 462.793 106.987C464.047 105.01 465.805 103.403 467.886 102.331C469.967 101.258 472.297 100.76 474.635 100.886C477.874 99.9089 481.317 99.8226 484.601 100.637C487.885 101.45 490.889 103.135 493.297 105.512C502.46 114.502 495.727 132.457 495.727 132.457Z" fill="#263238"/>
<path d="M472.675 122.19C474.876 123.24 477.22 123.959 479.632 124.322C475.836 123.507 472.341 121.652 469.538 118.966C468.351 117.82 467.313 116.528 466.451 115.122C465.443 113.621 464.743 111.935 464.392 110.162C464.392 110.135 464.382 110.11 464.363 110.091C464.345 110.073 464.319 110.062 464.293 110.062C464.267 110.062 464.242 110.073 464.223 110.091C464.204 110.11 464.194 110.135 464.194 110.162C464.353 111.945 464.809 113.688 465.545 115.32C466.341 116.912 467.417 118.348 468.72 119.561C469.899 120.618 471.223 121.504 472.651 122.19" fill="#263238"/>
<path d="M492.007 130.423C492.007 130.423 496.397 123.678 499.447 125.228C502.498 126.778 499.348 136.388 495.888 137.851C495.456 138.062 494.985 138.185 494.505 138.21C494.024 138.236 493.543 138.164 493.09 138C492.638 137.836 492.223 137.582 491.871 137.254C491.518 136.926 491.236 136.53 491.04 136.09L492.007 130.423Z" fill="#D3766A"/>
<path d="M498.48 127.968V128.067C496 129.146 494.834 131.465 494.003 133.858C494.139 133.608 494.327 133.39 494.554 133.219C494.782 133.048 495.043 132.929 495.321 132.869C495.599 132.809 495.887 132.81 496.165 132.871C496.442 132.933 496.703 133.054 496.93 133.226C496.992 133.226 496.93 133.374 496.868 133.362C496.433 133.237 495.969 133.25 495.542 133.402C495.115 133.553 494.746 133.834 494.487 134.205C494.049 134.823 493.683 135.488 493.396 136.189C493.284 136.412 492.887 136.313 492.962 136.053C492.825 132.866 495.107 128.402 498.48 127.968Z" fill="#263238"/>
<path d="M537.069 255.279C528.996 259.507 515.989 256.73 481.368 246.599C476.569 245.198 477.363 208.692 482.608 209.92C489.155 211.482 514.24 218.922 516.001 219.703C530.844 226.25 542.537 252.414 537.069 255.279Z" fill="#D3766A"/>
<path d="M495.864 216.082C495.864 216.082 484.083 207.936 476.582 205.567C468.71 203.31 460.409 202.995 452.389 204.65C443.709 206.41 424.005 216.64 425.965 222.84C427.738 228.445 447.367 216.963 447.367 216.963C447.367 216.963 425.419 225.37 428.767 231.731C432.115 238.092 454.175 223.46 454.175 223.46C454.175 223.46 431.855 232.599 436.331 238.613C439.754 243.152 460.449 231.037 460.449 231.037C460.449 231.037 441.291 239.022 444.602 243.846C448.247 249.166 468.063 239.184 468.063 239.184C478.541 250.021 488.176 250.654 494.958 250.48C496.62 250.48 495.864 216.082 495.864 216.082Z" fill="#D3766A"/>
<path d="M454.77 213.578C452.166 214.47 449.512 215.351 446.983 216.479C444.453 217.608 442.023 218.81 439.543 220.199C436.358 221.916 433.383 223.997 430.677 226.399C435.798 222.518 444.776 218.352 447.305 217.236C449.835 216.12 452.265 214.867 454.807 213.739C454.882 213.64 454.832 213.553 454.77 213.578Z" fill="#263238"/>
<path d="M458.999 222.617C455.7 223.857 452.389 225.097 449.165 226.486C445.941 227.875 442.965 229.549 439.903 231.186C439.667 231.322 439.816 231.409 440.064 231.285C443.238 229.772 446.264 228.619 449.475 227.131C452.687 225.643 455.799 224.056 459.036 222.692C459.085 222.679 459.048 222.605 458.999 222.617Z" fill="#263238"/>
<path d="M464.008 229.735C458.916 231.58 454.029 233.949 449.425 236.803C449.202 236.939 449.425 237.026 449.649 236.902C454.447 234.422 458.192 232.512 464.07 229.908C464.169 229.871 464.119 229.698 464.008 229.735Z" fill="#263238"/>
<path d="M494.289 211.73L497.686 255.018C497.686 255.018 532.853 261.64 537.639 254.808C542.425 247.975 530.013 226.734 519.634 220.683C515.307 218.153 494.289 211.73 494.289 211.73Z" fill="#EBEBEB"/>
<path d="M494.4 213.168V211.718L494.301 211.792C497.848 213.032 501.394 214.272 504.928 215.512C508.462 216.752 511.984 218.066 515.418 219.517C517.142 220.203 518.819 220.998 520.44 221.898C522.028 222.854 523.53 223.945 524.929 225.159C527.723 227.667 530.107 230.596 531.997 233.839C530.427 230.379 528.209 227.252 525.462 224.626C524.085 223.304 522.567 222.135 520.936 221.142C519.294 220.179 517.587 219.329 515.828 218.6C512.331 217.161 508.784 215.921 505.201 214.756C501.617 213.59 497.996 212.573 494.338 211.668H494.239V211.767L494.4 213.168Z" fill="#263238"/>
<path d="M504.172 219.207C504.172 221.377 504.42 223.56 504.593 225.73C504.767 227.9 504.941 230.07 505.151 232.24C505.585 236.567 506.032 240.92 506.54 245.21C506.677 246.45 506.813 247.578 506.974 248.756C507.135 249.934 507.47 251.236 507.631 252.476C507.631 252.576 507.793 252.551 507.793 252.476C507.706 251.41 507.793 250.331 507.706 249.252C507.619 248.174 507.545 247.045 507.445 245.942C507.259 243.772 507.061 241.602 506.85 239.444C506.429 235.116 505.982 230.764 505.424 226.461C505.102 223.981 504.854 221.563 504.395 219.145C504.387 219.116 504.367 219.09 504.34 219.075C504.314 219.06 504.282 219.056 504.252 219.065C504.223 219.073 504.198 219.092 504.182 219.119C504.167 219.146 504.163 219.178 504.172 219.207Z" fill="#263238"/>
<path d="M497.389 251.174C497.637 252.414 497.835 253.716 497.996 254.994L497.736 254.721C505.238 255.787 512.777 256.63 520.341 257.027C524.109 257.246 527.888 257.205 531.65 256.903C533.448 256.655 535.469 256.655 536.883 255.378C538.198 254.039 539.013 252.287 539.189 250.418C539.161 252.363 538.435 254.234 537.143 255.688C531.005 260.474 505.721 256.804 497.637 255.366H497.389C497.389 254.002 497.389 252.625 497.389 251.261V251.174Z" fill="#263238"/>
<path d="M103.701 451.744L74.4002 499.026C69.6138 508.598 65.5962 517.08 63.9346 521.656C63.9292 521.68 63.9292 521.705 63.9346 521.73C63.4237 522.759 63.1604 523.892 63.1658 525.041C63.1592 525.054 63.1558 525.069 63.1558 525.084C63.1558 525.099 63.1592 525.114 63.1658 525.128C65.0506 528.488 140.43 568.9 143.53 569.42C146.63 569.941 148.379 561.137 146.705 557.244C145.031 553.35 123.07 525.004 123.07 525.004L151.838 477.536L103.701 451.744Z" fill="#AD6359"/>
<path d="M143.567 569.42C140.467 568.9 65.0878 528.5 63.1906 525.128C63.1891 525.099 63.1891 525.07 63.1906 525.041C63.2053 523.897 63.472 522.771 63.9718 521.742C63.9645 521.714 63.9645 521.684 63.9718 521.656C65.6334 517.068 69.651 508.611 74.425 499.038L79.385 490.953L127.745 517.142L123.021 524.942C123.021 524.942 144.956 553.325 146.655 557.182C148.354 561.038 146.68 569.966 143.567 569.42Z" fill="#EBEBEB"/>
<path d="M144.696 571.64C141.472 571.057 63.5624 528.24 61.6156 524.718C60.8592 523.404 66.4392 511.686 73.594 497.724L73.8172 497.29L124.397 524.346L123.901 525.19C123.901 525.19 146.394 554.95 148.106 559.004C149.817 563.059 147.92 572.223 144.696 571.64Z" fill="#40D0B9"/>
<path d="M145.477 568.131C132.519 560.592 79.5461 531.402 66.1169 524.929C66.0177 524.929 65.9681 524.929 66.1169 525.016C78.7897 532.766 131.998 561.522 145.353 568.342C145.638 568.49 145.75 568.292 145.477 568.131Z" fill="#263238"/>
<path d="M128.055 527.67C123.417 523.863 116.659 521.184 110.695 522.71C110.472 522.772 110.558 523.106 110.695 523.144C116.539 524.246 122.247 525.975 127.72 528.302C127.799 528.319 127.882 528.309 127.955 528.275C128.028 528.241 128.088 528.184 128.126 528.112C128.164 528.041 128.178 527.959 128.165 527.879C128.152 527.799 128.113 527.726 128.055 527.67Z" fill="#263238"/>
<path d="M130.547 531.96C125.91 528.153 119.152 525.475 113.187 527C112.952 527.062 113.039 527.384 113.187 527.422C119.026 528.541 124.729 530.279 130.2 532.605C130.283 532.632 130.373 532.629 130.454 532.597C130.535 532.564 130.602 532.504 130.644 532.428C130.685 532.351 130.698 532.262 130.68 532.176C130.663 532.091 130.616 532.014 130.547 531.96Z" fill="#263238"/>
<path d="M133.04 536.263C128.402 532.456 121.644 529.778 115.68 531.303C115.444 531.303 115.531 531.687 115.68 531.724C121.517 532.837 127.218 534.579 132.68 536.92C132.767 536.968 132.87 536.979 132.965 536.951C133.06 536.923 133.141 536.858 133.188 536.771C133.236 536.684 133.247 536.582 133.219 536.486C133.191 536.391 133.127 536.311 133.04 536.263Z" fill="#263238"/>
<path d="M81.9019 513.087C77.7975 507.148 68.5843 513.509 72.6887 519.448C76.7931 525.388 85.9939 519.014 81.9019 513.087Z" fill="#263238"/>
<path opacity="0.1" d="M127.273 529.654L131.998 565.279C136.122 567.61 140.359 569.733 144.695 571.64C147.919 572.223 149.817 563.072 148.13 559.004C146.828 555.917 133.61 538.16 127.273 529.654Z" fill="black"/>
<path d="M74.9209 494.066L131.763 524.421C131.763 524.421 208.32 413.565 209.758 386.694C211.743 349.593 180.061 231.806 180.061 231.806L129.53 231.458C129.53 231.458 150.04 352.594 148.403 373.24C147.56 384.078 74.9209 494.066 74.9209 494.066Z" fill="#40D0B9"/>
<path d="M136.722 512.666C133.796 510.558 106.851 494.946 86.3412 484.976C86.3148 484.971 86.2873 484.974 86.2629 484.985C86.2385 484.997 86.2184 485.016 86.2058 485.04C86.1932 485.063 86.1887 485.091 86.193 485.117C86.1973 485.144 86.2101 485.168 86.2296 485.187C92.4296 489.292 132.668 511.326 136.574 512.889C136.71 512.938 136.859 512.765 136.722 512.666Z" fill="#263238"/>
<path d="M155.422 347.386C153.074 329.654 150.449 311.963 147.548 294.314C144.584 276.607 141.472 258.9 137.764 241.316C137.309 239.167 136.842 237.022 136.363 234.881C136.346 234.815 136.305 234.759 136.247 234.723C136.19 234.688 136.121 234.676 136.055 234.691C135.989 234.705 135.931 234.745 135.894 234.801C135.856 234.857 135.842 234.926 135.854 234.992C138.967 252.427 142.166 269.849 145.03 287.333C147.895 304.817 150.573 322.326 152.966 339.884C153.562 344.224 154.14 348.572 154.702 352.929C155.382 357.41 155.796 361.927 155.942 366.457C156.02 370.784 155.284 375.087 153.772 379.142C152.171 383.108 150.225 386.925 147.957 390.55C138.818 406.013 93.062 482.211 91.9956 484.17C91.9956 484.307 92.1072 484.431 92.194 484.307C102.015 469.067 137.305 411.767 146.58 396.044C150.759 388.963 155.546 381.784 156.91 373.513C158.385 364.907 156.55 355.88 155.422 347.386Z" fill="#263238"/>
<path d="M140.864 485.46C140.864 485.46 140.293 542.339 140.293 542.376C140.591 553.251 141.05 562.786 141.757 567.697C141.751 567.721 141.751 567.747 141.757 567.771C141.792 568.937 142.097 570.079 142.649 571.107V571.181C145.948 573.277 232.959 573.413 235.984 572.421C239.01 571.429 236.369 562.675 232.996 560.021C229.623 557.368 196.317 542.376 196.317 542.376V485.534L140.864 485.46Z" fill="#AD6359"/>
<path d="M140.405 530.72C140.405 530.72 140.293 542.364 140.293 542.401C140.591 553.276 141.05 562.811 141.757 567.722C141.751 567.746 141.751 567.772 141.757 567.796C141.918 568.94 142.217 570.06 142.649 571.132V571.206C145.948 573.302 232.959 573.438 235.984 572.446C239.01 571.454 236.369 562.7 232.996 560.046C229.623 557.392 196.317 542.401 196.317 542.401V530.546L140.405 530.72Z" fill="#EBEBEB"/>
<path d="M237.571 573.475C234.459 574.504 145.563 573.859 142.191 571.677C140.951 570.871 140.244 557.913 139.884 542.227V541.743L197.247 541.52V542.487C197.247 542.487 231.136 558 234.583 560.74C238.03 563.481 240.684 572.458 237.571 573.475Z" fill="#40D0B9"/>
<path d="M236.592 570.016C221.613 569.544 161.126 569.036 146.283 569.706C146.159 569.706 146.159 569.792 146.283 569.792C161.163 570.598 221.601 570.611 236.592 570.264C236.902 570.264 236.915 570.028 236.592 570.016Z" fill="#263238"/>
<path d="M202.033 542.698C196.143 541.558 188.926 542.401 184.388 546.58C184.214 546.741 184.388 546.989 184.636 546.927C190.281 545.147 196.101 543.979 201.996 543.442C202.095 543.447 202.191 543.413 202.265 543.347C202.338 543.28 202.382 543.188 202.387 543.089C202.392 542.99 202.357 542.894 202.291 542.821C202.225 542.747 202.132 542.703 202.033 542.698Z" fill="#263238"/>
<path d="M206.274 545.29C200.384 544.149 193.167 545.005 188.629 549.171C188.443 549.332 188.629 549.58 188.877 549.518C194.524 547.745 200.343 546.577 206.237 546.034C206.335 546.039 206.432 546.005 206.505 545.938C206.579 545.872 206.622 545.779 206.627 545.681C206.632 545.582 206.598 545.485 206.532 545.412C206.465 545.339 206.373 545.295 206.274 545.29Z" fill="#263238"/>
<path d="M210.502 547.894C204.625 546.741 197.395 547.596 192.857 551.763C192.683 551.924 192.919 552.172 193.105 552.122C198.749 550.339 204.57 549.171 210.465 548.638C210.564 548.643 210.66 548.608 210.734 548.542C210.807 548.476 210.851 548.383 210.856 548.285C210.861 548.186 210.826 548.089 210.76 548.016C210.694 547.943 210.601 547.899 210.502 547.894Z" fill="#263238"/>
<path d="M154.492 551.8C148.069 548.539 142.972 558.508 149.408 561.782C155.843 565.056 160.927 555.074 154.492 551.8Z" fill="#263238"/>
<path d="M179.428 231.694C179.093 232.736 160.94 282.534 159.228 283.29C157.294 284.183 199.342 354.826 201.835 387.636C203.422 408.63 200.31 536.994 200.31 536.994H138.793C138.793 536.994 141.744 420.62 143.158 386.793C143.704 373.662 100.998 308.338 100.415 267.654C100.254 254.832 109.467 231.409 109.467 231.409L179.428 231.694Z" fill="#40D0B9"/>
<path d="M143.505 385.925C143.505 385.38 143.083 385.206 143.034 385.764C141.645 404.066 141.323 422.282 140.455 440.634C139.587 458.986 140.07 463.326 139.215 481.554C138.743 491.908 139.215 511.86 138.942 522.226C138.951 522.254 138.968 522.278 138.991 522.295C139.015 522.312 139.043 522.322 139.072 522.322C139.101 522.322 139.129 522.312 139.153 522.295C139.176 522.278 139.194 522.254 139.202 522.226C141.161 504.048 143.493 396.292 143.505 385.925Z" fill="#263238"/>
<path d="M201.81 388.418C201.732 383.9 201.318 379.395 200.57 374.939C199.725 370.603 198.45 366.361 196.763 362.278C193.365 353.71 189.323 345.352 185.516 336.982C181.709 328.612 177.667 320.056 173.563 311.674C171.256 306.962 168.937 302.254 166.606 297.55C164.238 292.801 161.646 288.139 159.166 283.439C159.156 283.42 159.143 283.402 159.126 283.388C159.11 283.374 159.091 283.363 159.07 283.356C159.049 283.349 159.027 283.346 159.006 283.348C158.984 283.349 158.963 283.355 158.943 283.365C158.923 283.374 158.906 283.388 158.892 283.405C158.877 283.421 158.867 283.44 158.86 283.461C158.853 283.482 158.85 283.504 158.851 283.525C158.853 283.547 158.859 283.568 158.869 283.588C162.812 292.045 166.693 300.526 170.636 308.996C174.579 317.465 178.448 325.946 182.317 334.44C186.186 342.934 189.943 351.156 193.477 359.6C195.269 363.61 196.737 367.756 197.867 372C198.886 376.397 199.488 380.881 199.665 385.392C200.26 395.895 200.557 406.472 201.587 416.9C201.587 417.037 201.81 417.012 201.822 416.9C202.244 407.439 202.12 397.891 201.81 388.418Z" fill="#263238"/>
<path d="M195.821 524.892C192.25 524.421 165.007 523.491 142.216 524.458C142.067 524.458 142.079 524.681 142.216 524.694C149.656 525.351 191.605 525.636 195.784 525.152C195.92 525.14 195.982 524.917 195.821 524.892Z" fill="#263238"/>
<path d="M167.698 280.575C161.11 282.239 154.679 284.471 148.478 287.246C148.433 287.269 148.398 287.306 148.379 287.352C148.36 287.398 148.357 287.449 148.372 287.497C148.387 287.544 148.418 287.585 148.46 287.612C148.502 287.639 148.552 287.65 148.602 287.643C155.062 285.622 161.622 283.724 167.958 281.344C168.047 281.3 168.118 281.225 168.156 281.133C168.194 281.042 168.198 280.939 168.166 280.845C168.134 280.75 168.069 280.671 167.983 280.621C167.896 280.572 167.795 280.555 167.698 280.575Z" fill="#263238"/>
<path d="M173.898 238.427C173.898 238.216 173.538 238.13 173.513 238.365C172.806 245.706 171.678 252.117 170.364 258.912C169.744 262.062 165.404 279.397 159.997 277.512C159.092 277.202 158.757 276.272 158.757 274.834C158.951 273.016 159.368 271.23 159.997 269.514C160.989 265.893 161.857 262.248 162.552 258.552C163.905 251.693 164.545 244.712 164.461 237.72C164.451 237.681 164.427 237.646 164.395 237.621C164.362 237.596 164.322 237.582 164.281 237.582C164.24 237.582 164.2 237.596 164.168 237.621C164.135 237.646 164.112 237.681 164.102 237.72C163.28 247.33 161.734 256.864 159.476 266.24C158.323 270.742 155.31 277.4 160.022 278.64C164.734 279.88 169.161 268.646 170.078 265.546C172.524 256.711 173.808 247.594 173.898 238.427Z" fill="#263238"/>
<path d="M160.097 278.033C159.48 279.171 158.938 280.347 158.472 281.554C158.02 282.475 157.742 283.471 157.654 284.493C157.656 284.535 157.671 284.576 157.697 284.61C157.722 284.643 157.758 284.668 157.798 284.682C157.838 284.695 157.881 284.696 157.922 284.685C157.962 284.673 157.999 284.65 158.026 284.617C158.688 283.774 159.222 282.838 159.613 281.84C160.146 280.748 160.704 279.67 161.213 278.578C161.285 278.43 161.296 278.26 161.242 278.104C161.189 277.948 161.075 277.82 160.927 277.748C160.779 277.675 160.609 277.665 160.453 277.718C160.297 277.772 160.169 277.885 160.097 278.033Z" fill="#263238"/>
<path d="M149.804 403.992C150.114 395.25 151.044 386.086 148.217 377.642C146.652 373.516 144.774 369.516 142.6 365.676C140.467 361.543 138.376 357.409 136.326 353.276C128.117 336.685 120.367 319.796 113.46 302.659C110.124 294.376 107.148 285.894 105.958 277.016C104.867 267.692 105.451 258.247 107.682 249.128C108.202 246.847 108.748 244.59 109.368 242.333C109.368 242.172 109.17 242.085 109.12 242.246C106.209 250.851 104.592 259.839 104.321 268.919C104.378 277.62 105.943 286.246 108.946 294.413C111.898 302.994 115.593 311.339 119.226 319.647C122.971 328.203 126.864 336.697 130.907 345.129C134.924 353.512 139.215 361.758 143.456 370.028C145.651 373.959 147.244 378.198 148.18 382.602C148.839 387.155 149.01 391.765 148.688 396.354C147.957 415.698 146.295 489.626 146.047 508.908C146.047 511.388 145.985 513.806 145.96 516.262C145.96 516.472 146.283 516.51 146.295 516.262C147.56 497.054 149.11 423.274 149.804 403.992Z" fill="#263238"/>
<path d="M136.016 244.28C136.016 244.131 135.792 244.168 135.78 244.28C135.061 249.6 134.639 255.118 132.06 259.941C129.704 264.368 125.587 267.232 121.111 269.229C118.503 270.349 115.837 271.33 113.125 272.168C112.927 272.23 112.976 272.54 113.187 272.49C118.271 271.436 123.442 270.258 127.869 267.394C132.593 264.343 135.024 259.445 135.805 253.964C136.209 250.752 136.28 247.507 136.016 244.28Z" fill="#263238"/>
<path opacity="0.1" d="M188.741 265.943L104.693 245.421C107.025 237.658 109.467 231.458 109.467 231.458L129.543 231.52C129.54 231.5 129.54 231.479 129.543 231.458L148.837 231.595L179.441 231.694C179.439 231.715 179.439 231.735 179.441 231.756H180.11C180.11 231.756 183.855 245.929 188.741 265.943Z" fill="black"/>
<path d="M184.276 163.854C183.656 186.36 198.226 227.552 206.138 234.856C215.884 243.858 250.778 246.822 253.096 247.157C256.903 247.702 259.148 212.238 255.576 211.048C251.236 209.61 226.3 207.613 223.733 204.34C217.533 196.453 208.717 181.462 197.879 163.234C191.94 153.301 184.661 149.854 184.276 163.854Z" fill="#AD6359"/>
<path d="M251.596 246.636C255.453 247.975 273.668 252.563 279.013 252.712C284.357 252.861 299.795 252.154 300.328 248.062C300.861 243.97 296.323 243.821 296.323 243.821C296.323 243.821 302.783 242.482 302.945 238.328C303.106 234.174 296.038 234.149 296.038 234.149C296.038 234.149 302.585 232.302 302.436 228.135C302.287 223.969 295.195 225.159 295.195 225.159C295.195 225.159 301.258 223.746 299.696 220.36C297.811 216.293 286.936 220.162 281.034 219.554C279.695 219.418 254.089 214.855 254.089 214.855L251.596 246.636Z" fill="#AD6359"/>
<path d="M295.802 225.06C287.792 227.887 283.799 227.738 275.652 225.878C275.491 225.878 275.404 226.077 275.565 226.126C283.377 228.606 288.362 229.586 295.963 225.444C296.36 225.246 296.187 224.936 295.802 225.06Z" fill="#263238"/>
<path d="M296.67 233.914C288.089 236.121 283.762 235.997 275.082 234.682C274.958 234.682 274.908 234.868 275.082 234.893C283.489 236.902 288.486 237.696 296.757 234.36C297.092 234.211 297.054 233.814 296.67 233.914Z" fill="#263238"/>
<path d="M295.876 243.734C287.42 245.272 282.67 245.334 274.4 242.978C274.363 242.975 274.327 242.984 274.297 243.004C274.267 243.024 274.244 243.053 274.232 243.088C274.221 243.122 274.221 243.159 274.234 243.193C274.246 243.227 274.27 243.256 274.3 243.276C282.484 246.5 288.424 246.462 295.901 243.995C296.36 243.834 296.36 243.635 295.876 243.734Z" fill="#263238"/>
<path d="M247.529 212.982C247.529 212.982 256.841 207.836 261.429 206.485C266.017 205.133 284.989 206.373 284.989 210.478C284.989 215.797 273.829 217.236 268.336 217.223C268.336 217.223 268.237 229.512 260.499 232.264C252.762 235.017 247.529 212.982 247.529 212.982Z" fill="#AD6359"/>
<path d="M284.468 211.941C280.934 216.752 273.68 216.268 268.348 216.665C268.268 216.667 268.19 216.689 268.12 216.728C268.05 216.767 267.991 216.822 267.947 216.889C267.903 216.956 267.876 217.033 267.868 217.113C267.86 217.192 267.872 217.273 267.902 217.347C267.518 222.493 265.422 229.636 260.784 232.413C260.755 232.428 260.732 232.454 260.722 232.485C260.711 232.517 260.714 232.551 260.729 232.581C260.743 232.61 260.769 232.633 260.801 232.643C260.832 232.654 260.866 232.651 260.896 232.636C266.327 230.342 268.906 223.485 268.968 217.756C274.474 217.446 281.765 217.595 284.543 211.904L284.468 211.941Z" fill="#263238"/>
<path d="M213.466 185.38L187.426 205.307C187.426 205.307 181.313 169.744 182.466 158.77C183.768 146.432 189.794 149.792 197.346 158.906C204.898 168.02 213.466 185.38 213.466 185.38Z" fill="#40D0B9"/>
<path d="M208.94 181.375C205.282 183.458 195.176 191.295 193.489 192.535C192.597 193.204 189.187 196.044 188.294 196.701C188.182 196.788 188.294 196.949 188.443 196.862C190.141 195.622 191.977 194.506 193.688 193.254C195.399 192.002 205.964 184.425 209.039 181.486C209.046 181.48 209.052 181.472 209.057 181.463C209.061 181.454 209.063 181.445 209.064 181.435C209.065 181.425 209.063 181.415 209.06 181.406C209.057 181.397 209.052 181.388 209.045 181.381C209.039 181.374 209.031 181.368 209.022 181.363C209.013 181.359 209.004 181.357 208.994 181.356C208.984 181.356 208.974 181.357 208.965 181.36C208.956 181.363 208.947 181.368 208.94 181.375Z" fill="#263238"/>
<path opacity="0.1" d="M182.441 158.72C181.276 169.682 187.401 205.257 187.401 205.257L200.88 195.04L189.137 151.28C185.678 149.631 183.223 151.404 182.441 158.72Z" fill="black"/>
<path d="M103.478 240.039L188.678 264.12C188.207 265.794 197.916 206.807 195.176 163.68C194.358 150.92 180.197 141.633 166.024 151.664C136.202 172.707 103.18 241.118 103.478 240.039Z" fill="#40D0B9"/>
<path d="M159.787 166.048C154.827 186.781 143.381 229.536 151.107 243.338C161.2 261.429 198.772 276.334 208.581 280.649C212.846 282.522 227.019 254.857 224.961 250.306C222.903 245.756 184.227 226.027 181.735 223.2C179.242 220.373 178.635 185.727 176.601 167.76C174.034 145.08 163.953 148.49 159.787 166.048Z" fill="#AD6359"/>
<path d="M236.059 261.553C234.645 259.644 235.637 258.887 239.717 259.991C243.796 261.094 259.048 268.919 261.33 263.376C263.612 257.833 241.949 247.095 235.005 245.78C228.061 244.466 216.405 244.764 216.405 244.764C220.162 247.702 228.693 255.7 236.059 261.553Z" fill="#AD6359"/>
<path d="M197.941 274.92C208.94 282.794 222.146 293.272 237.349 294.636C239.031 294.834 240.73 294.458 242.172 293.57C248.98 294.302 251.373 291.313 251.373 291.313C257.908 290.073 259.929 286.663 259.929 286.663C259.929 286.663 267.927 287.432 269.192 282.683C270.643 277.351 259.135 277.301 252.811 273.408C238.353 264.492 220.286 247.752 216.368 244.764L197.941 274.92Z" fill="#AD6359"/>
<path d="M231.087 274.71C235.285 277.376 239.665 279.746 244.193 281.802C249.281 283.756 254.508 285.327 259.83 286.502C259.857 286.511 259.882 286.528 259.899 286.551C259.916 286.575 259.925 286.603 259.925 286.632C259.925 286.661 259.916 286.69 259.899 286.713C259.882 286.736 259.857 286.754 259.83 286.762C249.319 285.525 239.351 281.424 231.012 274.908C230.777 274.759 230.863 274.586 231.087 274.71Z" fill="#263238"/>
<path d="M224.44 282.72C228.768 284.964 236.406 288.92 251.41 291.214V291.301C241.786 291.073 232.414 288.175 224.341 282.931C224.068 282.72 224.143 282.509 224.44 282.72Z" fill="#263238"/>
<path d="M220.931 286.998C228.445 290.532 233.616 291.809 242.147 293.52V293.62C232.227 292.677 228.755 291.214 220.769 287.246C220.497 287.11 220.633 286.862 220.931 286.998Z" fill="#263238"/>
<path d="M180.383 192.46L148.726 200.124C148.726 200.124 157.406 165.404 162.862 155.88C168.987 145.192 173.104 150.66 176.278 161.932C179.453 173.203 180.383 192.46 180.383 192.46Z" fill="#40D0B9"/>
<path d="M177.878 187.004C173.724 187.438 161.411 190.489 159.377 190.96C158.298 191.22 154.057 192.423 152.991 192.671C152.842 192.671 152.917 192.907 153.053 192.882C155.111 192.411 157.207 192.15 159.253 191.642C161.299 191.134 173.947 188.542 177.853 187.104C177.867 187.092 177.877 187.076 177.882 187.058C177.886 187.04 177.885 187.021 177.878 187.004Z" fill="#263238"/>
<path d="M179.726 178.56C179.726 176.836 179.788 175.125 179.726 173.402C179.651 174.642 179.614 175.882 179.577 177.196C179.242 174.716 178.858 172.236 178.337 169.756C178.535 173.575 178.944 177.37 179.23 181.189C179.515 185.008 179.85 188.629 180.197 192.349C179.502 192.634 178.808 192.907 178.101 193.167C178.079 193.175 178.06 193.189 178.047 193.208C178.034 193.227 178.026 193.249 178.026 193.273C178.026 193.296 178.034 193.318 178.047 193.337C178.06 193.356 178.079 193.37 178.101 193.378C178.907 193.217 179.713 193.068 180.581 192.944C180.676 192.938 180.764 192.896 180.828 192.827C180.893 192.758 180.929 192.667 180.928 192.572C180.68 187.86 180.308 183.16 179.726 178.56Z" fill="#263238"/>
<path d="M190.018 165.85C185.69 165.986 176.378 158.075 174.58 151.578C174.468 151.131 176.068 147.126 177.791 142.178C178.821 139.165 179.899 135.78 180.668 132.63C180.817 131.986 199.268 142.216 199.268 142.216C197.191 145.887 195.567 149.796 194.432 153.859C194.333 154.295 194.275 154.739 194.259 155.186C194.259 155.186 194.259 155.322 194.259 155.409C194.06 157.964 194.68 165.689 190.018 165.85Z" fill="#AD6359"/>
<path d="M194.271 155.186C194.271 155.186 194.271 155.322 194.271 155.409C193.572 155.32 192.88 155.183 192.2 155C180.619 151.925 181.04 136.611 181.363 132.779C184.76 134.131 199.281 142.191 199.281 142.191C197.197 145.859 195.573 149.769 194.445 153.834C194.345 154.279 194.287 154.731 194.271 155.186Z" fill="#263238"/>
<path d="M182.925 107.198C179.292 113.807 178.783 134.986 182.851 140.579C188.765 148.688 200.558 151.739 207.985 144.212C215.177 136.859 215.425 109.244 210.614 103.949C203.621 96.1372 188.282 97.4268 182.925 107.198Z" fill="#AD6359"/>
<path d="M200.285 123.554C200.285 123.554 200.173 123.554 200.173 123.678C200.173 125.104 199.938 126.74 198.636 127.174C198.636 127.174 198.636 127.261 198.636 127.249C200.223 127.075 200.521 124.905 200.285 123.554Z" fill="#263238"/>
<path d="M199.057 122.028C196.763 121.78 196.453 126.381 198.573 126.604C200.694 126.827 200.967 122.227 199.057 122.028Z" fill="#263238"/>
<path d="M208.506 124.347C208.506 124.347 208.618 124.422 208.605 124.484C208.469 125.897 208.605 127.546 209.845 128.117C209.845 128.117 209.845 128.204 209.845 128.191C208.221 127.856 208.146 125.674 208.506 124.347Z" fill="#263238"/>
<path d="M209.882 122.946C212.189 122.946 212.052 127.534 209.882 127.546C207.712 127.559 207.948 122.958 209.882 122.946Z" fill="#263238"/>
<path d="M197.383 119.796C198 119.663 198.609 119.493 199.206 119.288C199.873 119.203 200.493 118.898 200.967 118.42C201.102 118.237 201.169 118.013 201.155 117.786C201.141 117.56 201.048 117.345 200.892 117.18C200.565 116.898 200.167 116.71 199.742 116.636C199.316 116.561 198.878 116.604 198.474 116.758C197.612 116.939 196.847 117.434 196.329 118.147C196.2 118.317 196.125 118.522 196.116 118.736C196.107 118.949 196.164 119.161 196.279 119.341C196.394 119.521 196.562 119.661 196.759 119.742C196.957 119.824 197.175 119.843 197.383 119.796Z" fill="#263238"/>
<path d="M211.817 120.751C211.207 120.585 210.607 120.386 210.019 120.156C209.36 120.03 208.76 119.695 208.307 119.201C208.185 119.01 208.132 118.783 208.156 118.557C208.181 118.331 208.283 118.121 208.444 117.961C208.795 117.699 209.21 117.534 209.645 117.484C210.081 117.434 210.522 117.5 210.924 117.676C211.777 117.9 212.516 118.435 212.995 119.176C213.124 119.354 213.193 119.569 213.192 119.789C213.19 120.009 213.118 120.222 212.986 120.398C212.855 120.574 212.67 120.704 212.46 120.767C212.249 120.831 212.024 120.825 211.817 120.751Z" fill="#263238"/>
<path d="M199.851 132.519C200.171 133.107 200.612 133.622 201.144 134.03C201.676 134.438 202.287 134.73 202.938 134.887C203.503 135.046 204.089 135.113 204.674 135.086C204.786 135.099 204.898 135.099 205.009 135.086H205.332C205.407 135.073 205.477 135.037 205.532 134.984C205.587 134.931 205.625 134.863 205.642 134.788C205.647 134.739 205.647 134.689 205.642 134.639V134.515C205.741 133.424 205.753 131.75 205.753 131.75C206.138 131.973 208.122 132.99 208.122 132.457C208.334 127.509 208.043 122.553 207.254 117.664C207.254 117.627 207.239 117.593 207.214 117.567C207.188 117.542 207.153 117.527 207.117 117.527C207.081 117.527 207.046 117.542 207.021 117.567C206.995 117.593 206.981 117.627 206.981 117.664C206.77 122.239 207.353 126.827 207.204 131.415C206.498 131.032 205.743 130.748 204.96 130.572C204.798 130.572 204.96 133.808 204.96 134.292C204.047 134.329 203.137 134.179 202.285 133.853C201.432 133.527 200.654 133.031 200 132.395C199.888 132.308 199.776 132.395 199.851 132.519Z" fill="#263238"/>
<path d="M204.414 134.776C203.692 135.565 202.778 136.155 201.76 136.487C201.204 136.666 200.605 136.666 200.049 136.487C198.809 136.053 198.921 134.924 199.231 134.007C199.399 133.501 199.628 133.018 199.913 132.568C201.139 133.766 202.716 134.54 204.414 134.776Z" fill="#263238"/>
<path d="M201.76 136.487C201.204 136.666 200.605 136.666 200.049 136.487C198.809 136.053 198.921 134.924 199.231 134.007C199.868 134.081 200.462 134.365 200.92 134.814C201.378 135.263 201.674 135.851 201.76 136.487Z" fill="#FF9ABB"/>
<path d="M187.426 119.896C189.484 116.176 188.356 109.008 190.675 107.496C195.635 104.346 203.273 113.373 209.362 114.477C215.264 115.543 217.893 112.096 217.67 107.111C217.446 102.126 213.95 98.1956 207.464 96.0504C200.793 93.8308 194.06 95.5048 190.278 97.0796C190.278 97.0796 192.188 94.9468 191.754 94.116C191.32 93.2852 188.034 95.0708 186.98 95.8892C186.178 96.6315 185.518 97.5139 185.033 98.4932C184.195 98.1105 183.305 97.8555 182.392 97.7368C181.058 97.6029 179.72 97.9407 178.61 98.6916C178.436 99.0264 180.544 99.6836 182.032 100.018C182.032 100.018 178.572 103.255 178.076 106.466C177.58 109.678 179.899 125.711 181.065 126.083C182.565 126.616 186.583 121.433 187.426 119.896Z" fill="#263238"/>
<path d="M182.689 99.7952C182.689 99.7952 182.801 99.7952 182.689 99.8944C181.017 100.817 179.635 102.187 178.697 103.85C177.705 105.891 177.277 108.16 177.457 110.422C177.655 114.787 179.044 118.941 180.147 123.132C180.147 123.256 179.974 123.306 179.937 123.132C178.473 118.767 177.047 114.068 177.01 109.492C177.097 105.549 178.746 101.308 182.689 99.7952Z" fill="#263238"/>
<path d="M190.712 105.958C192.539 106.04 194.334 106.46 196.007 107.198C197.533 108.074 198.945 109.136 200.21 110.36C203.138 112.958 206.74 114.678 210.602 115.32V115.394C207.021 115.071 203.617 113.694 200.818 111.439C199.449 110.237 198.008 109.119 196.503 108.091C194.669 107.208 192.706 106.626 190.687 106.367C190.633 106.364 190.582 106.339 190.546 106.299C190.51 106.258 190.492 106.204 190.495 106.15C190.498 106.096 190.523 106.045 190.564 106.009C190.604 105.973 190.658 105.955 190.712 105.958Z" fill="#263238"/>
<path d="M194.209 96.1C196.811 95.31 199.512 94.8925 202.232 94.86C204.837 94.7663 207.439 95.1271 209.92 95.9264C214.173 97.4144 217.707 100.886 217.943 105.574C218.104 107.979 217.361 110.358 215.859 112.245C215.76 112.369 215.574 112.245 215.661 112.084C216.926 110.33 217.589 108.215 217.551 106.053C217.513 103.892 216.776 101.8 215.45 100.093C212.4 96.3728 207.403 95.232 202.802 95.1328C199.918 95.1403 197.042 95.4478 194.221 96.0504C194.221 96.0504 194.197 96.1124 194.209 96.1Z" fill="#263238"/>
<path d="M184.574 125.128C184.574 125.128 181.176 117.688 177.865 118.73C174.555 119.772 176.241 130.064 179.515 132.048C179.921 132.321 180.378 132.511 180.858 132.607C181.339 132.703 181.833 132.703 182.314 132.607C182.794 132.512 183.251 132.322 183.658 132.049C184.065 131.777 184.414 131.426 184.685 131.018L184.574 125.128Z" fill="#AD6359"/>
<path d="M178.424 121.656C178.424 121.656 178.337 121.656 178.424 121.743C180.705 123.206 181.586 125.748 182.045 128.303C181.949 128.028 181.794 127.778 181.592 127.569C181.39 127.36 181.145 127.197 180.873 127.093C180.602 126.988 180.311 126.943 180.021 126.961C179.731 126.98 179.448 127.061 179.193 127.199C179.173 127.199 179.154 127.207 179.14 127.221C179.126 127.235 179.118 127.254 179.118 127.274C179.118 127.293 179.126 127.312 179.14 127.326C179.154 127.34 179.173 127.348 179.193 127.348C179.655 127.293 180.122 127.382 180.531 127.604C180.94 127.827 181.269 128.17 181.474 128.588C181.821 129.283 182.087 130.015 182.268 130.77C182.342 131.006 182.764 130.969 182.727 130.696C183.371 127.484 181.747 122.599 178.424 121.656Z" fill="#263238"/>
<path d="M176.291 145.489L191.307 164.3L194.246 155.409L197.123 160.357L195.275 170.19L191.419 165.565L186.558 172.422L170.587 150.672L176.291 145.489Z" fill="#40D0B9"/>
<path opacity="0.6" d="M176.291 145.489L191.307 164.3L194.246 155.409L197.123 160.357L195.275 170.19L191.419 165.565L186.558 172.422L170.587 150.672L176.291 145.489Z" fill="white"/>
<path d="M368.354 572.632C327.434 572.632 294.215 531.129 294.215 480.103C294.215 429.077 327.472 387.574 368.354 387.574C409.237 387.574 442.494 429.09 442.494 480.103C442.494 531.117 409.2 572.632 368.354 572.632ZM368.354 394.99C331.564 394.99 301.642 433.169 301.642 480.103C301.642 527.037 331.564 565.217 368.354 565.217C405.145 565.217 435.066 527.037 435.066 480.103C435.066 433.169 405.145 394.99 368.354 394.99Z" fill="#263238"/>
<path d="M374.207 562.129C338.037 562.129 308.611 525.338 308.611 480.103C308.611 434.868 338.037 398.04 374.207 398.04C410.378 398.04 439.791 434.843 439.791 480.066C439.791 525.289 410.366 562.129 374.207 562.129ZM374.207 403.409C340.963 403.409 313.919 437.819 313.919 480.128C313.919 522.437 340.963 556.859 374.207 556.859C407.452 556.859 434.496 522.437 434.496 480.128C434.496 437.819 407.452 403.384 374.207 403.384V403.409Z" fill="#C7C7C7"/>
<path d="M371.677 493.508C377.553 493.508 382.316 487.506 382.316 480.103C382.316 472.7 377.553 466.699 371.677 466.699C365.801 466.699 361.038 472.7 361.038 480.103C361.038 487.506 365.801 493.508 371.677 493.508Z" fill="#C7C7C7"/>
<path d="M385.714 480.103C385.714 487.543 380.953 493.52 375.087 493.52C369.222 493.52 364.448 487.506 364.448 480.103C364.448 472.7 369.21 466.699 375.087 466.699C380.965 466.699 385.714 472.7 385.714 480.103Z" fill="#C7C7C7"/>
<path d="M471.373 477.462H375.087V482.757H471.373V477.462Z" fill="#C7C7C7"/>
<path d="M263.562 575.174C271.205 575.174 277.4 567.363 277.4 557.727C277.4 548.092 271.205 540.28 263.562 540.28C255.919 540.28 249.724 548.092 249.724 557.727C249.724 567.363 255.919 575.174 263.562 575.174Z" fill="#C7C7C7"/>
<path d="M267.989 575.174C275.632 575.174 281.827 567.363 281.827 557.727C281.827 548.092 275.632 540.28 267.989 540.28C260.346 540.28 254.15 548.092 254.15 557.727C254.15 567.363 260.346 575.174 267.989 575.174Z" fill="#C7C7C7"/>
<path d="M375.459 357.207H265.905V399.503H375.459V357.207Z" fill="#A6A6A6"/>
<path d="M357.69 501.245H265.93V496H357.69C361.683 495.997 365.511 494.41 368.335 491.588C371.16 488.766 372.75 484.939 372.756 480.946V263.227C372.763 257.836 374.905 252.666 378.714 248.85C382.523 245.034 387.688 242.883 393.08 242.866H405.48V248.161H393.08C389.087 248.168 385.26 249.757 382.438 252.582C379.616 255.406 378.029 259.235 378.026 263.227V480.897C378.016 486.288 375.871 491.456 372.06 495.27C368.249 499.084 363.082 501.232 357.69 501.245Z" fill="#C7C7C7"/>
<path d="M268.547 540.293H263.252V331.464C263.255 326.604 265.187 321.943 268.623 318.504C272.059 315.066 276.718 313.131 281.579 313.125H375.398V318.432H281.579C278.124 318.435 274.811 319.809 272.367 322.253C269.924 324.696 268.55 328.009 268.547 331.464V540.293Z" fill="#C7C7C7"/>
<path d="M421.898 240.064H389.062V250.604H421.898V240.064Z" fill="#263238"/>
<path d="M471.374 263.066H377.778V391.282H471.374V263.066Z" fill="#455A64"/>
<path d="M237.249 563.927H354.404V551.54H237.249V563.927Z" fill="#263238"/>
<path d="M324.88 209.56C312.133 222.53 309.442 272.093 304.841 288.846C301.741 300.179 291.747 332.432 285.001 343.926L343.48 339.351C343.48 339.351 351.614 325.587 347.907 296.174C344.137 266.501 324.88 209.56 324.88 209.56Z" fill="#40D0B9"/>
<path opacity="0.1" d="M324.88 209.56C312.133 222.53 309.442 272.093 304.841 288.846C301.741 300.179 291.747 332.432 285.001 343.926L343.48 339.351C343.48 339.351 351.614 325.587 347.907 296.174C344.137 266.501 324.88 209.56 324.88 209.56Z" fill="black"/>
<path d="M182.441 576.067C185.603 577.084 275.664 576.29 279.074 574.095C280.376 573.264 281.021 560.145 281.356 544.261C281.43 540.838 288.238 485.572 288.238 485.572L228.024 485.931L223.299 544.608C223.299 544.608 188.951 560.331 185.467 563.146C181.982 565.961 179.292 575.038 182.441 576.067Z" fill="#EB9481"/>
<path d="M182.453 576.067C185.603 577.084 275.652 576.29 279.074 574.095C280.054 573.463 280.674 565.787 281.071 555.173C269.415 557.839 203.943 563.22 196.416 562.315C189.137 561.447 205.989 552.78 209.039 551.242C199.119 555.904 187.426 561.559 185.479 563.146C181.995 565.961 179.291 575.038 182.453 576.067Z" fill="#455A64"/>
<path d="M372.484 267.642C372.484 267.642 389.36 294.922 380.705 319.722C365.924 362.142 295.579 402.033 294.426 407.489C291.71 420.36 288.523 528.81 288.523 528.81L223.708 528.401C223.708 528.401 228.259 412.126 236.89 387.19C243.809 367.226 303.924 322.14 319.672 304.048C321.507 301.952 322.871 278.355 322.871 278.355L372.484 267.642Z" fill="#263238"/>
<path d="M227.627 517.167C238.08 516.956 269.7 516.088 283.625 517.167C283.724 517.167 283.724 517.34 283.625 517.365C278.851 518.109 238.08 517.601 227.627 517.365C227.602 517.338 227.589 517.303 227.589 517.266C227.589 517.229 227.602 517.194 227.627 517.167Z" fill="#37474F"/>
<path d="M281.083 457.424C281.579 447.694 282.166 437.964 282.844 428.234C283.166 423.448 283.522 418.665 283.91 413.887C283.902 411.574 284.19 409.27 284.766 407.03C285.44 405.376 286.513 403.914 287.891 402.777C294.661 396.515 301.791 390.612 308.809 384.636C315.828 378.659 322.97 372.583 329.889 366.445C336.809 360.307 343.455 354.33 349.891 347.907C355.917 341.88 361.683 335.346 365.564 327.682C369.119 320.45 371.106 312.548 371.397 304.495C371.688 296.441 370.275 288.417 367.251 280.947C366.507 279.136 365.763 277.338 364.895 275.578C364.863 275.522 364.856 275.456 364.873 275.394C364.891 275.332 364.932 275.28 364.988 275.249C365.044 275.218 365.11 275.21 365.171 275.227C365.233 275.245 365.285 275.286 365.316 275.342C373.81 288.498 375.236 305.995 370.537 320.763C365.205 337.33 351.825 349.395 339.363 360.828C325.549 373.513 310.967 385.318 296.732 397.519C294.996 399.007 293.268 400.503 291.549 402.008C289.849 403.27 288.33 404.76 287.035 406.435C285.795 408.394 285.919 410.973 285.795 413.218C285.605 415.698 285.423 418.178 285.249 420.658C284.538 430.379 283.906 440.105 283.352 449.835C282.249 469.464 281.877 507.284 281.802 509.69C281.802 509.788 281.763 509.883 281.693 509.953C281.624 510.022 281.529 510.062 281.43 510.062C281.332 510.062 281.237 510.022 281.167 509.953C281.097 509.883 281.058 509.788 281.058 509.69C281.12 490.135 280.091 476.904 281.083 457.424Z" fill="#37474F"/>
<path d="M323.975 576.501C327.285 576.774 416.975 554.478 419.789 551.552C419.923 551.376 420.001 551.165 420.013 550.944C420.409 548.03 386.533 468.881 386.533 468.881L332.94 482.844L356.574 536.523C356.574 536.523 326.74 559.699 323.999 563.233C321.259 566.767 320.676 576.228 323.975 576.501Z" fill="#EB9481"/>
<path d="M323.975 576.501C327.285 576.761 416.975 554.478 419.789 551.552C419.916 551.373 419.993 551.163 420.013 550.944C420.137 549.99 417.136 540.888 413.031 529.058C396.13 542.103 334.453 561.1 332.679 560.058C330.906 559.017 339.487 550.138 340.119 549.556C332.679 555.508 325.314 561.596 323.999 563.27C321.247 566.779 320.676 576.228 323.975 576.501Z" fill="#455A64"/>
<path d="M350.114 528.798L413.354 516.547C413.354 516.547 352.383 400.855 353.4 392.398C354.342 384.958 396.589 337.95 401.562 319.461C406.931 299.51 398.821 275.64 390.017 263.835L322.822 278.355C322.822 278.355 325.922 290.458 335.308 298.48C335.308 298.48 288.263 366.482 285.708 389.707C283.154 412.932 350.114 528.798 350.114 528.798Z" fill="#263238"/>
<path d="M349.68 516.572C358.471 514.65 355.88 515.059 364.733 513.248C369.036 512.356 397.383 506.552 401.561 506.49C401.648 506.49 401.685 506.652 401.561 506.689C397.668 508.214 369.222 513.484 364.895 514.278C356.041 515.902 358.571 515.332 349.705 516.857C349.531 516.882 349.481 516.609 349.68 516.572Z" fill="#37474F"/>
<path d="M326.12 297.178C332.77 299.069 339.25 301.516 345.489 304.494C345.532 304.521 345.564 304.561 345.58 304.609C345.595 304.657 345.593 304.709 345.574 304.756C345.554 304.802 345.519 304.84 345.473 304.863C345.428 304.885 345.377 304.891 345.328 304.879C338.818 302.634 332.196 300.514 325.823 297.935C325.734 297.887 325.666 297.809 325.632 297.715C325.597 297.621 325.598 297.517 325.635 297.424C325.672 297.331 325.741 297.254 325.831 297.209C325.92 297.164 326.023 297.153 326.12 297.178Z" fill="#37474F"/>
<path d="M333.845 294.884C334.421 296.033 334.922 297.217 335.345 298.431C335.753 299.343 335.988 300.322 336.04 301.32C336.04 301.506 335.767 301.543 335.643 301.419C335.007 300.562 334.505 299.613 334.155 298.604C333.659 297.513 333.138 296.434 332.667 295.331C332.32 294.649 333.485 294.19 333.845 294.884Z" fill="#37474F"/>
<path d="M324.285 274.313C324.285 274.201 324.508 274.139 324.533 274.313C325.085 277.919 325.855 281.488 326.839 285.002C327.273 286.638 330.274 295.604 333.622 294.475C334.18 294.289 334.403 293.781 334.378 293.037C334.219 292.08 333.918 291.152 333.485 290.284C332.803 288.412 332.245 286.564 331.712 284.605C330.756 281.057 330.24 277.404 330.175 273.73C330.175 273.606 330.385 273.594 330.41 273.73C331.074 278.781 332.194 283.762 333.758 288.61C334.552 290.941 336.548 294.351 333.622 295.108C330.695 295.864 327.744 290.148 327.112 288.536C325.444 283.968 324.49 279.171 324.285 274.313Z" fill="#37474F"/>
<path d="M383.668 294.016C382.639 293.396 380.978 293.768 379.824 293.744C378.337 293.707 376.854 293.57 375.385 293.334C373.931 293.096 372.494 292.765 371.082 292.342C369.648 292.02 368.307 291.371 367.164 290.445C365.371 288.511 363.95 286.262 362.973 283.811C361.73 281.26 360.821 278.56 360.27 275.776C360.27 275.615 359.997 275.677 360.022 275.776C360.195 277.338 360.245 278.888 360.555 280.451C360.857 281.915 361.271 283.353 361.795 284.754C362.762 287.358 363.903 290.172 366.06 292.032C368.218 293.892 371.64 294.512 374.517 294.934C376.182 295.157 377.86 295.256 379.539 295.232C380.779 295.232 382.751 295.405 383.693 294.525C383.754 294.453 383.786 294.36 383.781 294.266C383.777 294.171 383.736 294.082 383.668 294.016Z" fill="#37474F"/>
<path d="M284.456 385.851C284.743 383.759 285.323 381.717 286.18 379.787C287.841 375.906 289.763 372.124 291.636 368.342C299.205 353.167 307.634 338.437 316.882 324.223C322.078 316.2 327.496 308.338 333.424 300.836C333.647 300.564 334.106 300.836 333.907 301.134C329.22 308.09 324.496 315.022 319.945 322.053C315.394 329.084 311.042 336.288 306.875 343.567C302.709 350.846 298.84 358.075 295.12 365.49C293.248 369.21 291.4 372.93 289.602 376.65C288.644 378.556 287.783 380.509 287.023 382.503C286.333 384.569 285.985 386.735 285.994 388.914C285.87 398.226 292.739 415.735 293.508 418.016C293.514 418.058 293.506 418.1 293.486 418.136C293.465 418.172 293.433 418.201 293.394 418.216C293.356 418.232 293.313 418.234 293.273 418.223C293.233 418.211 293.198 418.187 293.173 418.153C289.652 411.953 285.225 396.639 284.679 392.386C284.332 390.225 284.257 388.03 284.456 385.851Z" fill="#37474F"/>
<path d="M285.076 385.851C285.634 381.672 287.68 377.816 289.491 374.071C291.301 370.326 293.099 366.742 294.971 363.109C298.716 355.826 302.672 348.667 306.838 341.632C311.005 334.597 315.34 327.662 319.846 320.825C322.127 317.378 324.459 313.956 326.864 310.595C328.104 308.921 329.344 307.247 330.584 305.635C331.179 304.854 331.824 304.06 332.37 303.292L333.362 302.052C333.436 301.965 333.721 301.667 333.721 301.58C333.449 301.047 333.238 300.985 333.077 301.407L332.829 301.779C328.141 308.723 323.417 315.654 318.891 322.698C314.365 329.741 310.124 336.784 306.007 343.976C301.891 351.168 297.972 358.509 294.227 365.924C292.343 369.669 290.495 373.426 288.685 377.196C287.785 378.971 286.998 380.802 286.329 382.676C285.755 384.487 285.437 386.37 285.386 388.269C285.175 393.576 286.626 398.958 288.102 404.004C289.342 408.382 290.867 412.684 292.429 416.95C292.636 417.339 292.783 417.757 292.863 418.19L293.049 417.756L292.95 417.83L293.384 417.644H293.26L293.694 417.818C293.441 417.501 293.24 417.145 293.099 416.764L292.504 415.524C292.07 414.582 291.673 413.627 291.264 412.66C290.408 410.502 289.627 408.307 288.908 406.1C287.575 402.158 286.458 398.147 285.56 394.084C284.973 391.39 284.818 388.619 285.101 385.876C285.2 385.094 283.948 385.094 283.861 385.876C283.556 389.273 283.845 392.697 284.717 395.994C285.473 399.168 286.391 402.318 287.395 405.43C288.413 408.718 289.601 411.95 290.954 415.115C291.239 415.784 291.549 416.454 291.871 417.111C292.194 417.768 292.38 418.438 292.863 418.748C293 418.844 293.163 418.896 293.329 418.896C293.496 418.896 293.659 418.844 293.795 418.747C293.931 418.65 294.034 418.514 294.089 418.356C294.144 418.199 294.149 418.028 294.103 417.868C294.035 417.618 293.948 417.373 293.843 417.136C291.896 411.767 289.999 406.373 288.548 400.842C287.638 397.635 287.015 394.352 286.688 391.034C286.524 389.071 286.616 387.096 286.961 385.156C287.546 382.679 288.446 380.287 289.639 378.039C294.153 368.627 298.877 359.315 303.937 350.176C308.996 341.037 314.229 332.233 319.809 323.528C322.648 319.114 325.55 314.749 328.489 310.397C329.952 308.214 331.419 306.036 332.891 303.862L333.907 302.349C334.18 301.94 334.664 301.456 334.627 300.936C334.607 300.77 334.542 300.613 334.438 300.482C334.335 300.351 334.197 300.251 334.041 300.194C333.884 300.136 333.715 300.122 333.551 300.155C333.388 300.187 333.236 300.264 333.114 300.378C332.711 300.78 332.353 301.225 332.047 301.704L330.807 303.23L328.489 306.28C327.001 308.301 325.525 310.335 324.087 312.393C321.148 316.584 318.321 320.85 315.555 325.153C310.013 333.833 304.718 342.575 299.758 351.54C297.278 355.979 294.897 360.464 292.615 364.994C290.272 369.644 287.891 374.294 285.833 379.068C284.856 381.23 284.184 383.517 283.836 385.863C283.737 386.644 284.977 386.632 285.076 385.851Z" fill="#37474F"/>
<path d="M345.253 389.05C346.952 385.392 349.717 382.131 352.036 378.845L359.538 368.131C364.597 360.939 369.594 353.698 374.641 346.506C379.378 339.76 384.35 333.114 388.219 325.822C392.088 318.531 394.481 310.806 394.27 302.672C393.985 291.512 388.43 272.602 387.574 270.605C387.571 270.582 387.575 270.559 387.585 270.538C387.595 270.517 387.612 270.5 387.632 270.489C387.653 270.479 387.676 270.474 387.699 270.477C387.722 270.48 387.743 270.49 387.76 270.506C390.24 274.226 399.491 303.341 393.142 318.407C390.04 325.71 386.188 332.671 381.647 339.177C376.687 346.295 371.616 353.313 366.606 360.381L351.354 381.92C349.134 385.057 345.972 388.48 345.427 392.435C344.832 396.639 347.547 400.793 349.32 404.414C357.058 420.228 364.829 436.021 372.632 451.794C380.444 467.567 395.461 498.678 396.391 500.613C396.478 500.811 396.192 500.972 396.093 500.774C387.835 485.237 382.342 473.854 374.492 458.106C366.643 442.358 358.918 426.709 351.23 410.986C349.358 407.142 347.336 403.335 345.65 399.416C344.162 395.957 343.641 392.547 345.253 389.05Z" fill="#37474F"/>
<path d="M328.377 163.804C336.412 170.14 339.847 181.71 339.847 181.71C339.847 181.71 348.142 192.795 346.952 199.466C346.652 201.357 345.899 203.146 344.757 204.682C343.614 206.217 342.117 207.453 340.392 208.283L340.665 204.637C340.665 204.637 338.88 209.486 331.34 212.238C323.801 214.991 313.298 213.776 307.656 211.693C304.292 210.49 301.301 208.429 298.976 205.716L301.568 210.676C299.014 210.688 296.498 210.067 294.243 208.868C291.988 207.669 290.065 205.93 288.647 203.806C283.253 196.366 294.748 183.346 295.542 180.755C296.335 178.163 295.641 159.948 314.972 160.915C315.034 160.878 322.846 159.439 328.377 163.804Z" fill="#C7C7C7"/>
<path d="M343.083 207.502C344.951 205.891 346.452 203.9 347.485 201.661C348.424 199.359 348.555 196.806 347.857 194.42C346.834 191.639 345.313 189.067 343.369 186.831C341.521 184.413 339.5 182.119 337.702 179.676C337.603 179.54 337.801 179.391 337.913 179.502C339.832 181.284 341.646 183.176 343.344 185.169C345.057 186.97 346.555 188.963 347.808 191.109C348.968 193.085 349.536 195.354 349.445 197.644C349.281 199.52 348.664 201.328 347.647 202.914C346.377 204.681 344.88 206.274 343.195 207.65C343.096 207.737 342.984 207.601 343.083 207.502Z" fill="#C7C7C7"/>
<path d="M286.155 195.759C287.655 188.852 293.149 183.954 296.075 177.742C297.675 174.381 298.791 170.736 301.035 167.722C301.035 167.636 301.246 167.722 301.184 167.822C299.361 170.512 298.493 173.6 297.29 176.588C296.003 179.569 294.416 182.411 292.553 185.07C289.317 190.03 285.436 195.87 287.023 202.083C287.755 204.947 289.85 207.973 292.95 208.531C293.062 208.531 293.012 208.754 292.95 208.717C291.716 208.384 290.564 207.801 289.564 207.006C288.564 206.21 287.737 205.219 287.135 204.092C285.813 201.523 285.465 198.564 286.155 195.759Z" fill="#C7C7C7"/>
<path d="M286.08 197.582C285.584 195.075 285.874 192.477 286.911 190.142C288.098 187.924 289.747 185.988 291.747 184.462C293.942 182.615 296.273 180.817 297.488 178.151C297.488 178.039 297.699 178.151 297.65 178.238C295.74 182.64 291.45 185.095 288.734 188.914C285.684 193.291 286.341 199.082 289.292 203.335C291.142 205.939 293.586 208.065 296.422 209.535V209.61C291.561 207.179 287.085 203.124 286.08 197.582Z" fill="#C7C7C7"/>
<path d="M321.383 285.485L321.098 271.473C321.098 271.473 311.661 268.46 311.785 256.32C311.785 250.728 317.155 221.6 323.454 212.92C329.369 204.823 338.867 206.795 344.534 209.61C355.694 215.115 376.092 239.618 396.254 272.316L321.383 285.485Z" fill="#EBEBEB"/>
<path d="M338.52 264.976C335.755 265.366 333.038 266.039 330.41 266.984C329.084 267.48 327.794 268.063 326.492 268.696C325.86 269.006 325.252 269.278 324.558 269.564C323.897 269.876 323.189 270.073 322.462 270.146C322.462 270.146 322.462 270.283 322.462 270.295C323.137 270.328 323.813 270.299 324.483 270.208C325.139 270.09 325.782 269.912 326.405 269.675C327.744 269.179 329.071 268.596 330.41 268.088C333.101 267.071 335.804 266.042 338.557 265.298C338.731 265.261 338.694 264.951 338.52 264.976Z" fill="#263238"/>
<path d="M345.352 268.348C343.101 268.041 340.829 267.912 338.557 267.964C337.423 268.008 336.292 268.12 335.172 268.299C334.639 268.373 334.093 268.472 333.56 268.584C333.027 268.696 332.394 268.919 331.799 269.018C331.737 269.018 331.737 269.167 331.799 269.167C332.357 269.092 332.927 269.167 333.498 269.167L335.184 269.08L338.582 268.919C340.839 268.782 343.095 268.671 345.352 268.646C345.476 268.609 345.464 268.361 345.352 268.348Z" fill="#263238"/>
<path d="M336.238 207.167C336.238 207.167 347.733 271.82 349.506 288.015C350.746 299.696 353.573 341.446 352.433 354.702L418.041 331.874C418.041 331.874 413.379 296.645 397.445 271.647C381.325 246.425 361.894 222.493 354.689 216.306C342.314 205.666 336.238 207.167 336.238 207.167Z" fill="#40D0B9"/>
<g opacity="0.1">
<path d="M359.265 298.84C361.584 299.683 363.928 300.588 366.184 301.605C368.441 302.622 370.4 303.502 372.546 304.346C374.643 305.184 376.798 305.872 378.994 306.404C381.231 306.907 383.521 307.14 385.814 307.098C385.9 307.098 385.938 307.235 385.814 307.26C378.77 309.107 371.306 305.784 365.168 302.634C363.097 301.568 361.051 300.402 359.042 299.2C358.994 299.17 358.96 299.123 358.947 299.068C358.935 299.013 358.944 298.956 358.974 298.908C359.003 298.861 359.051 298.827 359.105 298.814C359.16 298.801 359.217 298.81 359.265 298.84Z" fill="black"/>
<path d="M360.17 301.791C363.098 303.784 366.213 305.486 369.47 306.875C372.706 308.164 376.081 309.071 379.527 309.578C381.523 309.876 383.544 310.05 385.566 310.149C385.592 310.149 385.617 310.159 385.636 310.178C385.654 310.196 385.665 310.222 385.665 310.248C385.665 310.274 385.654 310.3 385.636 310.318C385.617 310.337 385.592 310.347 385.566 310.347C378.334 311.36 370.98 309.726 364.858 305.747C363.11 304.667 361.499 303.381 360.059 301.915C360.051 301.908 360.044 301.899 360.039 301.889C360.035 301.879 360.032 301.869 360.031 301.858C360.031 301.847 360.032 301.836 360.036 301.825C360.04 301.815 360.045 301.806 360.053 301.797C360.06 301.789 360.069 301.783 360.079 301.778C360.089 301.773 360.099 301.77 360.11 301.77C360.121 301.769 360.132 301.771 360.142 301.775C360.153 301.778 360.162 301.784 360.17 301.791Z" fill="black"/>
<path d="M361.323 305.524C362.76 310.459 364.469 315.311 366.444 320.056C367.133 321.644 368.133 323.077 369.383 324.272C372.058 326.335 375.298 327.534 378.671 327.707C381.659 327.955 385.218 327.41 387.177 324.905C388.417 323.38 388.095 321.396 387.921 319.598C387.725 317.381 387.352 315.183 386.805 313.026C386.805 313.006 386.813 312.987 386.827 312.973C386.841 312.959 386.86 312.951 386.88 312.951C386.899 312.951 386.918 312.959 386.932 312.973C386.946 312.987 386.954 313.006 386.954 313.026C387.537 314.96 388.095 316.894 388.504 318.878C389.078 320.666 389.18 322.571 388.802 324.409C387.748 327.596 384.226 329.046 381.126 329.369C379.197 329.497 377.261 329.3 375.397 328.786C373.632 328.361 371.936 327.684 370.363 326.777C368.899 325.783 367.637 324.521 366.643 323.057C364.981 320.875 361.683 310.36 361.249 305.635C361.212 305.486 361.299 305.449 361.323 305.524Z" fill="black"/>
</g>
<path d="M335.792 209.3C335.991 210.713 333.201 221.7 326.79 223.287C323.467 224.093 321.036 213.652 321.036 213.652L320.565 212.933L313.881 203.013L323.491 189.807L324.917 187.996C324.917 187.996 326.567 190.848 328.637 194.407C328.737 194.568 328.823 194.73 328.923 194.916L329.27 195.486C329.567 196.019 329.89 196.552 330.187 197.098C330.485 197.644 330.646 197.916 330.869 198.338L331.564 199.64C333.186 202.763 334.598 205.989 335.792 209.3Z" fill="#EB9481"/>
<path d="M328.6 194.382C328.7 197.879 328.034 201.355 326.651 204.568C325.267 207.781 323.198 210.652 320.589 212.982L313.906 203.062L323.516 189.856L324.942 188.046C324.942 188.046 326.566 190.824 328.6 194.382Z" fill="#263238"/>
<path d="M294.673 180.556C288.263 200.595 299.534 206.696 303.862 208.072C307.78 209.312 321.296 213.032 329.753 193.812C338.21 174.592 330.906 165.23 322.077 161.894C313.249 158.559 301.084 160.518 294.673 180.556Z" fill="#EB9481"/>
<path d="M297.6 180.606C298.059 180.445 298.518 180.37 299.001 180.246C299.476 180.048 300.004 180.013 300.502 180.147C300.651 180.219 300.773 180.338 300.847 180.486C300.921 180.634 300.943 180.803 300.911 180.966C300.806 181.283 300.616 181.566 300.363 181.785C300.11 182.003 299.802 182.148 299.472 182.206C298.826 182.422 298.122 182.387 297.501 182.106C297.353 182.038 297.23 181.926 297.147 181.786C297.064 181.646 297.025 181.485 297.036 181.322C297.047 181.16 297.106 181.005 297.207 180.877C297.308 180.749 297.445 180.655 297.6 180.606Z" fill="#263238"/>
<path d="M312.604 182.888C312.202 182.631 311.789 182.395 311.364 182.181C310.952 181.865 310.444 181.698 309.925 181.71C309.765 181.742 309.62 181.826 309.512 181.95C309.404 182.073 309.34 182.228 309.33 182.392C309.357 182.721 309.472 183.037 309.664 183.305C309.857 183.574 310.118 183.785 310.421 183.917C310.988 184.29 311.674 184.436 312.343 184.326C312.492 184.287 312.626 184.207 312.731 184.094C312.835 183.981 312.905 183.841 312.932 183.69C312.96 183.539 312.943 183.383 312.885 183.241C312.827 183.099 312.729 182.976 312.604 182.888Z" fill="#263238"/>
<path d="M308.661 185.777C308.661 185.777 308.76 185.876 308.748 185.926C308.363 187.302 308.152 188.951 309.293 189.72C309.293 189.72 309.293 189.819 309.293 189.794C307.78 189.212 308.078 187.029 308.661 185.777Z" fill="#263238"/>
<path d="M310.26 184.624C312.542 185.008 311.624 189.584 309.504 189.187C307.384 188.79 308.351 184.314 310.26 184.624Z" fill="#263238"/>
<path d="M311.104 185.045C311.451 185.38 311.748 185.913 312.207 186.062C312.666 186.211 313.261 185.839 313.72 185.454C313.72 185.454 313.794 185.454 313.782 185.516C313.621 186.397 313.112 187.215 312.145 187.153C311.178 187.091 310.818 186.211 310.781 185.293C310.781 185.12 310.967 184.909 311.104 185.045Z" fill="#263238"/>
<path d="M300.514 184.301C300.514 184.301 300.39 184.301 300.377 184.4C300.167 185.814 299.671 187.401 298.307 187.637V187.711C299.906 187.786 300.526 185.678 300.514 184.301Z" fill="#263238"/>
<path d="M299.522 182.59C297.29 181.995 296.273 186.508 298.282 187.054C300.291 187.6 301.394 183.086 299.522 182.59Z" fill="#263238"/>
<path d="M298.592 182.627C298.133 182.801 297.65 183.16 297.166 183.098C296.682 183.036 296.298 182.466 296.038 181.92C296.038 181.92 295.963 181.92 295.951 181.92C295.784 182.318 295.776 182.765 295.928 183.168C296.08 183.572 296.381 183.902 296.769 184.09C297.588 184.388 298.369 183.768 298.778 182.95C298.84 182.838 298.766 182.565 298.592 182.627Z" fill="#263238"/>
<path d="M307.867 197.52C307.508 197.83 307.148 198.276 306.627 198.301C306.094 198.263 305.575 198.115 305.102 197.867C305.102 197.867 305.015 197.867 305.04 197.941C305.231 198.23 305.497 198.463 305.809 198.613C306.121 198.764 306.468 198.827 306.813 198.797C307.123 198.744 307.409 198.597 307.631 198.375C307.854 198.153 308.001 197.867 308.053 197.557C308.028 197.507 307.917 197.47 307.867 197.52Z" fill="#263238"/>
<path d="M301.915 190.873C301.915 190.873 301.394 192.994 301.295 194.01C301.295 194.11 301.518 194.184 301.865 194.234C302.721 194.479 303.628 194.485 304.487 194.251C305.346 194.017 306.125 193.552 306.739 192.907C306.751 192.887 306.756 192.864 306.754 192.84C306.752 192.817 306.743 192.795 306.728 192.777C306.713 192.76 306.693 192.747 306.67 192.741C306.648 192.736 306.624 192.737 306.602 192.746C305.217 193.5 303.625 193.787 302.064 193.564C302.064 193.279 303.068 189.956 302.919 189.931C302.121 189.916 301.324 190.012 300.551 190.216C301.506 185.764 303.155 181.536 304.035 177.06C304.035 176.898 303.837 176.824 303.775 176.96C301.882 181.474 300.436 186.163 299.46 190.96C299.323 191.555 301.493 190.96 301.915 190.873Z" fill="#263238"/>
<g opacity="0.2">
<path d="M306.763 176.08C305.989 176.049 305.218 175.962 304.457 175.82C303.688 175.658 302.957 175.336 302.188 175.175C300.716 174.963 299.219 175.004 297.761 175.299C297.637 175.299 297.637 175.398 297.761 175.386C299.301 175.131 300.878 175.207 302.386 175.609C303.586 176.032 304.837 176.291 306.106 176.378C309.041 176.308 311.921 177.177 314.327 178.858C312.136 177.205 309.504 176.238 306.763 176.08Z" fill="black"/>
<path d="M307.185 174.084C306.453 174.061 305.723 173.982 305.003 173.848C304.271 173.674 303.589 173.377 302.857 173.228C301.46 173.022 300.037 173.064 298.654 173.352C298.53 173.352 298.542 173.439 298.654 173.426C300.115 173.186 301.612 173.257 303.043 173.637C304.19 174.047 305.388 174.293 306.602 174.369C309.376 174.301 312.1 175.108 314.389 176.675C312.299 175.115 309.791 174.213 307.185 174.084Z" fill="black"/>
</g>
<path opacity="0.2" d="M306.875 191.047C306.621 192.018 306.621 193.039 306.875 194.01C307.124 194.99 307.544 195.917 308.115 196.751C308.663 197.589 309.322 198.348 310.074 199.008L311.24 199.925C311.662 200.186 312.071 200.458 312.48 200.694C311.748 200.024 311.029 199.38 310.36 198.685C309.7 197.991 309.102 197.24 308.574 196.441C308.051 195.647 307.634 194.788 307.334 193.886C307.006 192.977 306.85 192.014 306.875 191.047Z" fill="black"/>
<path opacity="0.2" d="M301.866 190.96C301.396 192.18 300.823 193.358 300.154 194.482C299.816 195.022 299.425 195.529 298.989 195.994C298.528 196.468 298.012 196.884 297.451 197.234C298.123 197.087 298.751 196.786 299.286 196.354C299.819 195.92 300.276 195.4 300.638 194.816C301 194.239 301.288 193.618 301.494 192.969C301.706 192.319 301.831 191.643 301.866 190.96Z" fill="black"/>
<path d="M326.963 194.581C323.094 194.06 324.421 185.231 324.421 185.231C324.421 185.231 309.194 178.275 311.302 164.932C307.887 169.682 302.769 172.93 297.017 173.997C297.017 173.997 301.357 159.923 313.385 160.158C313.385 160.158 328.736 158.794 333.659 172C338.582 185.206 329.555 194.928 326.963 194.581Z" fill="#C7C7C7"/>
<path d="M311.5 163.965C310.778 165.918 310.482 168.002 310.632 170.078C310.744 172.182 311.293 174.238 312.244 176.117C312.477 176.59 312.743 177.045 313.038 177.481L313.447 178.151L313.931 178.771C314.266 179.18 314.588 179.589 314.935 180.011L316.076 181.077C316.274 181.251 316.46 181.437 316.659 181.598L317.291 182.057L318.531 182.974C319.424 183.495 320.342 183.979 321.259 184.438C320.441 183.793 319.585 183.198 318.779 182.602L317.626 181.61L317.056 181.114C316.87 180.941 316.708 180.742 316.535 180.556C316.2 180.184 315.865 179.812 315.506 179.465C315.146 179.118 314.91 178.659 314.6 178.225L314.154 177.63L313.77 176.985C313.504 176.585 313.259 176.172 313.038 175.745C312.143 173.955 311.556 172.027 311.302 170.041C311.172 169.042 311.122 168.035 311.153 167.028C311.181 165.999 311.297 164.974 311.5 163.965Z" fill="#C7C7C7"/>
<path d="M323.937 191.146C323.937 191.146 329.865 185.752 332.407 188.009C334.949 190.266 329.48 198.784 325.785 199.28C325.315 199.379 324.83 199.381 324.359 199.286C323.889 199.191 323.442 199.002 323.047 198.729C322.651 198.457 322.315 198.107 322.059 197.701C321.803 197.295 321.632 196.841 321.557 196.366L323.937 191.146Z" fill="#EB9481"/>
<path d="M330.782 190.414V190.514C328.166 190.935 326.405 192.87 325.004 194.965C325.198 194.759 325.434 194.596 325.696 194.49C325.958 194.383 326.24 194.335 326.523 194.348C326.806 194.361 327.083 194.435 327.334 194.565C327.586 194.695 327.806 194.878 327.98 195.102C327.98 195.102 327.98 195.238 327.893 195.213C327.508 194.991 327.063 194.893 326.62 194.93C326.177 194.968 325.756 195.14 325.413 195.424C324.837 195.914 324.313 196.462 323.851 197.061C323.69 197.259 323.33 197.061 323.466 196.825C324.099 193.713 327.434 189.98 330.782 190.414Z" fill="#263238"/>
<path d="M326.914 198.784C326.855 199.108 326.701 199.406 326.472 199.642C326.244 199.878 325.95 200.04 325.629 200.11C325.308 200.179 324.974 200.151 324.668 200.03C324.363 199.91 324.1 199.701 323.913 199.431C323.726 199.161 323.623 198.842 323.618 198.513C323.612 198.185 323.704 197.862 323.882 197.586C324.06 197.31 324.316 197.092 324.617 196.961C324.918 196.83 325.251 196.792 325.575 196.85C326.007 196.932 326.391 197.18 326.641 197.542C326.892 197.904 326.99 198.351 326.914 198.784Z" fill="#40D0B9"/>
<path d="M320.8 213.28L325.872 221.551L335.234 207.142L339.375 210.056C339.375 210.056 330.956 231.446 330.695 230.628L325.735 223.299L321.346 229.189L319.808 216.368L320.8 213.28Z" fill="#EBEBEB"/>
<path d="M319.684 216.566C319.684 216.479 319.808 216.405 319.833 216.504C320.577 218.984 321.581 228.817 321.594 228.805C321.755 228.507 325.636 223.274 325.698 223.336C327.509 225.491 329.206 227.738 330.782 230.07C331.824 226.722 337.59 214.408 338.978 211.135C338.978 211.036 339.164 211.073 339.14 211.135C338.346 214.607 331.129 231.359 330.981 231.347C330.832 231.334 326.38 224.986 325.636 223.758C325.066 224.998 321.259 230.256 321.16 229.958C320.478 227.714 319.982 218.885 319.684 216.566Z" fill="#263238"/>
<path d="M260.772 575.261H269.737V327.36C269.681 325.491 270.001 323.629 270.678 321.886C271.355 320.142 272.375 318.552 273.678 317.21C274.981 315.868 276.539 314.801 278.262 314.073C279.984 313.344 281.835 312.969 283.706 312.969C285.576 312.969 287.427 313.344 289.15 314.073C290.872 314.801 292.431 315.868 293.733 317.21C295.036 318.552 296.056 320.142 296.733 321.886C297.41 323.629 297.73 325.491 297.674 327.36V342.352H306.627V327.36C306.627 321.276 304.21 315.441 299.908 311.139C295.606 306.837 289.771 304.42 283.687 304.42C277.603 304.42 271.768 306.837 267.466 311.139C263.164 315.441 260.747 321.276 260.747 327.36L260.772 575.261Z" fill="#40D0B9"/>
<path opacity="0.3" d="M260.772 575.261H269.737V327.36C269.681 325.491 270.001 323.629 270.678 321.886C271.355 320.142 272.375 318.552 273.678 317.21C274.981 315.868 276.539 314.801 278.262 314.073C279.984 313.344 281.835 312.969 283.706 312.969C285.576 312.969 287.427 313.344 289.15 314.073C290.872 314.801 292.431 315.868 293.733 317.21C295.036 318.552 296.056 320.142 296.733 321.886C297.41 323.629 297.73 325.491 297.674 327.36V342.352H306.627V327.36C306.627 321.276 304.21 315.441 299.908 311.139C295.606 306.837 289.771 304.42 283.687 304.42C277.603 304.42 271.768 306.837 267.466 311.139C263.164 315.441 260.747 321.276 260.747 327.36L260.772 575.261Z" fill="black"/>
<path d="M258.999 575.261H271.523L270.506 561.373H260.139L258.999 575.261Z" fill="#40D0B9"/>
<path d="M351.155 220.509C356.562 242.321 359.835 283.179 356.475 290.458C353.474 296.906 327.409 308.041 315.456 312.009C310.979 313.497 301.258 278.43 306.081 276.942C311.86 275.144 328.736 269.254 329.307 267.766C329.877 266.278 333.324 238.564 337.168 221.154C340.64 205.356 349.109 212.251 351.155 220.509Z" fill="#EB9481"/>
<path d="M290.16 280.6C279.856 284.518 277.822 287.097 267.369 285.795C260.512 284.927 257.015 288.945 262.917 293.049C272.564 299.77 286.911 297.513 291.673 295.294L290.16 280.6Z" fill="#EB9481"/>
<path d="M320.614 275.863C320.614 275.863 306.59 275.788 295.194 278.876C287.32 281.009 270.692 287.556 264.194 311.116C262.657 316.696 264.43 325.723 270.233 317.527C274.362 311.699 275.193 306.764 278.231 303.887C278.231 303.887 281.852 315.047 287.494 316.411C292.456 317.522 297.491 318.28 302.56 318.68C302.847 317.773 303.079 316.85 303.254 315.915C303.254 315.915 308.636 316.646 315.481 311.996L320.614 275.863Z" fill="#EB9481"/>
<path d="M288.002 282.112C285.622 285.671 280.724 293.272 278.876 300.936C276.83 309.417 275.156 326.306 281.455 327.757C286.056 328.811 287.258 322.425 287.258 322.425C287.258 322.425 288.04 329.542 292.404 329.592C296.385 329.592 297.017 324.632 297.017 324.632C297.017 324.632 298.257 328.873 302.076 328.178C306.702 327.335 303.316 318.593 307.334 313.695C308.214 312.616 288.002 282.112 288.002 282.112Z" fill="#EB9481"/>
<path d="M288.201 301.605C285.743 308.233 285.366 315.453 287.122 322.301C287.122 322.474 287.333 322.524 287.32 322.363C286.794 315.438 287.118 308.475 288.288 301.63L288.201 301.605Z" fill="#263238"/>
<path d="M296.707 303.924C295.579 307.272 294.301 317.056 296.856 324.644C296.856 324.818 297.079 324.855 297.054 324.644C296.181 317.758 296.089 310.794 296.781 303.887C296.781 303.887 296.719 303.874 296.707 303.924Z" fill="#263238"/>
<path d="M288.312 281.344C283.241 283.613 278.045 286.304 272.366 286.415C268.795 286.316 264.827 285.336 261.466 286.688C257.746 289.168 263.066 293.26 265.484 294.488C267.099 295.403 268.836 296.084 270.642 296.509C268.799 296.18 267.013 295.592 265.335 294.76C262.483 293.52 256.978 289.019 261.194 286.192C264.74 284.679 268.708 285.708 272.354 285.857C277.884 285.783 283.129 283.278 288.263 281.344H288.312Z" fill="#263238"/>
<path d="M273.457 292.64C269.56 297.973 266.623 303.944 264.777 310.285C264.175 312.361 263.936 314.526 264.07 316.684C264.579 321.272 267.183 321.21 269.551 317.725C272.515 313.1 274.337 307.805 277.921 303.49L278.901 302.25C277.772 308.822 276.644 315.617 277.661 322.276C278.045 324.235 278.69 326.492 280.624 327.422C279.654 327.004 278.866 326.252 278.405 325.302C275.553 318.668 276.917 310.62 277.847 303.651L278.566 303.986C276.003 307.542 273.813 311.352 272.031 315.357C271.115 317.461 269.671 319.294 267.84 320.676C265.013 322.375 263.376 319.139 263.264 316.746C263.078 307.855 268.224 299.51 273.42 292.628L273.457 292.64Z" fill="#263238"/>
<path d="M321.036 315.94L306.714 275.602L328.166 267.084C330.336 253.642 334.688 226.759 337.59 217.694C340.987 207.055 348.601 208.717 351.738 219.654C358.918 244.677 360.716 286.812 357.938 292.69C353.958 301.122 321.036 315.94 321.036 315.94Z" fill="#40D0B9"/>
<path d="M325.835 308.624C325.425 305.97 321.904 295.467 320.999 292.851C320.093 290.234 316.039 279.918 315.171 277.239C315.171 277.09 314.885 277.128 314.935 277.239C315.828 279.893 319.002 290.557 319.895 293.173C320.788 295.79 324.421 306.23 325.711 308.624C325.748 308.76 325.859 308.76 325.835 308.624Z" fill="#263238"/>
<path d="M334.887 309.144C341.425 305.534 347.684 301.439 353.611 296.893C355.055 295.792 356.311 294.465 357.331 292.962C359.241 287.854 358.571 281.951 358.571 276.545C357.889 261.665 356.153 246.785 354.603 231.905C355.979 239.258 357.083 246.673 357.951 254.101C358.819 261.528 359.538 268.981 359.724 276.495C359.724 282.112 360.295 288.002 358.025 293.334C354.603 297.96 349.345 300.626 344.671 303.664C341.455 305.581 338.189 307.404 334.875 309.132L334.887 309.144Z" fill="#263238"/>
<path d="M355.57 238.254C355.543 236.842 355.597 235.43 355.731 234.025C356.006 235.428 355.951 236.876 355.57 238.254Z" fill="#263238"/>
<path d="M333.3 238.291C331.787 247.616 330.956 257.412 328.848 266.625C328.749 266.947 328.625 267.381 328.278 267.542C321.247 270.742 314.005 273.122 306.726 275.652V275.59L307.036 276.619L306.64 275.615C310.682 273.916 314.749 272.279 318.804 270.655C320.838 269.75 326.132 267.852 327.856 266.786C330.1 257.424 330.968 247.727 333.287 238.365L333.3 238.291Z" fill="#263238"/>
<path d="M332.109 239.432C332.308 240.833 332.42 242.245 332.444 243.66C332.005 242.296 331.891 240.848 332.109 239.432Z" fill="#263238"/>
<path d="M474.238 357.281H364.522V399.578H474.238V357.281Z" fill="#A6A6A6"/>
<path d="M456.32 501.32H364.56V496H456.32C460.312 495.997 464.139 494.41 466.961 491.587C469.783 488.765 471.37 484.938 471.374 480.946V263.289C471.38 257.891 473.527 252.716 477.344 248.899C481.161 245.082 486.336 242.935 491.734 242.928H504.134V248.236H491.734C487.743 248.239 483.916 249.826 481.094 252.648C478.271 255.471 476.684 259.298 476.681 263.289V480.959C476.674 486.357 474.527 491.532 470.71 495.349C466.893 499.166 461.718 501.313 456.32 501.32Z" fill="#C7C7C7"/>
<path d="M367.176 556.128H361.881V331.526C361.888 326.668 363.821 322.01 367.257 318.574C370.692 315.139 375.35 313.206 380.209 313.199H474.027V318.494H380.209C376.753 318.497 373.44 319.871 370.997 322.315C368.554 324.758 367.179 328.071 367.176 331.526V556.128Z" fill="#C7C7C7"/>
<path d="M520.527 240.126H487.692V250.666H520.527V240.126Z" fill="#263238"/>
<path d="M465.732 572.632C424.812 572.632 391.604 531.129 391.604 480.103C391.604 429.077 424.861 387.574 465.732 387.574C506.602 387.574 539.871 429.09 539.871 480.103C539.871 531.117 506.614 572.632 465.732 572.632ZM465.732 394.99C428.953 394.99 399.02 433.169 399.02 480.103C399.02 527.037 428.953 565.217 465.732 565.217C502.51 565.217 532.456 527 532.456 480.103C532.456 433.206 502.522 394.99 465.732 394.99Z" fill="#263238"/>
<path d="M471.584 562.129C435.426 562.129 406 525.338 406 480.103C406 434.868 435.426 398.04 471.584 398.04C507.742 398.04 537.18 434.843 537.18 480.066C537.18 525.289 507.755 562.129 471.584 562.129ZM471.584 403.409C438.34 403.409 411.295 437.819 411.295 480.128C411.295 522.437 438.34 556.859 471.584 556.859C504.828 556.859 531.873 522.437 531.873 480.128C531.873 437.819 504.828 403.384 471.584 403.384V403.409Z" fill="#C7C7C7"/>
<path d="M469.08 493.508C474.956 493.508 479.719 487.506 479.719 480.103C479.719 472.7 474.956 466.699 469.08 466.699C463.204 466.699 458.44 472.7 458.44 480.103C458.44 487.506 463.204 493.508 469.08 493.508Z" fill="#C7C7C7"/>
<path d="M472.489 493.508C478.365 493.508 483.129 487.506 483.129 480.103C483.129 472.7 478.365 466.699 472.489 466.699C466.613 466.699 461.85 472.7 461.85 480.103C461.85 487.506 466.613 493.508 472.489 493.508Z" fill="#C7C7C7"/>
<path d="M363.37 575.174C371.012 575.174 377.208 567.363 377.208 557.727C377.208 548.092 371.012 540.28 363.37 540.28C355.727 540.28 349.531 548.092 349.531 557.727C349.531 567.363 355.727 575.174 363.37 575.174Z" fill="#C7C7C7"/>
<path d="M367.809 575.174C375.451 575.174 381.647 567.363 381.647 557.727C381.647 548.092 375.451 540.28 367.809 540.28C360.166 540.28 353.97 548.092 353.97 557.727C353.97 567.363 360.166 575.174 367.809 575.174Z" fill="#C7C7C7"/>
<path d="M242.135 139.19C242.125 144.024 243.461 148.765 245.993 152.883C248.525 157 252.153 160.332 256.471 162.505C260.789 164.677 265.627 165.605 270.442 165.184C275.258 164.763 279.861 163.01 283.737 160.121L296.509 163.382L291.189 151.491C293.227 147.712 294.288 143.483 294.277 139.19C294.277 132.284 291.533 125.66 286.65 120.777C281.766 115.894 275.143 113.15 268.237 113.15C261.331 113.15 254.707 115.894 249.824 120.777C244.94 125.66 242.197 132.284 242.197 139.19H242.135Z" fill="white"/>
<path d="M242.135 139.19C242.234 160.382 266.538 172.583 283.477 159.774L283.638 159.65H283.849L296.645 162.812L296.013 163.556L290.644 151.689L290.532 151.416L290.669 151.156C298.505 136.809 290.334 118.172 274.462 114.204C258.342 109.777 242.061 122.487 242.135 139.14V139.19ZM242.135 139.19C242.135 117.019 268.175 104.78 285.287 118.904C294.81 126.579 297.749 141.062 291.722 151.776V151.28L296.993 163.196L297.451 164.238L296.36 163.953L283.613 160.592L283.985 160.518C280.023 163.394 275.339 165.111 270.457 165.478C255.515 166.792 241.936 154.231 242.122 139.202L242.135 139.19Z" fill="#263238"/>
<path d="M254.535 145.08C258.186 149.938 262.837 153.955 268.175 156.86C273.514 153.958 278.166 149.94 281.815 145.08C286.589 138.744 286.353 128.836 279.521 126.691C271.957 124.322 268.237 135.706 268.237 135.706C268.237 135.706 264.517 124.248 256.94 126.691C250.021 128.861 249.761 138.694 254.535 145.08Z" fill="#40D0B9"/>
<path d="M273.457 151.813L275.516 143.22L276.867 146.246H285.2V145.278H277.5L275.243 140.219L273.643 146.915L271.362 133.04L269.353 144.014L267.778 139.438L265.273 146.94L264.715 145.278H251.038V146.246H264.021L265.273 149.99L267.79 142.451L269.65 147.82L271.312 138.719L273.457 151.813Z" fill="white"/>
</svg>
