<svg width="620" height="620" viewBox="0 0 620 620" fill="none" xmlns="http://www.w3.org/2000/svg">
<path d="M589.98 378.776C573.252 435.133 537.205 496.92 484.146 517.028C403.992 547.433 396.8 620.494 251.361 619.997C230.122 620.03 208.943 617.502 188.195 612.458C178.051 609.952 168.061 606.729 158.286 602.811C72.1062 568.258 24.9242 486.087 18.1662 398.279C9.30024 282.781 80.005 224.523 126.046 190.163C172.087 155.803 224.663 28.2873 367.685 27.5293C389.518 27.3117 411.3 29.897 432.599 35.2337C481.157 47.6379 531.129 77.5046 561.15 123.028C563.394 126.446 565.552 129.919 567.635 133.53C608.171 203.587 612.796 301.925 589.98 378.776Z" fill="#40D0B9"/>
<path opacity="0.7" d="M589.98 378.776C573.252 435.133 537.205 496.92 484.146 517.028C403.992 547.433 396.8 620.494 251.361 619.997C230.122 620.03 208.943 617.502 188.195 612.458C178.051 609.952 168.061 606.729 158.286 602.811C72.1062 568.258 24.9242 486.087 18.1662 398.279C9.30024 282.781 80.005 224.523 126.046 190.163C172.087 155.803 224.663 28.2873 367.685 27.5293C389.518 27.3117 411.3 29.897 432.599 35.2337C481.157 47.6379 531.129 77.5046 561.15 123.028C563.394 126.446 565.552 129.919 567.635 133.53C608.171 203.587 612.796 301.925 589.98 378.776Z" fill="white"/>
<path d="M377.184 72.4904V498.579C377.184 504.196 374.952 509.583 370.98 513.555C367.008 517.527 361.621 519.758 356.004 519.758H171.889C166.272 519.758 160.885 517.527 156.913 513.555C152.941 509.583 150.71 504.196 150.71 498.579V72.478C150.71 66.8642 152.94 61.4804 156.91 57.5108C160.879 53.5413 166.263 51.3112 171.877 51.3112H250.902L250.976 51.5468C252.96 58.6396 257.474 63.24 262.508 63.24H265.36C270.395 63.24 274.921 58.6272 276.892 51.5344L276.979 51.2988H356.004C358.787 51.2988 361.542 51.8471 364.112 52.9122C366.683 53.9773 369.018 55.5385 370.985 57.5065C372.952 59.4744 374.511 61.8107 375.575 64.3817C376.639 66.9527 377.185 69.7081 377.184 72.4904Z" fill="white"/>
<path d="M356.004 520.378H171.889C169.023 520.382 166.184 519.82 163.535 518.727C160.886 517.633 158.479 516.028 156.45 514.004C154.421 511.98 152.811 509.576 151.711 506.929C150.611 504.282 150.043 501.445 150.04 498.579V72.478C150.047 66.7018 152.344 61.164 156.428 57.0796C160.513 52.9952 166.051 50.6977 171.827 50.6912H251.323L251.522 51.3856C253.419 58.218 257.722 62.6324 262.458 62.6324H265.36C270.109 62.6324 274.4 58.218 276.297 51.3856L276.52 50.6912H356.004C361.784 50.6977 367.324 52.9965 371.411 57.0832C375.498 61.17 377.797 66.7109 377.803 72.4904V498.579C377.797 504.359 375.498 509.9 371.411 513.986C367.324 518.073 361.784 520.372 356.004 520.378ZM171.876 51.9312C169.175 51.9279 166.499 52.4568 164.002 53.4876C161.505 54.5184 159.235 56.031 157.323 57.9389C155.41 59.8468 153.892 62.1128 152.855 64.6074C151.819 67.1021 151.283 69.7765 151.28 72.478V498.579C151.287 504.03 153.455 509.255 157.309 513.109C161.163 516.964 166.389 519.132 171.839 519.138H356.004C361.455 519.132 366.68 516.964 370.534 513.109C374.389 509.255 376.557 504.03 376.563 498.579V72.4904C376.557 67.0397 374.389 61.8142 370.534 57.9601C366.68 54.1059 361.455 51.9377 356.004 51.9312H277.462C275.379 59.1852 270.655 63.8724 265.385 63.8724H262.508C257.238 63.8724 252.514 59.1852 250.43 51.9312H171.876Z" fill="#263238"/>
<path d="M298.716 329.654H233.033C229.718 329.654 227.031 332.341 227.031 335.656V347.857C227.031 351.172 229.718 353.859 233.033 353.859H298.716C302.03 353.859 304.717 351.172 304.717 347.857V335.656C304.717 332.341 302.03 329.654 298.716 329.654Z" fill="#263238"/>
<path d="M298.704 354.479H232.984C231.229 354.475 229.546 353.777 228.305 352.536C227.064 351.295 226.366 349.612 226.362 347.857V335.656C226.362 333.899 227.06 332.215 228.302 330.973C229.544 329.732 231.228 329.034 232.984 329.034H298.704C300.461 329.034 302.147 329.731 303.39 330.973C304.634 332.214 305.335 333.898 305.338 335.656V347.857C305.335 349.614 304.634 351.299 303.39 352.54C302.147 353.781 300.461 354.479 298.704 354.479ZM232.984 330.274C231.557 330.274 230.188 330.841 229.179 331.85C228.169 332.859 227.602 334.228 227.602 335.656V347.857C227.606 349.283 228.174 350.65 229.182 351.659C230.191 352.667 231.558 353.235 232.984 353.239H298.704C300.132 353.239 301.502 352.672 302.514 351.663C303.525 350.654 304.095 349.286 304.098 347.857V335.656C304.098 334.948 303.958 334.247 303.687 333.593C303.416 332.939 303.018 332.346 302.517 331.846C302.016 331.346 301.422 330.95 300.767 330.68C300.113 330.41 299.412 330.272 298.704 330.274H232.984Z" fill="#263238"/>
<path d="M150.71 387.202V498.579C150.71 504.196 152.941 509.583 156.913 513.555C160.885 517.527 166.272 519.758 171.889 519.758H356.004C361.621 519.758 367.008 517.527 370.98 513.555C374.952 509.583 377.184 504.196 377.184 498.579V387.202H150.71Z" fill="#DBDBDB"/>
<path d="M356.004 520.378H171.889C169.023 520.382 166.184 519.82 163.535 518.727C160.886 517.633 158.479 516.028 156.45 514.004C154.421 511.98 152.811 509.576 151.711 506.929C150.611 504.282 150.043 501.445 150.04 498.579V387.202C150.04 387.038 150.105 386.88 150.222 386.764C150.338 386.648 150.496 386.582 150.66 386.582H377.183C377.348 386.582 377.505 386.648 377.622 386.764C377.738 386.88 377.803 387.038 377.803 387.202V498.579C377.797 504.359 375.498 509.9 371.411 513.986C367.324 518.073 361.784 520.372 356.004 520.378ZM151.28 387.822V498.579C151.287 504.03 153.455 509.255 157.309 513.109C161.163 516.964 166.389 519.132 171.839 519.138H356.004C361.455 519.132 366.68 516.964 370.534 513.109C374.389 509.255 376.557 504.03 376.563 498.579V387.822H151.28Z" fill="#263238"/>
<path d="M219.678 400.644H163.221C161.666 400.644 160.406 401.904 160.406 403.459V418.686C160.406 420.241 161.666 421.501 163.221 421.501H219.678C221.233 421.501 222.493 420.241 222.493 418.686V403.459C222.493 401.904 221.233 400.644 219.678 400.644Z" fill="white"/>
<path d="M289.168 400.644H232.71C231.156 400.644 229.896 401.904 229.896 403.459V418.686C229.896 420.241 231.156 421.501 232.71 421.501H289.168C290.722 421.501 291.982 420.241 291.982 418.686V403.459C291.982 401.904 290.722 400.644 289.168 400.644Z" fill="white"/>
<path d="M358.645 400.644H302.188C300.633 400.644 299.373 401.904 299.373 403.459V418.686C299.373 420.241 300.633 421.501 302.188 421.501H358.645C360.2 421.501 361.46 420.241 361.46 418.686V403.459C361.46 401.904 360.2 400.644 358.645 400.644Z" fill="white"/>
<path d="M219.678 427.304H163.221C161.666 427.304 160.406 428.564 160.406 430.119V445.346C160.406 446.901 161.666 448.161 163.221 448.161H219.678C221.233 448.161 222.493 446.901 222.493 445.346V430.119C222.493 428.564 221.233 427.304 219.678 427.304Z" fill="white"/>
<path d="M289.168 427.304H232.71C231.156 427.304 229.896 428.564 229.896 430.119V445.346C229.896 446.901 231.156 448.161 232.71 448.161H289.168C290.722 448.161 291.982 446.901 291.982 445.346V430.119C291.982 428.564 290.722 427.304 289.168 427.304Z" fill="white"/>
<path d="M358.645 427.304H302.188C300.633 427.304 299.373 428.564 299.373 430.119V445.346C299.373 446.901 300.633 448.161 302.188 448.161H358.645C360.2 448.161 361.46 446.901 361.46 445.346V430.119C361.46 428.564 360.2 427.304 358.645 427.304Z" fill="white"/>
<path d="M219.678 453.952H163.221C161.666 453.952 160.406 455.212 160.406 456.766V471.994C160.406 473.548 161.666 474.808 163.221 474.808H219.678C221.233 474.808 222.493 473.548 222.493 471.994V456.766C222.493 455.212 221.233 453.952 219.678 453.952Z" fill="white"/>
<path d="M289.168 453.952H232.71C231.156 453.952 229.896 455.212 229.896 456.766V471.994C229.896 473.548 231.156 474.808 232.71 474.808H289.168C290.722 474.808 291.982 473.548 291.982 471.994V456.766C291.982 455.212 290.722 453.952 289.168 453.952Z" fill="white"/>
<path d="M358.645 453.952H302.188C300.633 453.952 299.373 455.212 299.373 456.766V471.994C299.373 473.548 300.633 474.808 302.188 474.808H358.645C360.2 474.808 361.46 473.548 361.46 471.994V456.766C361.46 455.212 360.2 453.952 358.645 453.952Z" fill="white"/>
<path d="M289.168 480.612H232.71C231.156 480.612 229.896 481.872 229.896 483.426V498.654C229.896 500.208 231.156 501.468 232.71 501.468H289.168C290.722 501.468 291.982 500.208 291.982 498.654V483.426C291.982 481.872 290.722 480.612 289.168 480.612Z" fill="white"/>
<path d="M353.97 501.468H315.233L306.875 491.759L315.233 480.612H353.97V501.468Z" fill="white"/>
<path d="M266.427 147.808L265.869 147.386L265.311 147.808C265.311 147.808 236.791 164.04 223.895 170.202C223.895 170.202 230.095 204.922 234.521 220.571C238.948 236.22 256.358 244.64 265.869 250.232C275.392 244.64 292.739 236.245 297.216 220.571C301.692 204.898 307.855 170.202 307.855 170.202C294.971 164.04 266.427 147.808 266.427 147.808Z" fill="#40D0B9"/>
<path d="M262.942 214.904L244.019 198.685C243.586 198.315 243.23 197.863 242.972 197.355C242.713 196.847 242.557 196.293 242.513 195.724C242.424 194.577 242.794 193.441 243.542 192.566C244.29 191.691 245.355 191.149 246.503 191.06C247.65 190.97 248.786 191.34 249.661 192.088L262.061 202.728L283.315 178.56C284.075 177.695 285.147 177.167 286.295 177.093C287.444 177.019 288.576 177.404 289.44 178.163C290.305 178.923 290.833 179.995 290.907 181.144C290.982 182.293 290.597 183.424 289.837 184.289L262.942 214.904Z" fill="white"/>
<path d="M191.977 269.613H166.234V295.356H191.977V269.613Z" fill="white"/>
<path d="M192.609 295.976H165.614V268.993H192.609V295.976ZM166.854 294.736H191.369V270.233H166.854V294.736Z" fill="#263238"/>
<path d="M226.685 269.613H200.942V295.356H226.685V269.613Z" fill="white"/>
<path d="M227.305 295.976H200.322V268.993H227.305V295.976ZM201.562 294.736H226.065V270.233H201.562V294.736Z" fill="#263238"/>
<path d="M261.392 269.613H235.649V295.356H261.392V269.613Z" fill="white"/>
<path d="M262.012 295.976H235.029V268.993H262.012V295.976ZM236.269 294.736H260.772V270.233H236.269V294.736Z" fill="#263238"/>
<path d="M296.087 269.613H270.345V295.356H296.087V269.613Z" fill="white"/>
<path d="M296.719 295.976H269.725V268.993H296.719V295.976ZM270.965 294.736H295.479V270.233H270.965V294.736Z" fill="#263238"/>
<path d="M330.795 269.613H305.053V295.356H330.795V269.613Z" fill="white"/>
<path d="M331.415 295.976H304.433V268.993H331.415V295.976ZM305.673 294.736H330.175V270.233H305.673V294.736Z" fill="#263238"/>
<path d="M365.502 269.613H339.76V295.356H365.502V269.613Z" fill="white"/>
<path d="M366.122 295.976H339.14V268.993H366.122V295.976ZM340.38 294.736H364.882V270.233H340.38V294.736Z" fill="#263238"/>
<path d="M377.184 92.3056V72.4656C377.177 66.8529 374.943 61.4722 370.972 57.5057C367 53.5392 361.617 51.3112 356.004 51.3112H276.992L276.917 51.5468C274.946 58.6396 270.42 63.24 265.36 63.24H262.508C257.474 63.24 252.936 58.6272 250.976 51.5344L250.902 51.2988H171.877C166.263 51.2988 160.879 53.5289 156.91 57.4984C152.94 61.468 150.71 66.8518 150.71 72.4656V92.3056H377.184Z" fill="#DBDBDB"/>
<path d="M377.171 92.9255H150.71C150.545 92.9255 150.388 92.8602 150.271 92.7439C150.155 92.6277 150.09 92.47 150.09 92.3055V72.4655C150.096 66.6893 152.394 61.1516 156.478 57.0672C160.563 52.9828 166.1 50.6853 171.877 50.6787H250.902C251.038 50.6774 251.171 50.7219 251.279 50.8051C251.387 50.8883 251.464 51.0054 251.497 51.1375L251.571 51.3731C253.469 58.2055 257.771 62.6199 262.508 62.6199H265.36C270.109 62.6199 274.4 58.2055 276.297 51.3731L276.384 51.1127C276.421 50.9873 276.498 50.8772 276.603 50.799C276.708 50.7208 276.836 50.6786 276.967 50.6787H356.004C361.783 50.6853 367.322 52.9845 371.407 57.0716C375.492 61.1587 377.788 66.6996 377.791 72.4779V92.3179C377.788 92.4802 377.721 92.6347 377.605 92.7483C377.489 92.862 377.333 92.9256 377.171 92.9255ZM151.28 91.6855H376.551V72.4903C376.548 67.0409 374.382 61.8153 370.53 57.9608C366.678 54.1063 361.454 51.9377 356.004 51.9311H277.463C275.379 59.1851 270.655 63.8723 265.385 63.8723H262.508C257.238 63.8723 252.514 59.1851 250.431 51.9311H171.877C169.175 51.9279 166.499 52.4568 164.002 53.4876C161.505 54.5184 159.236 56.0309 157.323 57.9389C155.411 59.8468 153.892 62.1128 152.856 64.6074C151.819 67.102 151.283 69.7764 151.28 72.4779V91.6855Z" fill="#263238"/>
<path d="M391.58 174.257V131.7H387.723V77.2148C387.725 72.8041 386.858 68.4362 385.171 64.3608C383.484 60.2853 381.011 56.5821 377.893 53.4627C374.774 50.3433 371.072 47.8687 366.997 46.1804C362.922 44.4922 358.555 43.6232 354.144 43.6232H173.749C169.334 43.6183 164.962 44.4836 160.883 46.1695C156.803 47.8555 153.095 50.329 149.972 53.4488C146.849 56.5685 144.371 60.2733 142.681 64.3512C140.99 68.4292 140.12 72.8003 140.12 77.2148V510.161C140.12 514.572 140.989 518.939 142.677 523.014C144.366 527.089 146.84 530.791 149.96 533.909C153.079 537.028 156.782 539.501 160.858 541.187C164.933 542.874 169.301 543.742 173.712 543.74H354.144C358.554 543.742 362.922 542.874 366.996 541.187C371.071 539.5 374.773 537.027 377.892 533.909C381.01 530.79 383.484 527.088 385.171 523.013C386.858 518.938 387.725 514.571 387.723 510.161V210.527H391.58V185.38H387.723V174.22L391.58 174.257ZM377.183 486.167C377.183 495.076 373.644 503.62 367.345 509.92C361.045 516.219 352.501 519.758 343.592 519.758H184.301C175.392 519.758 166.848 516.219 160.548 509.92C154.249 503.62 150.71 495.076 150.71 486.167V84.8904C150.713 75.9835 154.254 67.4425 160.553 61.1456C166.852 54.8486 175.394 51.3112 184.301 51.3112H250.902L250.976 51.5468C252.96 58.6396 257.474 63.24 262.508 63.24H265.36C270.395 63.24 274.921 58.6272 276.892 51.5344L276.979 51.2988H343.567C352.474 51.2988 361.016 54.8362 367.315 61.1332C373.615 67.4301 377.155 75.9711 377.159 84.878L377.183 486.167Z" fill="#40D0B9"/>
<path d="M354.144 544.36H173.749C164.68 544.35 155.986 540.744 149.573 534.333C143.159 527.922 139.55 519.229 139.537 510.161V77.2148C139.55 68.1453 143.159 59.4511 149.572 53.038C155.985 46.6249 164.679 43.0163 173.749 43.0032H354.144C363.212 43.0163 371.905 46.6253 378.316 53.0388C384.727 59.4522 388.333 68.1465 388.343 77.2148V131.08H391.58C391.744 131.08 391.902 131.146 392.018 131.262C392.134 131.378 392.2 131.536 392.2 131.7V174.257C392.2 174.422 392.134 174.579 392.018 174.696C391.902 174.812 391.744 174.877 391.58 174.877H388.343V184.797H391.58C391.744 184.797 391.902 184.863 392.018 184.979C392.134 185.095 392.2 185.253 392.2 185.417V210.564C392.2 210.729 392.134 210.887 392.018 211.003C391.902 211.119 391.744 211.184 391.58 211.184H388.343V510.161C388.333 519.228 384.727 527.921 378.316 534.332C371.904 540.744 363.211 544.35 354.144 544.36ZM173.749 44.2432C165.007 44.253 156.626 47.73 150.445 53.9112C144.264 60.0924 140.787 68.4732 140.777 77.2148V510.161C140.787 518.901 144.264 527.281 150.446 533.46C156.627 539.639 165.008 543.113 173.749 543.12H354.144C362.882 543.11 371.26 539.634 377.439 533.456C383.618 527.277 387.093 518.899 387.103 510.161V210.527C387.103 210.363 387.168 210.205 387.285 210.089C387.401 209.973 387.559 209.907 387.723 209.907H390.96V186H387.723C387.56 185.997 387.404 185.93 387.288 185.815C387.173 185.699 387.106 185.543 387.103 185.38V174.22C387.103 174.056 387.168 173.898 387.285 173.782C387.401 173.665 387.559 173.6 387.723 173.6H390.96V132.32H387.723C387.56 132.317 387.404 132.251 387.288 132.135C387.173 132.02 387.106 131.864 387.103 131.7V77.2148C387.097 68.4743 383.622 60.0936 377.443 53.912C371.264 47.7304 362.884 44.253 354.144 44.2432H173.749ZM343.629 520.403H184.301C175.219 520.403 166.508 516.797 160.084 510.377C153.659 503.957 150.046 495.249 150.04 486.167V84.8904C150.053 75.8221 153.662 67.1291 160.075 60.718C166.489 54.3069 175.183 50.701 184.252 50.6912H250.852C250.989 50.6875 251.123 50.7312 251.231 50.8148C251.339 50.8983 251.416 51.0167 251.447 51.15L251.522 51.3856C253.419 58.218 257.722 62.6324 262.458 62.6324H265.36C270.109 62.6324 274.4 58.218 276.297 51.3856L276.384 51.1252C276.421 50.9997 276.498 50.8897 276.603 50.8115C276.708 50.7332 276.835 50.6911 276.966 50.6912H343.567C352.635 50.701 361.329 54.3069 367.743 60.718C374.156 67.1291 377.765 75.8221 377.778 84.8904V486.167C377.765 495.232 374.16 503.922 367.752 510.335C361.345 516.747 352.657 520.359 343.592 520.378L343.629 520.403ZM184.301 51.9312C175.552 51.9246 167.159 55.393 160.966 61.5737C154.774 67.7544 151.29 76.1413 151.28 84.8904V486.167C151.29 494.908 154.767 503.289 160.948 509.47C167.129 515.652 175.51 519.129 184.252 519.138H343.592C352.333 519.129 360.714 515.652 366.895 509.47C373.076 503.289 376.553 494.908 376.563 486.167V84.8904C376.553 76.1499 373.076 67.7705 366.894 61.5912C360.713 55.4119 352.332 51.9377 343.592 51.9312H277.462C275.379 59.1852 270.655 63.8724 265.385 63.8724H262.508C257.238 63.8724 252.514 59.1852 250.43 51.9312H184.301Z" fill="#263238"/>
<path d="M351.453 48.2484H176.44C167.857 48.2516 159.626 51.66 153.554 57.7253C147.482 63.7906 144.064 72.0174 144.051 80.6V506.726C144.051 515.316 147.463 523.554 153.537 529.628C159.611 535.702 167.85 539.115 176.44 539.115H351.453C360.043 539.115 368.281 535.702 374.356 529.628C380.43 523.554 383.842 515.316 383.842 506.726V80.6C383.829 72.0174 380.411 63.7906 374.339 57.7253C368.266 51.66 360.036 48.2516 351.453 48.2484ZM377.183 487.32C377.18 495.911 373.765 504.149 367.689 510.223C361.613 516.297 353.373 519.709 344.782 519.709H183.111C174.52 519.709 166.28 516.297 160.204 510.223C154.128 504.149 150.713 495.911 150.71 487.32V83.6875C150.71 79.4348 151.547 75.2237 153.175 71.2948C154.803 67.3659 157.189 63.7962 160.197 60.7896C163.205 57.783 166.775 55.3984 170.705 53.7721C174.634 52.1458 178.846 51.3095 183.098 51.3112H250.902L250.976 51.5468C252.96 58.6396 257.474 63.24 262.508 63.24H265.36C270.394 63.24 274.92 58.6272 276.892 51.5344L276.979 51.2988H344.757C349.015 51.2939 353.231 52.1284 357.166 53.7547C361.101 55.381 364.676 57.7671 367.688 60.7764C370.7 63.7858 373.088 67.3594 374.718 71.2929C376.347 75.2263 377.185 79.4424 377.183 83.7V487.32Z" fill="#263238"/>
<path d="M351.453 539.735H176.439C167.688 539.725 159.298 536.244 153.11 530.056C146.921 523.868 143.441 515.477 143.431 506.726V80.6C143.441 71.8485 146.921 63.4583 153.11 57.2701C159.298 51.0819 167.688 47.601 176.439 47.5912H351.453C360.205 47.601 368.595 51.0819 374.783 57.2701C380.971 63.4583 384.452 71.8485 384.462 80.6V506.726C384.452 515.477 380.971 523.868 374.783 530.056C368.595 536.244 360.205 539.725 351.453 539.735ZM176.439 48.8808C168.025 48.8906 159.958 52.234 154.004 58.179C148.05 64.1239 144.694 72.186 144.671 80.6V506.726C144.681 515.149 148.031 523.223 153.986 529.179C159.942 535.135 168.017 538.485 176.439 538.495H351.453C359.876 538.485 367.95 535.135 373.906 529.179C379.862 523.223 383.212 515.149 383.222 506.726V80.6C383.212 72.1774 379.862 64.1026 373.906 58.1469C367.95 52.1913 359.876 48.841 351.453 48.8312L176.439 48.8808ZM344.782 520.378H183.111C178.768 520.38 174.468 519.526 170.456 517.866C166.444 516.205 162.798 513.77 159.727 510.7C156.656 507.63 154.22 503.985 152.557 499.974C150.895 495.962 150.04 491.662 150.04 487.32V83.6876C150.053 74.9383 153.535 66.5513 159.723 60.3657C165.911 54.1802 174.299 50.701 183.049 50.6912H250.852C250.989 50.6876 251.123 50.7312 251.231 50.8148C251.339 50.8983 251.416 51.0167 251.447 51.15L251.521 51.3856C253.419 58.218 257.721 62.6324 262.458 62.6324H265.36C270.109 62.6324 274.399 58.218 276.297 51.3856L276.383 51.1252C276.421 50.9997 276.498 50.8897 276.603 50.8115C276.708 50.7333 276.835 50.6911 276.966 50.6912H344.757C353.514 50.6945 361.912 54.172 368.107 60.3606C374.303 66.5492 377.79 74.9431 377.803 83.7V487.32C377.803 496.081 374.325 504.484 368.134 510.683C361.942 516.881 353.543 520.369 344.782 520.378ZM183.098 51.9312C174.668 51.9246 166.581 55.2663 160.614 61.2214C154.647 67.1765 151.29 75.2575 151.28 83.6876V487.32C151.293 495.744 154.646 503.818 160.604 509.774C166.561 515.729 174.637 519.079 183.061 519.089H344.782C353.206 519.079 361.282 515.729 367.239 509.774C373.197 503.818 376.55 495.744 376.563 487.32V83.7C376.553 75.2753 373.201 67.1986 367.243 61.2425C361.285 55.2865 353.207 51.9377 344.782 51.9312H277.462C275.379 59.1852 270.655 63.8724 265.385 63.8724H262.508C257.238 63.8724 252.513 59.1852 250.43 51.9312H183.098Z" fill="#263238"/>
<path d="M266.402 52.9108C266.399 52.2884 266.212 51.6806 265.865 51.1643C265.517 50.648 265.025 50.2463 264.449 50.0098C263.873 49.7733 263.24 49.7127 262.63 49.8356C262.02 49.9585 261.46 50.2595 261.021 50.7004C260.581 51.1414 260.283 51.7026 260.162 52.3133C260.042 52.9239 260.105 53.5565 260.343 54.1313C260.582 54.7061 260.986 55.1973 261.504 55.5428C262.021 55.8883 262.63 56.0728 263.252 56.0728C263.667 56.0728 264.077 55.9909 264.46 55.8318C264.843 55.6728 265.191 55.4397 265.484 55.1459C265.776 54.8521 266.008 54.5034 266.166 54.1199C266.323 53.7363 266.403 53.3254 266.402 52.9108Z" fill="white"/>
<path d="M170.848 65.0007C170.848 68.1875 167.264 69.3407 167.239 71.7711V71.9199H170.724V72.9987H166.086V72.0935C166.086 68.6711 169.67 68.0139 169.67 65.0255C169.67 63.9467 169.298 63.3639 168.43 63.3639C167.562 63.3639 167.19 63.9839 167.19 64.9263V65.8563H166.086V65.0007C166.086 63.3763 166.818 62.3099 168.454 62.3099C170.091 62.3099 170.848 63.3763 170.848 65.0007Z" fill="#263238"/>
<path d="M176.638 64.976V65.2488C176.69 65.6972 176.598 66.1507 176.375 66.5432C176.152 66.9357 175.81 67.2468 175.398 67.4312C175.813 67.6146 176.158 67.9273 176.382 68.3228C176.605 68.7183 176.695 69.1754 176.638 69.626V70.4444C176.638 72.0564 175.881 73.1104 174.244 73.1104C172.608 73.1104 171.876 72.0564 171.876 70.4444V69.7128H172.98V70.5188C172.98 71.4612 173.364 72.044 174.22 72.044C175.075 72.044 175.46 71.486 175.46 70.4072V69.5888C175.46 68.5472 175.013 68.0512 174.12 68.0264H173.488V66.96H174.182C174.365 66.9626 174.545 66.9251 174.711 66.8501C174.877 66.775 175.025 66.6643 175.143 66.5258C175.262 66.3873 175.348 66.2244 175.396 66.0486C175.444 65.8729 175.453 65.6888 175.422 65.5092V65.0256C175.422 63.9344 175.038 63.3764 174.182 63.3764C173.327 63.3764 172.942 63.9716 172.942 64.9264V65.4596H171.839V64.976C171.839 63.364 172.595 62.3224 174.207 62.3224C175.819 62.3224 176.638 63.364 176.638 64.976Z" fill="#263238"/>
<path d="M178.919 65.782V67.2452H177.778V65.782H178.919ZM178.919 71.548V73.0112H177.778V71.548H178.919Z" fill="#263238"/>
<path d="M181.313 66.7368C181.464 66.458 181.691 66.2275 181.967 66.0717C182.243 65.916 182.558 65.8414 182.875 65.8564C184.239 65.8564 184.847 66.8608 184.847 68.3364V70.4072C184.847 72.0192 184.078 73.0732 182.453 73.0732C180.829 73.0732 180.085 72.0192 180.085 70.4072V69.688H181.189V70.4816C181.189 71.424 181.585 72.0068 182.429 72.0068C183.272 72.0068 183.669 71.424 183.669 70.4816V68.4604C183.669 67.5056 183.272 66.9352 182.429 66.9352C182.272 66.9215 182.114 66.9405 181.964 66.9908C181.815 67.0412 181.678 67.122 181.562 67.228C181.445 67.334 181.352 67.4629 181.288 67.6068C181.223 67.7506 181.19 67.9061 181.189 68.0636V68.3116H180.097L180.383 62.4216H184.549V63.488H181.437L181.313 66.7368Z" fill="#263238"/>
<path d="M190.724 64.9636V65.162H189.62V64.8892C189.62 63.9344 189.236 63.3764 188.38 63.3764C187.525 63.3764 187.14 63.9592 187.14 65.0876V67.456C187.267 67.1095 187.502 66.8129 187.81 66.6098C188.118 66.4067 188.483 66.3077 188.852 66.3276C190.216 66.3276 190.823 67.3072 190.823 68.8076V70.4196C190.823 72.0316 190.017 73.0856 188.343 73.0856C186.669 73.0856 185.863 72.0316 185.863 70.4196V65.038C185.863 63.364 186.62 62.3224 188.343 62.3224C190.067 62.3224 190.724 63.3516 190.724 64.9636ZM187.078 68.9316V70.5188C187.078 71.4612 187.475 72.044 188.318 72.044C189.162 72.044 189.558 71.4612 189.558 70.5188V68.9316C189.558 67.9768 189.149 67.4064 188.318 67.4064C187.488 67.4064 187.078 67.9768 187.078 68.9316Z" fill="#263238"/>
<path d="M306.255 65.4348H303.267V72.8996H306.255V65.4348Z" fill="#263238"/>
<path d="M310.235 63.9343H307.247V72.8995H310.235V63.9343Z" fill="#263238"/>
<path d="M314.216 62.8679H311.228V72.8995H314.216V62.8679Z" fill="#263238"/>
<path d="M318.209 61.0204H315.221V72.8996H318.209V61.0204Z" fill="#263238"/>
<path d="M355.173 72.7012H337.28V61.7396H355.198L355.173 72.7012ZM338.247 71.6968H354.181V62.7316H338.247V71.6968Z" fill="#263238"/>
<path d="M349.197 63.8228H339.735V70.618H349.197V63.8228Z" fill="#263238"/>
<path d="M356.81 65.9308H354.553V68.51H356.81V65.9308Z" fill="#263238"/>
<path d="M330.683 70.308C330.561 70.3105 330.442 70.2805 330.336 70.2212C326.69 68.0512 324.272 70.06 324.136 70.1468C324.01 70.271 323.841 70.3407 323.664 70.3407C323.488 70.3407 323.319 70.271 323.193 70.1468C323.08 70.0121 323.023 69.8388 323.035 69.6631C323.046 69.4875 323.125 69.3231 323.255 69.2044C323.379 69.0928 326.467 66.4516 330.98 69.13C331.056 69.1748 331.122 69.234 331.175 69.3043C331.228 69.3747 331.266 69.4548 331.288 69.54C331.31 69.6252 331.315 69.7139 331.303 69.801C331.29 69.8881 331.261 69.9719 331.216 70.0476C331.154 70.1298 331.073 70.1962 330.98 70.2414C330.888 70.2866 330.786 70.3095 330.683 70.308Z" fill="#263238"/>
<path d="M332.022 68.0636C331.903 68.0672 331.785 68.0324 331.687 67.9644C326.405 64.8272 322.859 67.8652 322.821 67.89C322.696 68.0142 322.527 68.0838 322.35 68.0838C322.174 68.0838 322.004 68.0142 321.879 67.89C321.765 67.7532 321.708 67.5779 321.719 67.4002C321.731 67.2225 321.81 67.056 321.941 66.9352C321.941 66.9352 326.269 63.2152 332.369 66.9352C332.493 67.0114 332.589 67.1259 332.642 67.2614C332.695 67.3969 332.703 67.546 332.663 67.6862C332.624 67.8263 332.54 67.9498 332.425 68.038C332.309 68.1263 332.168 68.1744 332.022 68.1752V68.0636Z" fill="#263238"/>
<path d="M333.25 65.4595C333.131 65.4573 333.015 65.423 332.915 65.3603C326.231 61.3923 321.755 65.1247 321.606 65.2859C321.544 65.3493 321.469 65.3996 321.387 65.434C321.305 65.4683 321.217 65.486 321.129 65.486C321.04 65.486 320.952 65.4683 320.87 65.434C320.788 65.3996 320.714 65.3493 320.651 65.2859C320.538 65.1512 320.481 64.9779 320.493 64.8023C320.504 64.6266 320.583 64.4622 320.713 64.3435C320.775 64.3435 326.045 59.7803 333.597 64.2691C333.747 64.3617 333.856 64.5092 333.9 64.6803C333.944 64.8515 333.92 65.0331 333.832 65.1867C333.764 65.2758 333.676 65.3472 333.575 65.3947C333.473 65.4422 333.362 65.4645 333.25 65.4595Z" fill="#263238"/>
<path d="M328.662 71.4363C328.662 71.7704 328.563 72.0969 328.377 72.3745C328.191 72.6521 327.927 72.8682 327.618 72.9955C327.309 73.1228 326.969 73.1554 326.642 73.0894C326.314 73.0233 326.014 72.8614 325.779 72.6243C325.543 72.3872 325.384 72.0856 325.32 71.7577C325.256 71.4297 325.291 71.0903 325.421 70.7823C325.551 70.4744 325.769 70.2119 326.048 70.0281C326.327 69.8443 326.654 69.7475 326.988 69.7499C327.209 69.7499 327.427 69.7936 327.631 69.8785C327.835 69.9634 328.02 70.0878 328.176 70.2446C328.332 70.4014 328.455 70.5874 328.538 70.7919C328.621 70.9964 328.663 71.2155 328.662 71.4363Z" fill="#263238"/>
<path d="M336.375 491.536L342.414 485.497C342.743 485.145 342.921 484.678 342.913 484.196C342.904 483.715 342.709 483.255 342.368 482.914C342.028 482.573 341.568 482.378 341.086 482.369C340.604 482.361 340.138 482.54 339.785 482.868L333.746 488.907L327.708 482.868C327.359 482.518 326.885 482.321 326.391 482.32C325.897 482.318 325.423 482.514 325.073 482.862C324.722 483.211 324.525 483.684 324.524 484.178C324.523 484.673 324.718 485.147 325.066 485.497L331.08 491.536L325.029 497.575C324.684 497.925 324.49 498.397 324.49 498.889C324.49 499.381 324.684 499.853 325.029 500.204C325.38 500.553 325.855 500.749 326.35 500.749C326.845 500.749 327.319 500.553 327.67 500.204L333.709 494.165L339.748 500.204C339.919 500.378 340.124 500.516 340.35 500.61C340.576 500.704 340.818 500.751 341.062 500.749C341.307 500.752 341.55 500.706 341.776 500.612C342.002 500.518 342.206 500.379 342.377 500.204C342.551 500.032 342.689 499.827 342.783 499.601C342.877 499.376 342.926 499.134 342.926 498.889C342.926 498.645 342.877 498.403 342.783 498.177C342.689 497.951 342.551 497.747 342.377 497.575L336.375 491.536Z" fill="#263238"/>
<path d="M188.207 418.227V406.013L187.773 406.187L187.054 406.398L186.335 406.596C186.182 406.632 186.033 406.682 185.889 406.745V404.823L186.533 404.562L187.364 404.178C187.648 404.04 187.921 403.883 188.183 403.707C188.411 403.551 188.619 403.367 188.803 403.161H190.774V418.227H188.207Z" fill="#263238"/>
<path d="M257.672 418.227V416.417L261.392 410.663C261.665 410.242 261.925 409.845 262.161 409.423C262.409 409.036 262.609 408.619 262.756 408.183C262.918 407.743 262.998 407.276 262.991 406.807C263.01 406.374 262.907 405.944 262.694 405.567C262.591 405.418 262.451 405.299 262.288 405.22C262.125 405.142 261.944 405.108 261.764 405.12C261.594 405.109 261.424 405.134 261.264 405.191C261.104 405.249 260.958 405.339 260.834 405.455C260.602 405.696 260.443 405.996 260.375 406.323C260.29 406.731 260.248 407.147 260.251 407.563V408.208H257.771V407.538C257.753 406.734 257.892 405.934 258.18 405.182C258.417 404.533 258.85 403.973 259.42 403.583C260.092 403.187 260.86 402.985 261.64 403C262.17 402.956 262.703 403.026 263.204 403.206C263.704 403.386 264.16 403.671 264.541 404.042C265.226 404.848 265.572 405.887 265.509 406.943C265.516 407.516 265.428 408.086 265.248 408.63C265.07 409.133 264.837 409.615 264.554 410.068C264.273 410.531 263.963 411.002 263.624 411.482L260.536 416.169H265.112V418.227H257.672Z" fill="#263238"/>
<path d="M330.237 418.45C329.443 418.485 328.655 418.305 327.955 417.93C327.388 417.574 326.953 417.043 326.715 416.417C326.443 415.692 326.312 414.922 326.331 414.148V413.627H328.811V414.061C328.815 414.478 328.861 414.893 328.947 415.301C329.001 415.593 329.144 415.862 329.356 416.07C329.602 416.255 329.905 416.347 330.212 416.33C330.366 416.342 330.522 416.322 330.669 416.273C330.815 416.225 330.951 416.147 331.068 416.045C331.281 415.82 331.42 415.534 331.464 415.226C331.531 414.816 331.564 414.402 331.564 413.986C331.59 413.363 331.467 412.742 331.204 412.176C331.055 411.943 330.847 411.755 330.6 411.63C330.354 411.506 330.078 411.45 329.803 411.469H329.369V409.324H329.84C330.102 409.348 330.365 409.311 330.611 409.216C330.856 409.122 331.076 408.972 331.254 408.778C331.551 408.26 331.685 407.663 331.638 407.067C331.659 406.556 331.562 406.046 331.353 405.579C331.239 405.394 331.074 405.246 330.879 405.152C330.683 405.057 330.465 405.021 330.249 405.046C330.03 405.023 329.809 405.068 329.616 405.174C329.424 405.281 329.268 405.444 329.17 405.641C328.976 406.13 328.879 406.653 328.885 407.179V407.737H326.405V407.018C326.383 406.265 326.536 405.518 326.852 404.835C327.142 404.247 327.611 403.766 328.191 403.459C328.846 403.124 329.576 402.962 330.311 402.988C331.057 402.961 331.798 403.119 332.469 403.446C333.041 403.747 333.505 404.22 333.796 404.798C334.117 405.471 334.274 406.21 334.254 406.956C334.256 407.757 334.014 408.54 333.56 409.2C333.239 409.741 332.725 410.14 332.122 410.316C332.517 410.44 332.875 410.662 333.163 410.961C333.487 411.315 333.725 411.739 333.858 412.201C334.045 412.777 334.133 413.381 334.118 413.986C334.129 414.796 333.999 415.602 333.734 416.367C333.506 417.025 333.071 417.59 332.494 417.979C331.803 418.351 331.019 418.515 330.237 418.45Z" fill="#263238"/>
<path d="M189.459 444.937V441.217H184.958V439.022L188.876 429.846H191.877V439.171H193.44V441.217H191.902V444.937H189.459ZM187.116 439.196H189.459V432.648L187.116 439.196Z" fill="#263238"/>
<path d="M261.64 445.16C260.825 445.209 260.014 445.014 259.309 444.602C258.753 444.23 258.348 443.672 258.168 443.027C257.936 442.247 257.827 441.435 257.846 440.622H260.326C260.318 441.074 260.351 441.527 260.425 441.973C260.464 442.31 260.607 442.627 260.834 442.878C260.95 442.994 261.09 443.083 261.245 443.136C261.4 443.19 261.564 443.208 261.727 443.188C261.905 443.206 262.085 443.177 262.249 443.103C262.412 443.029 262.553 442.913 262.657 442.767C262.855 442.409 262.97 442.01 262.992 441.601C262.992 441.093 263.066 440.51 263.066 439.84C263.075 439.33 263.042 438.82 262.967 438.315C262.929 437.947 262.792 437.595 262.57 437.298C262.452 437.173 262.307 437.075 262.146 437.013C261.985 436.951 261.812 436.925 261.64 436.939C261.475 436.936 261.311 436.967 261.158 437.028C261.004 437.09 260.865 437.182 260.747 437.298C260.497 437.573 260.318 437.905 260.227 438.266H258.007L258.156 429.871H264.926V432.177H260.326L260.177 435.81C260.391 435.558 260.67 435.37 260.983 435.265C261.38 435.118 261.8 435.038 262.223 435.029C262.906 434.96 263.592 435.136 264.157 435.525C264.68 435.941 265.061 436.509 265.249 437.15C265.498 437.952 265.619 438.789 265.608 439.63C265.615 440.364 265.561 441.098 265.447 441.824C265.365 442.435 265.167 443.024 264.864 443.56C264.57 444.053 264.139 444.449 263.624 444.701C263.01 445.014 262.329 445.171 261.64 445.16Z" fill="#263238"/>
<path d="M330.324 445.16C329.516 445.193 328.719 444.963 328.055 444.503C327.475 444.048 327.043 443.43 326.815 442.73C326.547 441.93 326.413 441.092 326.418 440.25V434.967C326.406 434.071 326.519 433.178 326.753 432.314C326.953 431.572 327.388 430.915 327.993 430.441C328.688 429.946 329.533 429.705 330.386 429.759C331.13 429.726 331.87 429.875 332.543 430.193C333.083 430.457 333.519 430.894 333.783 431.433C334.06 432.083 334.191 432.786 334.168 433.492C334.168 433.492 334.168 433.566 334.168 433.616C334.174 433.657 334.174 433.699 334.168 433.74H331.688C331.715 433.224 331.635 432.709 331.452 432.227C331.348 432.05 331.193 431.908 331.007 431.819C330.822 431.731 330.614 431.7 330.411 431.731C330.267 431.725 330.124 431.748 329.989 431.799C329.855 431.85 329.732 431.928 329.629 432.028C329.393 432.301 329.242 432.638 329.195 432.996C329.084 433.597 329.034 434.207 329.047 434.818V436.616C329.241 436.319 329.517 436.082 329.84 435.934C330.355 435.73 330.911 435.65 331.463 435.702C332.015 435.754 332.547 435.935 333.015 436.232C333.502 436.629 333.857 437.166 334.031 437.77C334.24 438.503 334.34 439.264 334.329 440.026C334.341 440.917 334.215 441.803 333.957 442.655C333.74 443.379 333.307 444.019 332.717 444.49C332.02 444.981 331.175 445.218 330.324 445.16ZM330.324 443.164C330.477 443.174 330.63 443.149 330.772 443.091C330.914 443.033 331.04 442.943 331.142 442.829C331.352 442.558 331.488 442.238 331.539 441.899C331.619 441.44 331.656 440.975 331.651 440.51C331.651 439.964 331.651 439.468 331.589 439.047C331.563 438.68 331.443 438.325 331.241 438.018C331.127 437.886 330.983 437.783 330.822 437.719C330.66 437.654 330.485 437.629 330.311 437.646C330.112 437.643 329.913 437.681 329.729 437.757C329.556 437.835 329.397 437.94 329.257 438.067C329.14 438.179 329.036 438.303 328.947 438.439V440.808C328.948 441.199 328.99 441.59 329.071 441.973C329.136 442.296 329.286 442.596 329.505 442.841C329.614 442.949 329.744 443.032 329.887 443.086C330.031 443.139 330.184 443.161 330.336 443.151L330.324 443.164Z" fill="#263238"/>
<path d="M186.67 471.646L189.72 458.552H185.641V456.58H192.2V458.155L189.162 471.646H186.67Z" fill="#263238"/>
<path d="M261.528 471.845C260.72 471.885 259.918 471.686 259.222 471.274C258.64 470.89 258.204 470.323 257.982 469.662C257.72 468.892 257.594 468.082 257.61 467.269C257.603 466.853 257.64 466.437 257.721 466.029C257.796 465.68 257.917 465.342 258.081 465.025C258.228 464.735 258.42 464.472 258.651 464.244C258.87 464.012 259.125 463.819 259.408 463.673C258.944 463.349 258.558 462.925 258.279 462.433C257.956 461.796 257.794 461.089 257.808 460.375C257.792 459.648 257.927 458.926 258.205 458.254C258.454 457.671 258.89 457.187 259.445 456.878C260.084 456.536 260.803 456.369 261.528 456.394C262.253 456.366 262.973 456.533 263.611 456.878C264.163 457.19 264.598 457.673 264.851 458.254C265.136 458.924 265.267 459.648 265.236 460.375C265.255 461.092 265.097 461.803 264.777 462.446C264.512 462.94 264.134 463.365 263.673 463.686C263.959 463.832 264.219 464.024 264.442 464.256C264.669 464.484 264.858 464.748 265 465.037C265.164 465.354 265.285 465.692 265.36 466.042C265.445 466.449 265.487 466.865 265.484 467.282C265.511 468.096 265.385 468.908 265.112 469.675C264.885 470.333 264.45 470.899 263.872 471.287C263.163 471.701 262.347 471.895 261.528 471.845ZM261.528 469.898C261.699 469.912 261.872 469.885 262.031 469.821C262.19 469.756 262.332 469.655 262.446 469.526C262.667 469.256 262.809 468.93 262.855 468.584C262.915 468.198 262.945 467.808 262.942 467.418C262.959 467.003 262.93 466.587 262.855 466.178C262.794 465.83 262.649 465.503 262.433 465.223C262.321 465.096 262.18 464.997 262.024 464.933C261.867 464.868 261.697 464.84 261.528 464.851C261.362 464.84 261.197 464.868 261.044 464.933C260.891 464.998 260.755 465.097 260.648 465.223C260.428 465.497 260.279 465.821 260.214 466.166C260.137 466.574 260.099 466.99 260.102 467.406C260.098 467.801 260.131 468.195 260.201 468.584C260.251 468.931 260.397 469.257 260.623 469.526C260.731 469.662 260.869 469.772 261.026 469.847C261.182 469.922 261.354 469.961 261.528 469.96V469.898ZM261.528 462.694C261.666 462.697 261.803 462.67 261.93 462.614C262.056 462.558 262.169 462.475 262.26 462.371C262.462 462.131 262.595 461.839 262.644 461.528C262.724 461.12 262.761 460.704 262.756 460.288C262.776 459.806 262.683 459.326 262.483 458.887C262.393 458.714 262.255 458.572 262.086 458.477C261.916 458.382 261.722 458.339 261.528 458.354C261.334 458.341 261.141 458.384 260.972 458.479C260.802 458.574 260.664 458.715 260.573 458.887C260.349 459.31 260.242 459.785 260.263 460.263C260.256 460.68 260.298 461.096 260.387 461.503C260.437 461.82 260.575 462.116 260.784 462.359C260.877 462.464 260.992 462.549 261.12 462.606C261.248 462.664 261.387 462.694 261.528 462.694Z" fill="#263238"/>
<path d="M261.528 498.021C260.763 498.056 260.005 497.866 259.346 497.476C258.767 497.1 258.314 496.561 258.044 495.926C257.739 495.209 257.591 494.435 257.61 493.656V486.973C257.592 486.183 257.736 485.398 258.032 484.666C258.272 484.032 258.706 483.49 259.272 483.116C259.954 482.751 260.717 482.559 261.491 482.559C262.266 482.559 263.028 482.751 263.711 483.116C264.273 483.494 264.706 484.035 264.951 484.666C265.241 485.4 265.384 486.184 265.372 486.973V493.656C265.388 494.436 265.236 495.21 264.926 495.926C264.656 496.561 264.203 497.1 263.624 497.476C262.99 497.85 262.264 498.039 261.528 498.021ZM261.528 495.814C261.688 495.825 261.848 495.799 261.996 495.739C262.145 495.679 262.277 495.586 262.384 495.467C262.577 495.212 262.704 494.914 262.756 494.599C262.82 494.276 262.853 493.948 262.855 493.619V487.01C262.851 486.665 262.822 486.321 262.768 485.981C262.721 485.667 262.597 485.369 262.409 485.113C262.299 484.99 262.163 484.895 262.01 484.835C261.857 484.775 261.692 484.751 261.528 484.766C261.367 484.751 261.204 484.775 261.053 484.835C260.902 484.895 260.767 484.991 260.66 485.113C260.468 485.368 260.34 485.666 260.288 485.981C260.239 486.322 260.215 486.666 260.214 487.01V493.619C260.21 493.948 260.243 494.277 260.313 494.599C260.369 494.915 260.501 495.213 260.698 495.467C260.8 495.585 260.928 495.677 261.073 495.737C261.217 495.798 261.373 495.824 261.528 495.814Z" fill="#263238"/>
<path d="M330.063 471.845C329.322 471.873 328.586 471.72 327.918 471.398C327.368 471.118 326.931 470.659 326.678 470.096C326.401 469.438 326.27 468.727 326.293 468.013V467.815H328.773C328.747 468.327 328.832 468.839 329.021 469.315C329.13 469.494 329.289 469.638 329.479 469.728C329.668 469.819 329.88 469.852 330.088 469.824C330.231 469.832 330.375 469.81 330.51 469.759C330.645 469.707 330.767 469.628 330.869 469.526C331.093 469.239 331.234 468.896 331.278 468.534C331.378 467.94 331.424 467.338 331.414 466.736V464.926C331.228 465.223 330.955 465.456 330.633 465.595C330.242 465.765 329.82 465.853 329.393 465.856C328.707 465.902 328.026 465.705 327.471 465.298C326.981 464.877 326.627 464.32 326.454 463.698C326.236 462.962 326.132 462.197 326.144 461.429C326.126 460.545 326.256 459.665 326.529 458.825C326.75 458.12 327.183 457.501 327.769 457.052C328.445 456.598 329.249 456.372 330.063 456.407C330.868 456.366 331.664 456.588 332.332 457.039C332.911 457.469 333.344 458.067 333.572 458.75C333.844 459.549 333.978 460.387 333.969 461.23V466.562C333.982 467.463 333.865 468.361 333.622 469.228C333.421 469.973 332.986 470.634 332.382 471.113C331.716 471.616 330.897 471.874 330.063 471.845ZM330.063 463.909C330.362 463.925 330.657 463.833 330.894 463.648C331.088 463.491 331.256 463.302 331.39 463.09V460.747C331.393 460.351 331.356 459.957 331.278 459.569C331.222 459.254 331.086 458.959 330.881 458.713C330.776 458.6 330.647 458.511 330.503 458.453C330.359 458.395 330.205 458.37 330.05 458.378C329.899 458.369 329.748 458.394 329.609 458.452C329.469 458.51 329.344 458.6 329.244 458.713C329.026 458.98 328.884 459.302 328.835 459.643C328.755 460.106 328.718 460.575 328.724 461.044C328.721 461.529 328.746 462.013 328.798 462.495C328.812 462.863 328.928 463.219 329.133 463.524C329.245 463.662 329.391 463.769 329.555 463.836C329.72 463.903 329.898 463.928 330.075 463.909H330.063Z" fill="#263238"/>
<path d="M244.54 348.986V333.92H250.864V335.854H247.293V340.182H250.108V342.104H247.293V347.064H250.901V348.961L244.54 348.986Z" fill="#40D0B9"/>
<path d="M252.501 348.986V333.92H254.423L258.081 342.513V333.92H260.4V348.986H258.577L254.857 339.983V348.986H252.501Z" fill="#40D0B9"/>
<path d="M264.12 348.986V335.941H261.727V333.92H269.241V335.941H266.873V348.986H264.12Z" fill="#40D0B9"/>
<path d="M270.643 348.986V333.92H276.967V335.854H273.395V340.182H276.198V342.104H273.395V347.064H277.004V348.961L270.643 348.986Z" fill="#40D0B9"/>
<path d="M278.604 348.986V333.92H282.212C283.086 333.895 283.957 334.017 284.791 334.279C285.453 334.493 286.019 334.932 286.391 335.519C286.788 336.248 286.977 337.071 286.936 337.9C286.941 338.45 286.882 339 286.763 339.537C286.67 339.986 286.48 340.41 286.205 340.777C285.911 341.137 285.525 341.411 285.089 341.57L287.197 349.01H284.444L282.621 342.104H281.381V349.01L278.604 348.986ZM281.356 340.306H282.212C282.637 340.314 283.06 340.234 283.452 340.07C283.758 339.912 283.997 339.647 284.122 339.326C284.273 338.905 284.344 338.459 284.332 338.012C284.378 337.415 284.23 336.819 283.911 336.313C283.711 336.098 283.463 335.934 283.187 335.834C282.91 335.735 282.614 335.704 282.324 335.742H281.319L281.356 340.306Z" fill="#40D0B9"/>
<path d="M207.378 131.787L204.749 118.73H206.857L208.581 127.968L210.193 118.73H212.35L209.721 131.787H207.378Z" fill="#263238"/>
<path d="M213.689 131.787V118.73H219.17V120.404H216.083V124.124H218.563V125.786H216.083V130.2H219.207V131.837L213.689 131.787Z" fill="#263238"/>
<path d="M220.584 131.787V118.73H223.721C224.478 118.713 225.232 118.822 225.953 119.052C226.527 119.234 227.018 119.611 227.342 120.119C227.684 120.749 227.847 121.461 227.813 122.177C227.819 122.657 227.769 123.135 227.664 123.603C227.582 123.989 227.417 124.353 227.181 124.67C226.926 124.983 226.592 125.223 226.214 125.364L228.036 131.787H225.68L224.093 125.81H223.002V131.787H220.584ZM222.977 124.347H223.721C224.099 124.366 224.477 124.298 224.825 124.149C225.096 124.018 225.305 123.787 225.408 123.504C225.538 123.138 225.597 122.751 225.581 122.363C225.619 121.846 225.493 121.33 225.222 120.888C225.046 120.704 224.83 120.565 224.591 120.481C224.352 120.397 224.096 120.371 223.845 120.404H222.977V124.347Z" fill="#263238"/>
<path d="M229.66 131.787V118.73H232.016V131.787H229.66Z" fill="#263238"/>
<path d="M234.037 131.787V118.73H239.406V120.379H236.418V124.186H238.898V125.848H236.418V131.787H234.037Z" fill="#263238"/>
<path d="M240.709 131.787V118.73H243.04V131.787H240.709Z" fill="#263238"/>
<path d="M248.595 131.973C247.803 132.015 247.016 131.816 246.339 131.403C245.799 131.033 245.402 130.491 245.21 129.865C244.98 129.14 244.871 128.382 244.888 127.621V122.958C244.869 122.173 244.978 121.39 245.21 120.64C245.392 120.016 245.793 119.479 246.339 119.127C247.023 118.733 247.807 118.548 248.595 118.594C249.331 118.555 250.062 118.714 250.716 119.052C251.219 119.35 251.601 119.815 251.795 120.367C252.024 120.998 252.133 121.667 252.117 122.338V123.442H249.835V122.314C249.856 121.979 249.856 121.644 249.835 121.309C249.813 121.042 249.704 120.79 249.525 120.59C249.408 120.491 249.271 120.417 249.124 120.372C248.977 120.328 248.823 120.313 248.67 120.33C248.346 120.304 248.026 120.407 247.777 120.615C247.579 120.823 247.449 121.087 247.405 121.371C247.353 121.724 247.328 122.081 247.331 122.438V128.117C247.323 128.508 247.36 128.899 247.442 129.282C247.498 129.553 247.642 129.797 247.852 129.977C248.088 130.149 248.378 130.233 248.67 130.212C248.823 130.228 248.977 130.21 249.122 130.161C249.268 130.112 249.401 130.032 249.513 129.927C249.696 129.721 249.806 129.459 249.823 129.183C249.875 128.834 249.9 128.482 249.898 128.129V126.889H252.179V127.943C252.189 128.641 252.089 129.336 251.882 130.002C251.685 130.574 251.306 131.066 250.803 131.403C250.14 131.809 249.372 132.008 248.595 131.973Z" fill="#263238"/>
<path d="M253.121 131.787L255.725 118.73H258.279L260.883 131.787H258.676L258.168 128.774H255.886L255.365 131.787H253.121ZM256.134 127.261H257.92L257.027 121.78L256.134 127.261Z" fill="#263238"/>
<path d="M262.88 131.787V120.491H260.797V118.73H267.307V120.491H265.261V131.787H262.88Z" fill="#263238"/>
<path d="M268.571 131.787V118.73H270.927V131.787H268.571Z" fill="#263238"/>
<path d="M276.52 131.973C275.75 132.012 274.984 131.832 274.313 131.452C273.764 131.103 273.348 130.579 273.135 129.964C272.895 129.241 272.781 128.482 272.8 127.72V122.76C272.784 121.988 272.906 121.22 273.159 120.491C273.363 119.894 273.76 119.384 274.288 119.04C274.964 118.675 275.728 118.504 276.495 118.544C277.27 118.502 278.042 118.674 278.727 119.04C279.268 119.376 279.682 119.882 279.905 120.478C280.152 121.213 280.265 121.986 280.24 122.76V127.72C280.254 128.492 280.132 129.26 279.88 129.989C279.658 130.596 279.245 131.114 278.702 131.465C278.035 131.832 277.28 132.008 276.52 131.973ZM276.52 130.212C276.836 130.241 277.151 130.148 277.4 129.952C277.599 129.764 277.73 129.515 277.772 129.245C277.838 128.923 277.872 128.595 277.871 128.266V122.252C277.873 121.918 277.84 121.586 277.772 121.26C277.724 120.998 277.594 120.759 277.4 120.578C277.152 120.375 276.84 120.27 276.52 120.28C276.214 120.259 275.911 120.347 275.664 120.528C275.466 120.708 275.331 120.947 275.28 121.21C275.206 121.535 275.173 121.868 275.181 122.202V128.216C275.176 128.545 275.206 128.873 275.267 129.196C275.313 129.467 275.449 129.716 275.652 129.902C275.892 130.109 276.203 130.215 276.52 130.2V130.212Z" fill="#263238"/>
<path d="M282.025 131.787V118.73H283.687L286.861 126.17V118.73H288.821V131.787H287.246L284.059 124V131.8L282.025 131.787Z" fill="#263238"/>
<path d="M298.232 131.973C297.444 132.013 296.662 131.814 295.988 131.403C295.449 131.033 295.051 130.491 294.86 129.865C294.625 129.141 294.512 128.382 294.525 127.621V122.958C294.509 122.172 294.622 121.389 294.86 120.64C295.042 120.016 295.442 119.479 295.988 119.127C296.668 118.734 297.448 118.549 298.232 118.594C298.968 118.552 299.7 118.711 300.353 119.052C300.861 119.347 301.247 119.813 301.444 120.367C301.673 120.998 301.783 121.667 301.766 122.338V123.442H299.485V122.314C299.485 121.978 299.464 121.642 299.423 121.309C299.4 121.042 299.291 120.79 299.113 120.59C298.995 120.491 298.859 120.417 298.712 120.372C298.565 120.328 298.41 120.313 298.257 120.33C297.934 120.304 297.613 120.407 297.364 120.615C297.162 120.82 297.031 121.085 296.992 121.371C296.94 121.724 296.915 122.081 296.918 122.438V128.117C296.91 128.508 296.948 128.899 297.03 129.282C297.085 129.553 297.229 129.797 297.439 129.977C297.675 130.149 297.965 130.233 298.257 130.212C298.41 130.228 298.564 130.21 298.71 130.161C298.855 130.112 298.988 130.032 299.1 129.927C299.276 129.716 299.384 129.457 299.41 129.183C299.463 128.834 299.487 128.482 299.485 128.129V126.889H301.766V127.943C301.78 128.642 301.675 129.338 301.456 130.002C301.269 130.575 300.893 131.069 300.39 131.403C299.742 131.799 298.992 131.997 298.232 131.973Z" fill="#263238"/>
<path d="M306.975 131.973C306.205 132.011 305.439 131.83 304.767 131.452C304.218 131.103 303.803 130.579 303.589 129.964C303.341 129.23 303.224 128.458 303.242 127.683V122.76C303.223 121.989 303.341 121.221 303.589 120.491C303.808 119.892 304.223 119.385 304.767 119.052C305.462 118.726 306.22 118.557 306.987 118.557C307.754 118.557 308.512 118.726 309.207 119.052C309.751 119.385 310.166 119.892 310.385 120.491C310.645 121.218 310.767 121.988 310.744 122.76V127.72C310.764 128.492 310.642 129.261 310.385 129.989C310.168 130.599 309.753 131.118 309.207 131.465C308.525 131.841 307.752 132.017 306.975 131.973ZM306.975 130.212C307.291 130.241 307.606 130.148 307.855 129.952C308.05 129.759 308.183 129.513 308.239 129.245C308.301 128.922 308.33 128.594 308.326 128.266V122.252C308.331 121.919 308.302 121.586 308.239 121.26C308.18 121 308.047 120.763 307.855 120.578C307.595 120.415 307.294 120.328 306.987 120.328C306.68 120.328 306.379 120.415 306.119 120.578C305.921 120.757 305.786 120.997 305.735 121.26C305.667 121.586 305.634 121.918 305.635 122.252V128.266C305.638 128.594 305.667 128.922 305.722 129.245C305.768 129.517 305.904 129.766 306.107 129.952C306.355 130.141 306.664 130.229 306.975 130.2V130.212Z" fill="#263238"/>
<path d="M312.479 131.787V118.73H315.555C316.403 118.694 317.249 118.842 318.035 119.164C318.595 119.448 319.035 119.923 319.275 120.503C319.545 121.237 319.671 122.016 319.647 122.797V127.571C319.67 128.373 319.544 129.172 319.275 129.927C319.049 130.532 318.607 131.031 318.035 131.328C317.281 131.671 316.456 131.828 315.629 131.787H312.479ZM314.86 130.126H315.592C316.005 130.166 316.42 130.065 316.77 129.84C317.021 129.628 317.177 129.325 317.204 128.997C317.258 128.545 317.283 128.089 317.278 127.633V122.673C317.285 122.257 317.248 121.841 317.167 121.433C317.142 121.29 317.089 121.154 317.01 121.033C316.931 120.911 316.828 120.807 316.708 120.726C316.35 120.553 315.952 120.476 315.555 120.503H314.86V130.126Z" fill="#263238"/>
<path d="M321.482 131.787V118.73H326.963V120.404H323.863V124.124H326.343V125.786H323.863V130.2H327V131.837L321.482 131.787Z" fill="#263238"/>
<path d="M498.22 85.4732C498.055 85.4732 497.897 85.4079 497.781 85.2916C497.665 85.1754 497.6 85.0177 497.6 84.8532V78.6532C497.6 78.4888 497.665 78.3311 497.781 78.2148C497.897 78.0985 498.055 78.0332 498.22 78.0332C498.384 78.0332 498.542 78.0985 498.658 78.2148C498.774 78.3311 498.84 78.4888 498.84 78.6532V84.8532C498.84 85.0177 498.774 85.1754 498.658 85.2916C498.542 85.4079 498.384 85.4732 498.22 85.4732ZM498.22 73.0732C498.055 73.0732 497.897 73.0079 497.781 72.8916C497.665 72.7754 497.6 72.6177 497.6 72.4532V66.2532C497.6 66.0888 497.665 65.9311 497.781 65.8148C497.897 65.6985 498.055 65.6332 498.22 65.6332C498.384 65.6332 498.542 65.6985 498.658 65.8148C498.774 65.9311 498.84 66.0888 498.84 66.2532V72.4532C498.84 72.6177 498.774 72.7754 498.658 72.8916C498.542 73.0079 498.384 73.0732 498.22 73.0732ZM498.22 60.6732C498.055 60.6732 497.897 60.6079 497.781 60.4916C497.665 60.3754 497.6 60.2177 497.6 60.0532V53.8532C497.6 53.6888 497.665 53.5311 497.781 53.4148C497.897 53.2985 498.055 53.2332 498.22 53.2332C498.384 53.2332 498.542 53.2985 498.658 53.4148C498.774 53.5311 498.84 53.6888 498.84 53.8532V60.0532C498.84 60.2177 498.774 60.3754 498.658 60.4916C498.542 60.6079 498.384 60.6732 498.22 60.6732ZM498.22 48.2732C498.055 48.2732 497.897 48.2079 497.781 48.0916C497.665 47.9754 497.6 47.8177 497.6 47.6532V41.4532C497.6 41.2888 497.665 41.1311 497.781 41.0148C497.897 40.8985 498.055 40.8332 498.22 40.8332C498.384 40.8332 498.542 40.8985 498.658 41.0148C498.774 41.1311 498.84 41.2888 498.84 41.4532V47.6532C498.84 47.8177 498.774 47.9754 498.658 48.0916C498.542 48.2079 498.384 48.2732 498.22 48.2732ZM498.22 35.8732C498.055 35.8732 497.897 35.8079 497.781 35.6916C497.665 35.5754 497.6 35.4177 497.6 35.2532V29.0532C497.6 28.8888 497.665 28.7311 497.781 28.6148C497.897 28.4985 498.055 28.4332 498.22 28.4332C498.384 28.4332 498.542 28.4985 498.658 28.6148C498.774 28.7311 498.84 28.8888 498.84 29.0532V35.2532C498.84 35.4177 498.774 35.5754 498.658 35.6916C498.542 35.8079 498.384 35.8732 498.22 35.8732Z" fill="#263238"/>
<path d="M467.48 277.078H461.863C461.699 277.078 461.541 277.013 461.425 276.896C461.308 276.78 461.243 276.622 461.243 276.458C461.246 276.295 461.312 276.139 461.428 276.023C461.544 275.907 461.699 275.841 461.863 275.838H468.063C468.227 275.838 468.385 275.903 468.501 276.02C468.618 276.136 468.683 276.294 468.683 276.458C468.683 276.622 468.618 276.78 468.501 276.896C468.385 277.013 468.227 277.078 468.063 277.078H467.48ZM455.663 277.078H449.463C449.299 277.078 449.141 277.013 449.025 276.896C448.908 276.78 448.843 276.622 448.843 276.458C448.846 276.295 448.912 276.139 449.028 276.023C449.144 275.907 449.299 275.841 449.463 275.838H455.663C455.827 275.838 455.985 275.903 456.101 276.02C456.218 276.136 456.283 276.294 456.283 276.458C456.283 276.543 456.266 276.626 456.232 276.704C456.199 276.782 456.15 276.852 456.088 276.91C456.027 276.968 455.954 277.013 455.874 277.042C455.795 277.071 455.71 277.083 455.626 277.078H455.663ZM443.263 277.078H437.063C436.899 277.078 436.741 277.013 436.625 276.896C436.508 276.78 436.443 276.622 436.443 276.458C436.446 276.295 436.512 276.139 436.628 276.023C436.744 275.907 436.899 275.841 437.063 275.838H443.263C443.427 275.838 443.585 275.903 443.701 276.02C443.818 276.136 443.883 276.294 443.883 276.458C443.883 276.543 443.866 276.626 443.832 276.704C443.799 276.782 443.75 276.852 443.688 276.91C443.627 276.968 443.554 277.013 443.474 277.042C443.395 277.071 443.31 277.083 443.226 277.078H443.263ZM430.863 277.078H424.663C424.499 277.078 424.341 277.013 424.225 276.896C424.108 276.78 424.043 276.622 424.043 276.458C424.046 276.295 424.112 276.139 424.228 276.023C424.344 275.907 424.499 275.841 424.663 275.838H430.863C431.027 275.838 431.185 275.903 431.301 276.02C431.418 276.136 431.483 276.294 431.483 276.458C431.483 276.543 431.466 276.626 431.432 276.704C431.399 276.782 431.35 276.852 431.288 276.91C431.227 276.968 431.154 277.013 431.074 277.042C430.995 277.071 430.91 277.083 430.826 277.078H430.863ZM418.463 277.078H412.263C412.099 277.078 411.941 277.013 411.825 276.896C411.708 276.78 411.643 276.622 411.643 276.458C411.646 276.295 411.712 276.139 411.828 276.023C411.944 275.907 412.099 275.841 412.263 275.838H418.463C418.627 275.838 418.785 275.903 418.901 276.02C419.018 276.136 419.083 276.294 419.083 276.458C419.083 276.543 419.066 276.626 419.032 276.704C418.999 276.782 418.95 276.852 418.888 276.91C418.827 276.968 418.754 277.013 418.674 277.042C418.595 277.071 418.51 277.083 418.426 277.078H418.463ZM406.063 277.078H402.765C402.6 277.078 402.442 277.013 402.326 276.896C402.21 276.78 402.145 276.622 402.145 276.458C402.148 276.295 402.214 276.139 402.33 276.023C402.445 275.907 402.601 275.841 402.765 275.838H406.063C406.227 275.838 406.385 275.903 406.501 276.02C406.618 276.136 406.683 276.294 406.683 276.458C406.683 276.543 406.666 276.626 406.632 276.704C406.599 276.782 406.55 276.852 406.488 276.91C406.427 276.968 406.354 277.013 406.274 277.042C406.195 277.071 406.11 277.083 406.026 277.078H406.063ZM474.263 276.346C474.099 276.364 473.934 276.316 473.805 276.213C473.675 276.11 473.593 275.959 473.575 275.795C473.557 275.63 473.605 275.465 473.708 275.336C473.812 275.207 473.962 275.124 474.127 275.106C476.105 274.669 478.033 274.029 479.88 273.197C479.954 273.162 480.034 273.142 480.116 273.139C480.197 273.136 480.279 273.149 480.355 273.178C480.432 273.207 480.501 273.251 480.56 273.307C480.619 273.364 480.666 273.432 480.699 273.507C480.766 273.656 480.771 273.827 480.713 273.98C480.654 274.133 480.538 274.258 480.389 274.325C478.465 275.192 476.458 275.861 474.399 276.322L474.263 276.346ZM485.497 271.3C485.367 271.3 485.24 271.259 485.135 271.183C485.029 271.106 484.95 270.999 484.909 270.876C484.868 270.752 484.867 270.619 484.906 270.495C484.944 270.371 485.021 270.262 485.125 270.184C486.769 268.995 488.293 267.65 489.676 266.166C489.791 266.07 489.938 266.019 490.088 266.023C490.237 266.027 490.381 266.085 490.491 266.186C490.602 266.288 490.672 266.426 490.688 266.575C490.705 266.724 490.667 266.874 490.581 266.997C489.15 268.548 487.568 269.952 485.857 271.188C485.727 271.279 485.568 271.319 485.411 271.3H485.497ZM493.855 262.26C493.741 262.262 493.63 262.232 493.533 262.173C493.393 262.086 493.293 261.948 493.254 261.788C493.214 261.628 493.239 261.46 493.322 261.318C494.374 259.587 495.251 257.755 495.938 255.849C495.964 255.772 496.006 255.7 496.061 255.639C496.115 255.578 496.182 255.529 496.256 255.494C496.33 255.459 496.41 255.44 496.492 255.437C496.574 255.434 496.655 255.448 496.732 255.477C496.886 255.533 497.012 255.648 497.082 255.797C497.152 255.946 497.16 256.116 497.104 256.271C496.391 258.254 495.481 260.161 494.388 261.962C494.326 262.068 494.234 262.152 494.123 262.205C494.013 262.258 493.889 262.277 493.768 262.26H493.855ZM498.009 250.666H497.91C497.748 250.639 497.604 250.55 497.507 250.418C497.41 250.286 497.367 250.122 497.389 249.959C497.587 248.542 497.687 247.112 497.687 245.681V243.871C497.687 243.706 497.752 243.549 497.868 243.432C497.984 243.316 498.142 243.251 498.307 243.251C498.471 243.251 498.629 243.316 498.745 243.432C498.861 243.549 498.927 243.706 498.927 243.871V245.681C498.929 247.171 498.825 248.658 498.617 250.133C498.595 250.295 498.51 250.443 498.38 250.543C498.249 250.643 498.085 250.687 497.922 250.666H498.009ZM498.307 238.266C498.143 238.263 497.987 238.196 497.872 238.081C497.756 237.965 497.69 237.809 497.687 237.646V231.446C497.687 231.282 497.752 231.124 497.868 231.008C497.984 230.891 498.142 230.826 498.307 230.826C498.471 230.826 498.629 230.891 498.745 231.008C498.861 231.124 498.927 231.282 498.927 231.446V237.646C498.931 237.737 498.915 237.829 498.881 237.913C498.846 237.998 498.793 238.073 498.725 238.135C498.658 238.197 498.577 238.243 498.49 238.27C498.403 238.296 498.31 238.304 498.22 238.291L498.307 238.266ZM498.307 225.866C498.143 225.863 497.987 225.796 497.872 225.681C497.756 225.565 497.69 225.409 497.687 225.246V219.046C497.687 218.882 497.752 218.724 497.868 218.608C497.984 218.491 498.142 218.426 498.307 218.426C498.471 218.426 498.629 218.491 498.745 218.608C498.861 218.724 498.927 218.882 498.927 219.046V225.246C498.931 225.337 498.915 225.429 498.881 225.513C498.846 225.598 498.793 225.673 498.725 225.735C498.658 225.797 498.577 225.843 498.49 225.87C498.403 225.896 498.31 225.904 498.22 225.891L498.307 225.866ZM498.307 213.466C498.143 213.463 497.987 213.396 497.872 213.281C497.756 213.165 497.69 213.009 497.687 212.846V206.646C497.687 206.482 497.752 206.324 497.868 206.208C497.984 206.091 498.142 206.026 498.307 206.026C498.471 206.026 498.629 206.091 498.745 206.208C498.861 206.324 498.927 206.482 498.927 206.646V212.846C498.931 212.937 498.915 213.029 498.881 213.113C498.846 213.198 498.793 213.273 498.725 213.335C498.658 213.397 498.577 213.443 498.49 213.47C498.403 213.496 498.31 213.504 498.22 213.491L498.307 213.466ZM498.307 201.066C498.143 201.063 497.987 200.996 497.872 200.881C497.756 200.765 497.69 200.609 497.687 200.446V194.246C497.687 194.082 497.752 193.924 497.868 193.808C497.984 193.691 498.142 193.626 498.307 193.626C498.471 193.626 498.629 193.691 498.745 193.808C498.861 193.924 498.927 194.082 498.927 194.246V200.446C498.931 200.537 498.915 200.629 498.881 200.713C498.846 200.798 498.793 200.873 498.725 200.935C498.658 200.997 498.577 201.043 498.49 201.07C498.403 201.096 498.31 201.104 498.22 201.091L498.307 201.066Z" fill="#263238"/>
<path d="M404.996 268.733L391.604 276.458L404.996 284.196V268.733Z" fill="#263238"/>
<path d="M566.847 117.442L456.81 94.7946L440.596 173.57L550.634 196.217L566.847 117.442Z" fill="#263238"/>
<path d="M561.151 110.109L451.113 87.4612L434.9 166.236L544.938 188.884L561.151 110.109Z" fill="white"/>
<path d="M545.427 189.596L434.174 166.706L434.298 166.098L450.641 86.738L561.894 109.616L561.77 110.224L545.427 189.596ZM435.637 165.738L544.459 188.133L560.48 110.583L451.596 88.1888L435.637 165.738Z" fill="#263238"/>
<path d="M498.033 138.781C497.948 138.78 497.863 138.762 497.784 138.728C497.705 138.694 497.634 138.644 497.575 138.582L450.665 87.8664C450.597 87.8099 450.542 87.7395 450.503 87.6598C450.465 87.5802 450.444 87.4933 450.442 87.4048C450.439 87.3163 450.456 87.2284 450.491 87.147C450.525 87.0656 450.577 86.9925 450.642 86.9326C450.707 86.8728 450.785 86.8276 450.869 86.8001C450.953 86.7726 451.042 86.7634 451.13 86.7732C451.218 86.7829 451.303 86.8114 451.379 86.8567C451.455 86.9019 451.52 86.963 451.571 87.0356L498.182 137.417L560.901 109.529C561.051 109.462 561.221 109.457 561.375 109.515C561.528 109.573 561.652 109.69 561.72 109.839C561.755 109.913 561.774 109.993 561.778 110.075C561.781 110.156 561.768 110.238 561.739 110.314C561.71 110.391 561.666 110.461 561.609 110.519C561.553 110.578 561.485 110.625 561.41 110.658L498.281 138.731C498.204 138.767 498.119 138.783 498.033 138.781Z" fill="#263238"/>
</svg>
